<svg xmlns="http://www.w3.org/2000/svg" xmlns:oryx="http://oryx-editor.org" id="_DE2060CE-BF47-44D1-A43F-7F8D27DC5BB8" width="686" height="261" xmlns:xlink="http://www.w3.org/1999/xlink" xmlns:svg="http://www.w3.org/2000/svg"><defs><marker id="_669F57B1-9FB7-48AD-AF21-08C7EC051CE9start" refX="1" refY="5" markerUnits="userSpaceOnUse" markerWidth="17" markerHeight="11" orient="auto" fill="#000000" stroke="#000000"> 	  		<path id="_669F57B1-9FB7-48AD-AF21-08C7EC051CE9conditional" d="M 0 5 L 8 0 L 16 5 L 8 10 L 0 5" fill="white" stroke="#000000" stroke-width="1" display="none"/> 			<path id="_669F57B1-9FB7-48AD-AF21-08C7EC051CE9default" d="M 5 0 L 11 10" fill="white" stroke="#000000" stroke-width="1" display="none"/> 	  	</marker><marker id="_669F57B1-9FB7-48AD-AF21-08C7EC051CE9end" refX="15" refY="6" markerUnits="userSpaceOnUse" markerWidth="15" markerHeight="12" orient="auto" fill="#000000" stroke="#000000"> 	  		<path id="_669F57B1-9FB7-48AD-AF21-08C7EC051CE9frame2" d="M 0 1 L 15 6 L 0 11z" fill="#000000" stroke="#000000" stroke-linejoin="round" stroke-width="2"/> 	  	</marker><marker id="_F97D8D99-EC44-48AD-AE0B-6BDFE06848F6start" refX="1" refY="5" markerUnits="userSpaceOnUse" markerWidth="17" markerHeight="11" orient="auto" fill="#000000" stroke="#000000"> 	  		<path id="_F97D8D99-EC44-48AD-AE0B-6BDFE06848F6conditional" d="M 0 5 L 8 0 L 16 5 L 8 10 L 0 5" fill="white" stroke="#000000" stroke-width="1" display="none"/> 			<path id="_F97D8D99-EC44-48AD-AE0B-6BDFE06848F6default" d="M 5 0 L 11 10" fill="white" stroke="#000000" stroke-width="1" display="none"/> 	  	</marker><marker id="_F97D8D99-EC44-48AD-AE0B-6BDFE06848F6end" refX="15" refY="6" markerUnits="userSpaceOnUse" markerWidth="15" markerHeight="12" orient="auto" fill="#000000" stroke="#000000"> 	  		<path id="_F97D8D99-EC44-48AD-AE0B-6BDFE06848F6frame2" d="M 0 1 L 15 6 L 0 11z" fill="#000000" stroke="#000000" stroke-linejoin="round" stroke-width="2"/> 	  	</marker><marker id="_8CEF4C8B-D2AE-496D-8363-85C5F2485843start" refX="1" refY="5" markerUnits="userSpaceOnUse" markerWidth="17" markerHeight="11" orient="auto" fill="#000000" stroke="#000000"> 	  		<path id="_8CEF4C8B-D2AE-496D-8363-85C5F2485843conditional" d="M 0 5 L 8 0 L 16 5 L 8 10 L 0 5" fill="white" stroke="#000000" stroke-width="1" display="none"/> 			<path id="_8CEF4C8B-D2AE-496D-8363-85C5F2485843default" d="M 5 0 L 11 10" fill="white" stroke="#000000" stroke-width="1" display="none"/> 	  	</marker><marker id="_8CEF4C8B-D2AE-496D-8363-85C5F2485843end" refX="15" refY="6" markerUnits="userSpaceOnUse" markerWidth="15" markerHeight="12" orient="auto" fill="#000000" stroke="#000000"> 	  		<path id="_8CEF4C8B-D2AE-496D-8363-85C5F2485843frame2" d="M 0 1 L 15 6 L 0 11z" fill="#000000" stroke="#000000" stroke-linejoin="round" stroke-width="2"/> 	  	</marker><marker id="_2828BDAC-0461-49DA-8D85-042DB57067EDstart" refX="1" refY="5" markerUnits="userSpaceOnUse" markerWidth="17" markerHeight="11" orient="auto" fill="#000000" stroke="#000000"> 	  		<path id="_2828BDAC-0461-49DA-8D85-042DB57067EDconditional" d="M 0 5 L 8 0 L 16 5 L 8 10 L 0 5" fill="white" stroke="#000000" stroke-width="1" display="none"/> 			<path id="_2828BDAC-0461-49DA-8D85-042DB57067EDdefault" d="M 5 0 L 11 10" fill="white" stroke="#000000" stroke-width="1" display="none"/> 	  	</marker><marker id="_2828BDAC-0461-49DA-8D85-042DB57067EDend" refX="15" refY="6" markerUnits="userSpaceOnUse" markerWidth="15" markerHeight="12" orient="auto" fill="#000000" stroke="#000000"> 	  		<path id="_2828BDAC-0461-49DA-8D85-042DB57067EDframe2" d="M 0 1 L 15 6 L 0 11z" fill="#000000" stroke="#000000" stroke-linejoin="round" stroke-width="2"/> 	  	</marker></defs><g stroke="none" font-family="Verdana, sans-serif" font-size-adjust="none" font-style="normal" font-variant="normal" font-weight="normal" line-heigth="normal" font-size="12"><g class="stencils" transform="translate(16, 16)"><g class="me"/><g class="children"><g id="_4BCF8DF0-F4A2-4B2E-B3F0-2E5F9EC2DE0D" bpmn2nodeid="processStartEvent"><g class="stencils" transform="translate(120, 165)"><g class="me"><g pointer-events="fill" id="_4BCF8DF0-F4A2-4B2E-B3F0-2E5F9EC2DE0D">        <defs id="_4BCF8DF0-F4A2-4B2E-B3F0-2E5F9EC2DE0D__4BCF8DF0-F4A2-4B2E-B3F0-2E5F9EC2DE0D_5"> 		<radialGradient id="_4BCF8DF0-F4A2-4B2E-B3F0-2E5F9EC2DE0Dbackground" cx="10%" cy="10%" r="100%" fx="10%" fy="10%"> 			<stop offset="0%" stop-color="#ffffff" stop-opacity="1" id="_4BCF8DF0-F4A2-4B2E-B3F0-2E5F9EC2DE0D__4BCF8DF0-F4A2-4B2E-B3F0-2E5F9EC2DE0D_6"/> 			<stop id="_4BCF8DF0-F4A2-4B2E-B3F0-2E5F9EC2DE0Dfill_el" offset="100%" stop-color="#9acd32" stop-opacity="1"/> 		</radialGradient> 	</defs> 	     <circle id="_4BCF8DF0-F4A2-4B2E-B3F0-2E5F9EC2DE0Dbg_frame" cx="15" cy="15" r="15" stroke="#000000" fill="url(#_4BCF8DF0-F4A2-4B2E-B3F0-2E5F9EC2DE0Dbackground) white" stroke-width="1" style="stroke-dasharray: 5.5, 3"/>      <circle id="_4BCF8DF0-F4A2-4B2E-B3F0-2E5F9EC2DE0Dframe" cx="15" cy="15" r="15" stroke="#000000" fill="none" stroke-width="1" display="inherit"/>  	<text font-size="11" id="_4BCF8DF0-F4A2-4B2E-B3F0-2E5F9EC2DE0Dtext_name" x="15" y="32" oryx:align="top center" stroke="black" stroke-width="0pt" letter-spacing="-0.01px" fill="#000000" text-anchor="middle" transform="rotate(0 15 32)" visibility="inherit" oryx:fontSize="11"/>   </g></g><g class="children" style="overflow:hidden"/><g class="edge"/></g><g class="controls"><g class="dockers"/><g class="magnets" transform="translate(120, 165)"><g pointer-events="all" display="none" transform="translate(7, 7)"><circle cx="8" cy="8" r="4" stroke="none" fill="red" fill-opacity="0.3"/></g></g></g></g><g id="_5AB1F2D9-AE1B-4EC8-BB9F-FC77093A44EA" bpmn2nodeid="_A50D67F8-8734-487C-8F93-637ADE1EB76C"><g class="stencils" transform="translate(195, 140)"><g class="me"><g pointer-events="fill" oryx:minimumSize="50 40" id="_5AB1F2D9-AE1B-4EC8-BB9F-FC77093A44EA">   	<defs id="_5AB1F2D9-AE1B-4EC8-BB9F-FC77093A44EA__5AB1F2D9-AE1B-4EC8-BB9F-FC77093A44EA_17"> 		<radialGradient id="_5AB1F2D9-AE1B-4EC8-BB9F-FC77093A44EAbackground" cx="10%" cy="10%" r="100%" fx="10%" fy="10%"> 			<stop offset="0%" stop-color="#ffffff" stop-opacity="1" id="_5AB1F2D9-AE1B-4EC8-BB9F-FC77093A44EA__5AB1F2D9-AE1B-4EC8-BB9F-FC77093A44EA_18"/> 			<stop id="_5AB1F2D9-AE1B-4EC8-BB9F-FC77093A44EAfill_el" offset="100%" stop-color="#fafad2" stop-opacity="1"/> 		</radialGradient> 		<radialGradient id="_5AB1F2D9-AE1B-4EC8-BB9F-FC77093A44EAborderbackground" cx="10%" cy="10%" r="100%" fx="10%" fy="10%"> 			<stop offset="0%" stop-color="#ffffff" stop-opacity="1" id="_5AB1F2D9-AE1B-4EC8-BB9F-FC77093A44EA__5AB1F2D9-AE1B-4EC8-BB9F-FC77093A44EA_19"/> 			<stop id="_5AB1F2D9-AE1B-4EC8-BB9F-FC77093A44EAfill_border" offset="100%" stop-color="#000000" stop-opacity="1" stroke="#000000"/> 		</radialGradient> 	</defs> 	 	<rect id="_5AB1F2D9-AE1B-4EC8-BB9F-FC77093A44EAtext_frame" oryx:anchors="bottom top right left" x="1" y="1" width="94" height="79" rx="10" ry="10" stroke="none" stroke-width="0" fill="none"/> 	<rect id="_5AB1F2D9-AE1B-4EC8-BB9F-FC77093A44EAbg_frame" oryx:resize="vertical horizontal" x="0" y="0" width="100" height="80" rx="10" ry="10" stroke="#000000" stroke-width="1" fill="url(#_5AB1F2D9-AE1B-4EC8-BB9F-FC77093A44EAbackground) #ffffcc"/> 		<text font-size="12" id="_5AB1F2D9-AE1B-4EC8-BB9F-FC77093A44EAtext_name" x="50" y="40" oryx:align="middle center" oryx:fittoelem="text_frame" stroke="black" text-anchor="middle" stroke-width="0pt" letter-spacing="-0.01px" fill="#000000" transform="rotate(0 50 40)" visibility="inherit" oryx:fontSize="12"><tspan x="50" y="40" dy="5">task1</tspan></text>     <g id="_5AB1F2D9-AE1B-4EC8-BB9F-FC77093A44EAmanualTask" transform="scale(0.7,0.7) translate(8,8)" display="none">     	<path oryx:anchors="top left" id="_5AB1F2D9-AE1B-4EC8-BB9F-FC77093A44EAframe" style="opacity:1;fill:none;fill-opacity:1;stroke-width:1" d="M0.5,3.751l4.083-3.25c0,0,11.166,0.083,12.083,0.083s-2.417,2.917-1.5,2.917     s11.667,0,12.584,0c1.166,1.708-0.168,3.167-0.834,3.667s0.875,1.917-1,4.417c-0.75,0.25,0.75,1.875-1.333,3.333     c-1.167,0.583,0.583,1.542-1.25,2.833c-1.167,0-20.833,0.083-20.833,0.083l-2-1.333V3.751z" stroke="#000000"/> 		<path id="_5AB1F2D9-AE1B-4EC8-BB9F-FC77093A44EAframe2" oryx:anchors="top left" style="opacity:1;fill:none;stroke-width:2" d="M 13.5 7 L 27 7" stroke="#000000"/> 		<path id="_5AB1F2D9-AE1B-4EC8-BB9F-FC77093A44EAframe3" oryx:anchors="top left" style="opacity:1;fill:none;stroke-width:2" d="M 13.5 11 L 26 11" stroke="#000000"/> 		<path id="_5AB1F2D9-AE1B-4EC8-BB9F-FC77093A44EAframe4" oryx:anchors="top left" style="opacity:1;fill:none;stroke-width:1.5" d="M 14 14.5 L 25 14.5" stroke="#000000"/> 		<path id="_5AB1F2D9-AE1B-4EC8-BB9F-FC77093A44EAframe5" oryx:anchors="top left" style="opacity:1;fill:none;stroke-width:1.5" d="M 8.2 3.1 L 15 3.1" stroke="#000000"/> 	</g> 	 	<g id="_5AB1F2D9-AE1B-4EC8-BB9F-FC77093A44EAbusinessRuleTask" transform="scale(0.7,0.7) translate(8,8)" display="none"> 		<rect id="_5AB1F2D9-AE1B-4EC8-BB9F-FC77093A44EAframe6" oryx:anchors="top left" x="0" y="0" width="22" height="4" style="opacity:1;fill:#B3B1B3;fill-opacity:1;" stroke="#000000"/> 		<rect id="_5AB1F2D9-AE1B-4EC8-BB9F-FC77093A44EAframe7" oryx:anchors="top left" x="0" y="4" style="opacity:1;fill:none;" width="22" height="12" stroke="#000000"/> 		<path id="_5AB1F2D9-AE1B-4EC8-BB9F-FC77093A44EAframe8" oryx:anchors="top left" style="opacity:1;fill:none;" d="M 0 10 L 22 10" stroke="#000000"/> 		<path id="_5AB1F2D9-AE1B-4EC8-BB9F-FC77093A44EAframe9" oryx:anchors="top left" style="opacity:1; fill:none;" d="M 7 4 L 7 16" stroke="#000000"/> 	</g> 	 	<g id="_5AB1F2D9-AE1B-4EC8-BB9F-FC77093A44EAscriptTask" transform="scale(0.7,0.7) translate(8,8)" display="none"> 		<path oryx:anchors="top left" id="_5AB1F2D9-AE1B-4EC8-BB9F-FC77093A44EAframe10" style="opacity:1;fill:none;" stroke="#000000" d="M6.402,0.5h14.5c0,0-5.833,2.833-5.833,5.583s4.417,6,4.417,9.167    s-4.167,5.083-4.167,5.083H0.235c0,0,5-2.667,5-5s-4.583-6.75-4.583-9.25S6.402,0.5,6.402,0.5z"/> 		<path oryx:anchors="top left" id="_5AB1F2D9-AE1B-4EC8-BB9F-FC77093A44EAframe11" style="opacity:1;fill:none;stroke-width:1.5" d="M 3.5 4.5 L 13.5 4.5" stroke="#000000"/> 		<path oryx:anchors="top left" id="_5AB1F2D9-AE1B-4EC8-BB9F-FC77093A44EAframe12" style="opacity:1;fill:none;stroke-width:1.5" d="M 3.8 8.5 L 13.8 8.5" stroke="#000000"/> 		<path oryx:anchors="top left" id="_5AB1F2D9-AE1B-4EC8-BB9F-FC77093A44EAframe13" style="opacity:1;fill:none;stroke-width:1.5" d="M 6.3 12.5 L 16.3 12.5" stroke="#000000"/> 		<path oryx:anchors="top left" id="_5AB1F2D9-AE1B-4EC8-BB9F-FC77093A44EAframe14" style="opacity:1;fill:none;stroke-width:1.5" d="M 6.5 16.5 L 16.5 16.5" stroke="#000000"/> 	</g> 	 	<g id="_5AB1F2D9-AE1B-4EC8-BB9F-FC77093A44EAuserTask" transform="scale(0.7,0.7) translate(8,8)" display="inherit"> 		<path id="_5AB1F2D9-AE1B-4EC8-BB9F-FC77093A44EAframe15" oryx:anchors="top left" style="opacity:1;fill:#F4F6F7" stroke="#000000" d="M0.585,24.167h24.083v-7.833c0,0-2.333-3.917-7.083-5.167h-9.25    c-4.417,1.333-7.833,5.75-7.833,5.75L0.585,24.167z"/> 		<path id="_5AB1F2D9-AE1B-4EC8-BB9F-FC77093A44EAframe16" oryx:anchors="top left" style="opacity:1;fill:none" d="M 6 20 L 6 24" stroke="#000000"/> 		<path id="_5AB1F2D9-AE1B-4EC8-BB9F-FC77093A44EAframe17" oryx:anchors="top left" style="opacity:1;fill:none" d="M 20 20 L 20 24" stroke="#000000"/> 		<circle id="_5AB1F2D9-AE1B-4EC8-BB9F-FC77093A44EAframe18" oryx:anchors="top left" fill="black" cx="13.002" cy="5.916" r="5.417" stroke="#000000"/> 		<path id="_5AB1F2D9-AE1B-4EC8-BB9F-FC77093A44EAframe19" oryx:anchors="top left" style="opacity:1;fill:#F0EFF0;" stroke="#000000" d="M8.043,7.083c0,0,2.814-2.426,5.376-1.807s4.624-0.693,4.624-0.693    c0.25,1.688,0.042,3.75-1.458,5.584c0,0,1.083,0.75,1.083,1.5s0.125,1.875-1,3s-5.5,1.25-6.75,0S8.668,12.834,8.668,12    s0.583-1.25,1.25-1.917C8.835,9.5,7.419,7.708,8.043,7.083z"/> 	</g> 	 	<g id="_5AB1F2D9-AE1B-4EC8-BB9F-FC77093A44EAserviceTask" transform="scale(0.7,0.7) translate(8,8)" display="none"> 		<polygon oryx:anchors="top left" id="_5AB1F2D9-AE1B-4EC8-BB9F-FC77093A44EAframe20" style="opacity:1;fill:#ffffff" stroke="#000000" points="15.392,5.064 17.954,2.502 20.347,4.895 17.786,7.455     18.729,9.732 22.353,9.732 22.353,13.115 18.731,13.115 17.788,15.392 20.351,17.955 17.958,20.347 15.397,17.786 13.12,18.729     13.12,22.353 9.737,22.353 9.737,18.731 7.46,17.788 4.897,20.35 2.506,17.958 5.066,15.397 4.124,13.12 0.5,13.12 0.5,9.737     4.121,9.737 5.065,7.461 2.503,4.898 4.895,2.506 7.455,5.066 9.732,4.125 9.732,0.5 13.116,0.5 13.116,4.121 "/> 		<circle oryx:anchors="top left" id="_5AB1F2D9-AE1B-4EC8-BB9F-FC77093A44EAframe21" style="opacity:1;fill:none" stroke="#000000" cx="11.427" cy="11.426" r="3.714"/> 		<polygon oryx:anchors="top left" id="_5AB1F2D9-AE1B-4EC8-BB9F-FC77093A44EAframe22" style="opacity:1;fill:#ffffff" stroke="#000000" points="21.392,11.064 23.954,8.502 26.347,10.895 23.786,13.455     24.729,15.732 28.353,15.732 28.353,19.115 24.731,19.115 23.788,21.392 26.351,23.955 23.958,26.347 21.397,23.786 19.12,24.729     19.12,28.353 15.737,28.353 15.737,24.731 13.46,23.788 10.897,26.35 8.506,23.958 11.066,21.397 10.124,19.12 6.5,19.12     6.5,15.737 10.121,15.737 11.065,13.461 8.503,10.898 10.895,8.506 13.455,11.066 15.732,10.125 15.732,6.5 19.116,6.5     19.116,10.121 "/> 		<circle oryx:anchors="top left" id="_5AB1F2D9-AE1B-4EC8-BB9F-FC77093A44EAframe23" style="opacity:1;fill:none;" stroke="#000000" cx="17.427" cy="17.426" r="3.714"/> 	</g> 	 	<g id="_5AB1F2D9-AE1B-4EC8-BB9F-FC77093A44EAsendTask" display="none"> 		<path id="_5AB1F2D9-AE1B-4EC8-BB9F-FC77093A44EAstframe24" oryx:anchors="left top" stroke="#FFFFFF" fill="black" stroke-width="1" d="M8,11 L8,21 L24,21 L24,11 L16,17z"/> 		<path id="_5AB1F2D9-AE1B-4EC8-BB9F-FC77093A44EAstframe25" oryx:anchors="left top" stroke="#FFFFFF" fill="black" stroke-width="1" d="M7,10 L16,17 L25 10z"/> 	</g> 	 	<g id="_5AB1F2D9-AE1B-4EC8-BB9F-FC77093A44EAreceiveTask" display="none"> 		<path id="_5AB1F2D9-AE1B-4EC8-BB9F-FC77093A44EAframe26" oryx:anchors="left top" stroke="#000000" fill="none" stroke-width="1" d="M8,11 L8,21 L24,21 L24,11z M8,11 L16,17 L24,11"/> 	</g> 	 	<g id="_5AB1F2D9-AE1B-4EC8-BB9F-FC77093A44EAnone" display="inherit"/>  	<g id="_5AB1F2D9-AE1B-4EC8-BB9F-FC77093A44EAsequential" display="none">         <path oryx:anchors="bottom" fill="none" stroke="#000000" stroke-width="2" d="M46,76h10M46,72h10 M46,68h10" id="_5AB1F2D9-AE1B-4EC8-BB9F-FC77093A44EA__5AB1F2D9-AE1B-4EC8-BB9F-FC77093A44EA_20"/>     </g>   </g></g><g class="children" style="overflow:hidden"/><g class="edge"/></g><g class="controls"><g class="dockers"/><g class="magnets" transform="translate(195, 140)"><g pointer-events="all" display="none" transform="translate(-7, 12)"><circle cx="8" cy="8" r="4" stroke="none" fill="red" fill-opacity="0.3"/></g><g pointer-events="all" display="none" transform="translate(-7, 32)"><circle cx="8" cy="8" r="4" stroke="none" fill="red" fill-opacity="0.3"/></g><g pointer-events="all" display="none" transform="translate(-7, 52)"><circle cx="8" cy="8" r="4" stroke="none" fill="red" fill-opacity="0.3"/></g><g pointer-events="all" display="none" transform="translate(17, 71)"><circle cx="8" cy="8" r="4" stroke="none" fill="red" fill-opacity="0.3"/></g><g pointer-events="all" display="none" transform="translate(42, 71)"><circle cx="8" cy="8" r="4" stroke="none" fill="red" fill-opacity="0.3"/></g><g pointer-events="all" display="none" transform="translate(67, 71)"><circle cx="8" cy="8" r="4" stroke="none" fill="red" fill-opacity="0.3"/></g><g pointer-events="all" display="none" transform="translate(91, 12)"><circle cx="8" cy="8" r="4" stroke="none" fill="red" fill-opacity="0.3"/></g><g pointer-events="all" display="none" transform="translate(91, 32)"><circle cx="8" cy="8" r="4" stroke="none" fill="red" fill-opacity="0.3"/></g><g pointer-events="all" display="none" transform="translate(91, 52)"><circle cx="8" cy="8" r="4" stroke="none" fill="red" fill-opacity="0.3"/></g><g pointer-events="all" display="none" transform="translate(17, -7)"><circle cx="8" cy="8" r="4" stroke="none" fill="red" fill-opacity="0.3"/></g><g pointer-events="all" display="none" transform="translate(42, -7)"><circle cx="8" cy="8" r="4" stroke="none" fill="red" fill-opacity="0.3"/></g><g pointer-events="all" display="none" transform="translate(67, -7)"><circle cx="8" cy="8" r="4" stroke="none" fill="red" fill-opacity="0.3"/></g><g pointer-events="all" display="none" transform="translate(42, 32)"><circle cx="8" cy="8" r="4" stroke="none" fill="red" fill-opacity="0.3"/></g></g></g></g><g id="_B157EAB3-75DA-4DF4-BF06-16589E949128" bpmn2nodeid="_1EA3600A-796C-4BB1-86E0-915109C64219"><g class="stencils" transform="translate(340, 140)"><g class="me"><g pointer-events="fill" oryx:minimumSize="50 40" id="_B157EAB3-75DA-4DF4-BF06-16589E949128">   	<defs id="_B157EAB3-75DA-4DF4-BF06-16589E949128__B157EAB3-75DA-4DF4-BF06-16589E949128_17"> 		<radialGradient id="_B157EAB3-75DA-4DF4-BF06-16589E949128background" cx="10%" cy="10%" r="100%" fx="10%" fy="10%"> 			<stop offset="0%" stop-color="#ffffff" stop-opacity="1" id="_B157EAB3-75DA-4DF4-BF06-16589E949128__B157EAB3-75DA-4DF4-BF06-16589E949128_18"/> 			<stop id="_B157EAB3-75DA-4DF4-BF06-16589E949128fill_el" offset="100%" stop-color="#fafad2" stop-opacity="1"/> 		</radialGradient> 		<radialGradient id="_B157EAB3-75DA-4DF4-BF06-16589E949128borderbackground" cx="10%" cy="10%" r="100%" fx="10%" fy="10%"> 			<stop offset="0%" stop-color="#ffffff" stop-opacity="1" id="_B157EAB3-75DA-4DF4-BF06-16589E949128__B157EAB3-75DA-4DF4-BF06-16589E949128_19"/> 			<stop id="_B157EAB3-75DA-4DF4-BF06-16589E949128fill_border" offset="100%" stop-color="#000000" stop-opacity="1" stroke="#000000"/> 		</radialGradient> 	</defs> 	 	<rect id="_B157EAB3-75DA-4DF4-BF06-16589E949128text_frame" oryx:anchors="bottom top right left" x="1" y="1" width="94" height="79" rx="10" ry="10" stroke="none" stroke-width="0" fill="none"/> 	<rect id="_B157EAB3-75DA-4DF4-BF06-16589E949128bg_frame" oryx:resize="vertical horizontal" x="0" y="0" width="100" height="80" rx="10" ry="10" stroke="#000000" stroke-width="1" fill="url(#_B157EAB3-75DA-4DF4-BF06-16589E949128background) #ffffcc"/> 		<text font-size="12" id="_B157EAB3-75DA-4DF4-BF06-16589E949128text_name" x="50" y="40" oryx:align="middle center" oryx:fittoelem="text_frame" stroke="black" text-anchor="middle" stroke-width="0pt" letter-spacing="-0.01px" fill="#000000" transform="rotate(0 50 40)" visibility="inherit" oryx:fontSize="12"><tspan x="50" y="40" dy="5">task2</tspan></text>     <g id="_B157EAB3-75DA-4DF4-BF06-16589E949128manualTask" transform="scale(0.7,0.7) translate(8,8)" display="none">     	<path oryx:anchors="top left" id="_B157EAB3-75DA-4DF4-BF06-16589E949128frame" style="opacity:1;fill:none;fill-opacity:1;stroke-width:1" d="M0.5,3.751l4.083-3.25c0,0,11.166,0.083,12.083,0.083s-2.417,2.917-1.5,2.917     s11.667,0,12.584,0c1.166,1.708-0.168,3.167-0.834,3.667s0.875,1.917-1,4.417c-0.75,0.25,0.75,1.875-1.333,3.333     c-1.167,0.583,0.583,1.542-1.25,2.833c-1.167,0-20.833,0.083-20.833,0.083l-2-1.333V3.751z" stroke="#000000"/> 		<path id="_B157EAB3-75DA-4DF4-BF06-16589E949128frame2" oryx:anchors="top left" style="opacity:1;fill:none;stroke-width:2" d="M 13.5 7 L 27 7" stroke="#000000"/> 		<path id="_B157EAB3-75DA-4DF4-BF06-16589E949128frame3" oryx:anchors="top left" style="opacity:1;fill:none;stroke-width:2" d="M 13.5 11 L 26 11" stroke="#000000"/> 		<path id="_B157EAB3-75DA-4DF4-BF06-16589E949128frame4" oryx:anchors="top left" style="opacity:1;fill:none;stroke-width:1.5" d="M 14 14.5 L 25 14.5" stroke="#000000"/> 		<path id="_B157EAB3-75DA-4DF4-BF06-16589E949128frame5" oryx:anchors="top left" style="opacity:1;fill:none;stroke-width:1.5" d="M 8.2 3.1 L 15 3.1" stroke="#000000"/> 	</g> 	 	<g id="_B157EAB3-75DA-4DF4-BF06-16589E949128businessRuleTask" transform="scale(0.7,0.7) translate(8,8)" display="none"> 		<rect id="_B157EAB3-75DA-4DF4-BF06-16589E949128frame6" oryx:anchors="top left" x="0" y="0" width="22" height="4" style="opacity:1;fill:#B3B1B3;fill-opacity:1;" stroke="#000000"/> 		<rect id="_B157EAB3-75DA-4DF4-BF06-16589E949128frame7" oryx:anchors="top left" x="0" y="4" style="opacity:1;fill:none;" width="22" height="12" stroke="#000000"/> 		<path id="_B157EAB3-75DA-4DF4-BF06-16589E949128frame8" oryx:anchors="top left" style="opacity:1;fill:none;" d="M 0 10 L 22 10" stroke="#000000"/> 		<path id="_B157EAB3-75DA-4DF4-BF06-16589E949128frame9" oryx:anchors="top left" style="opacity:1; fill:none;" d="M 7 4 L 7 16" stroke="#000000"/> 	</g> 	 	<g id="_B157EAB3-75DA-4DF4-BF06-16589E949128scriptTask" transform="scale(0.7,0.7) translate(8,8)" display="inherit"> 		<path oryx:anchors="top left" id="_B157EAB3-75DA-4DF4-BF06-16589E949128frame10" style="opacity:1;fill:none;" stroke="#000000" d="M6.402,0.5h14.5c0,0-5.833,2.833-5.833,5.583s4.417,6,4.417,9.167    s-4.167,5.083-4.167,5.083H0.235c0,0,5-2.667,5-5s-4.583-6.75-4.583-9.25S6.402,0.5,6.402,0.5z"/> 		<path oryx:anchors="top left" id="_B157EAB3-75DA-4DF4-BF06-16589E949128frame11" style="opacity:1;fill:none;stroke-width:1.5" d="M 3.5 4.5 L 13.5 4.5" stroke="#000000"/> 		<path oryx:anchors="top left" id="_B157EAB3-75DA-4DF4-BF06-16589E949128frame12" style="opacity:1;fill:none;stroke-width:1.5" d="M 3.8 8.5 L 13.8 8.5" stroke="#000000"/> 		<path oryx:anchors="top left" id="_B157EAB3-75DA-4DF4-BF06-16589E949128frame13" style="opacity:1;fill:none;stroke-width:1.5" d="M 6.3 12.5 L 16.3 12.5" stroke="#000000"/> 		<path oryx:anchors="top left" id="_B157EAB3-75DA-4DF4-BF06-16589E949128frame14" style="opacity:1;fill:none;stroke-width:1.5" d="M 6.5 16.5 L 16.5 16.5" stroke="#000000"/> 	</g> 	 	<g id="_B157EAB3-75DA-4DF4-BF06-16589E949128userTask" transform="scale(0.7,0.7) translate(8,8)" display="none"> 		<path id="_B157EAB3-75DA-4DF4-BF06-16589E949128frame15" oryx:anchors="top left" style="opacity:1;fill:#F4F6F7" stroke="#000000" d="M0.585,24.167h24.083v-7.833c0,0-2.333-3.917-7.083-5.167h-9.25    c-4.417,1.333-7.833,5.75-7.833,5.75L0.585,24.167z"/> 		<path id="_B157EAB3-75DA-4DF4-BF06-16589E949128frame16" oryx:anchors="top left" style="opacity:1;fill:none" d="M 6 20 L 6 24" stroke="#000000"/> 		<path id="_B157EAB3-75DA-4DF4-BF06-16589E949128frame17" oryx:anchors="top left" style="opacity:1;fill:none" d="M 20 20 L 20 24" stroke="#000000"/> 		<circle id="_B157EAB3-75DA-4DF4-BF06-16589E949128frame18" oryx:anchors="top left" fill="black" cx="13.002" cy="5.916" r="5.417" stroke="#000000"/> 		<path id="_B157EAB3-75DA-4DF4-BF06-16589E949128frame19" oryx:anchors="top left" style="opacity:1;fill:#F0EFF0;" stroke="#000000" d="M8.043,7.083c0,0,2.814-2.426,5.376-1.807s4.624-0.693,4.624-0.693    c0.25,1.688,0.042,3.75-1.458,5.584c0,0,1.083,0.75,1.083,1.5s0.125,1.875-1,3s-5.5,1.25-6.75,0S8.668,12.834,8.668,12    s0.583-1.25,1.25-1.917C8.835,9.5,7.419,7.708,8.043,7.083z"/> 	</g> 	 	<g id="_B157EAB3-75DA-4DF4-BF06-16589E949128serviceTask" transform="scale(0.7,0.7) translate(8,8)" display="none"> 		<polygon oryx:anchors="top left" id="_B157EAB3-75DA-4DF4-BF06-16589E949128frame20" style="opacity:1;fill:#ffffff" stroke="#000000" points="15.392,5.064 17.954,2.502 20.347,4.895 17.786,7.455     18.729,9.732 22.353,9.732 22.353,13.115 18.731,13.115 17.788,15.392 20.351,17.955 17.958,20.347 15.397,17.786 13.12,18.729     13.12,22.353 9.737,22.353 9.737,18.731 7.46,17.788 4.897,20.35 2.506,17.958 5.066,15.397 4.124,13.12 0.5,13.12 0.5,9.737     4.121,9.737 5.065,7.461 2.503,4.898 4.895,2.506 7.455,5.066 9.732,4.125 9.732,0.5 13.116,0.5 13.116,4.121 "/> 		<circle oryx:anchors="top left" id="_B157EAB3-75DA-4DF4-BF06-16589E949128frame21" style="opacity:1;fill:none" stroke="#000000" cx="11.427" cy="11.426" r="3.714"/> 		<polygon oryx:anchors="top left" id="_B157EAB3-75DA-4DF4-BF06-16589E949128frame22" style="opacity:1;fill:#ffffff" stroke="#000000" points="21.392,11.064 23.954,8.502 26.347,10.895 23.786,13.455     24.729,15.732 28.353,15.732 28.353,19.115 24.731,19.115 23.788,21.392 26.351,23.955 23.958,26.347 21.397,23.786 19.12,24.729     19.12,28.353 15.737,28.353 15.737,24.731 13.46,23.788 10.897,26.35 8.506,23.958 11.066,21.397 10.124,19.12 6.5,19.12     6.5,15.737 10.121,15.737 11.065,13.461 8.503,10.898 10.895,8.506 13.455,11.066 15.732,10.125 15.732,6.5 19.116,6.5     19.116,10.121 "/> 		<circle oryx:anchors="top left" id="_B157EAB3-75DA-4DF4-BF06-16589E949128frame23" style="opacity:1;fill:none;" stroke="#000000" cx="17.427" cy="17.426" r="3.714"/> 	</g> 	 	<g id="_B157EAB3-75DA-4DF4-BF06-16589E949128sendTask" display="none"> 		<path id="_B157EAB3-75DA-4DF4-BF06-16589E949128stframe24" oryx:anchors="left top" stroke="#FFFFFF" fill="black" stroke-width="1" d="M8,11 L8,21 L24,21 L24,11 L16,17z"/> 		<path id="_B157EAB3-75DA-4DF4-BF06-16589E949128stframe25" oryx:anchors="left top" stroke="#FFFFFF" fill="black" stroke-width="1" d="M7,10 L16,17 L25 10z"/> 	</g> 	 	<g id="_B157EAB3-75DA-4DF4-BF06-16589E949128receiveTask" display="none"> 		<path id="_B157EAB3-75DA-4DF4-BF06-16589E949128frame26" oryx:anchors="left top" stroke="#000000" fill="none" stroke-width="1" d="M8,11 L8,21 L24,21 L24,11z M8,11 L16,17 L24,11"/> 	</g> 	 	<g id="_B157EAB3-75DA-4DF4-BF06-16589E949128none" display="inherit"/>  	<g id="_B157EAB3-75DA-4DF4-BF06-16589E949128sequential" display="none">         <path oryx:anchors="bottom" fill="none" stroke="#000000" stroke-width="2" d="M46,76h10M46,72h10 M46,68h10" id="_B157EAB3-75DA-4DF4-BF06-16589E949128__B157EAB3-75DA-4DF4-BF06-16589E949128_20"/>     </g>   </g></g><g class="children" style="overflow:hidden"/><g class="edge"/></g><g class="controls"><g class="dockers"/><g class="magnets" transform="translate(340, 140)"><g pointer-events="all" display="none" transform="translate(-7, 12)"><circle cx="8" cy="8" r="4" stroke="none" fill="red" fill-opacity="0.3"/></g><g pointer-events="all" display="none" transform="translate(-7, 32)"><circle cx="8" cy="8" r="4" stroke="none" fill="red" fill-opacity="0.3"/></g><g pointer-events="all" display="none" transform="translate(-7, 52)"><circle cx="8" cy="8" r="4" stroke="none" fill="red" fill-opacity="0.3"/></g><g pointer-events="all" display="none" transform="translate(17, 71)"><circle cx="8" cy="8" r="4" stroke="none" fill="red" fill-opacity="0.3"/></g><g pointer-events="all" display="none" transform="translate(42, 71)"><circle cx="8" cy="8" r="4" stroke="none" fill="red" fill-opacity="0.3"/></g><g pointer-events="all" display="none" transform="translate(67, 71)"><circle cx="8" cy="8" r="4" stroke="none" fill="red" fill-opacity="0.3"/></g><g pointer-events="all" display="none" transform="translate(91, 12)"><circle cx="8" cy="8" r="4" stroke="none" fill="red" fill-opacity="0.3"/></g><g pointer-events="all" display="none" transform="translate(91, 32)"><circle cx="8" cy="8" r="4" stroke="none" fill="red" fill-opacity="0.3"/></g><g pointer-events="all" display="none" transform="translate(91, 52)"><circle cx="8" cy="8" r="4" stroke="none" fill="red" fill-opacity="0.3"/></g><g pointer-events="all" display="none" transform="translate(17, -7)"><circle cx="8" cy="8" r="4" stroke="none" fill="red" fill-opacity="0.3"/></g><g pointer-events="all" display="none" transform="translate(42, -7)"><circle cx="8" cy="8" r="4" stroke="none" fill="red" fill-opacity="0.3"/></g><g pointer-events="all" display="none" transform="translate(67, -7)"><circle cx="8" cy="8" r="4" stroke="none" fill="red" fill-opacity="0.3"/></g><g pointer-events="all" display="none" transform="translate(42, 32)"><circle cx="8" cy="8" r="4" stroke="none" fill="red" fill-opacity="0.3"/></g></g></g></g><g id="_B94EA119-25D1-4B29-8729-E59F1558C599" bpmn2nodeid="_AC9F5D4F-DECF-4E94-A2A8-4795D4C25DFF"><g class="stencils" transform="translate(472, 140)"><g class="me"><g pointer-events="fill" oryx:minimumSize="50 40" id="_B94EA119-25D1-4B29-8729-E59F1558C599">   	<defs id="_B94EA119-25D1-4B29-8729-E59F1558C599__B94EA119-25D1-4B29-8729-E59F1558C599_17"> 		<radialGradient id="_B94EA119-25D1-4B29-8729-E59F1558C599background" cx="10%" cy="10%" r="100%" fx="10%" fy="10%"> 			<stop offset="0%" stop-color="#ffffff" stop-opacity="1" id="_B94EA119-25D1-4B29-8729-E59F1558C599__B94EA119-25D1-4B29-8729-E59F1558C599_18"/> 			<stop id="_B94EA119-25D1-4B29-8729-E59F1558C599fill_el" offset="100%" stop-color="#fafad2" stop-opacity="1"/> 		</radialGradient> 		<radialGradient id="_B94EA119-25D1-4B29-8729-E59F1558C599borderbackground" cx="10%" cy="10%" r="100%" fx="10%" fy="10%"> 			<stop offset="0%" stop-color="#ffffff" stop-opacity="1" id="_B94EA119-25D1-4B29-8729-E59F1558C599__B94EA119-25D1-4B29-8729-E59F1558C599_19"/> 			<stop id="_B94EA119-25D1-4B29-8729-E59F1558C599fill_border" offset="100%" stop-color="#000000" stop-opacity="1" stroke="#000000"/> 		</radialGradient> 	</defs> 	 	<rect id="_B94EA119-25D1-4B29-8729-E59F1558C599text_frame" oryx:anchors="bottom top right left" x="1" y="1" width="94" height="79" rx="10" ry="10" stroke="none" stroke-width="0" fill="none"/> 	<rect id="_B94EA119-25D1-4B29-8729-E59F1558C599bg_frame" oryx:resize="vertical horizontal" x="0" y="0" width="100" height="80" rx="10" ry="10" stroke="#000000" stroke-width="1" fill="url(#_B94EA119-25D1-4B29-8729-E59F1558C599background) #ffffcc"/> 		<text font-size="12" id="_B94EA119-25D1-4B29-8729-E59F1558C599text_name" x="50" y="40" oryx:align="middle center" oryx:fittoelem="text_frame" stroke="black" text-anchor="middle" stroke-width="0pt" letter-spacing="-0.01px" fill="#000000" transform="rotate(0 50 40)" visibility="inherit" oryx:fontSize="12"><tspan x="50" y="40" dy="5">task3</tspan></text>     <g id="_B94EA119-25D1-4B29-8729-E59F1558C599manualTask" transform="scale(0.7,0.7) translate(8,8)" display="none">     	<path oryx:anchors="top left" id="_B94EA119-25D1-4B29-8729-E59F1558C599frame" style="opacity:1;fill:none;fill-opacity:1;stroke-width:1" d="M0.5,3.751l4.083-3.25c0,0,11.166,0.083,12.083,0.083s-2.417,2.917-1.5,2.917     s11.667,0,12.584,0c1.166,1.708-0.168,3.167-0.834,3.667s0.875,1.917-1,4.417c-0.75,0.25,0.75,1.875-1.333,3.333     c-1.167,0.583,0.583,1.542-1.25,2.833c-1.167,0-20.833,0.083-20.833,0.083l-2-1.333V3.751z" stroke="#000000"/> 		<path id="_B94EA119-25D1-4B29-8729-E59F1558C599frame2" oryx:anchors="top left" style="opacity:1;fill:none;stroke-width:2" d="M 13.5 7 L 27 7" stroke="#000000"/> 		<path id="_B94EA119-25D1-4B29-8729-E59F1558C599frame3" oryx:anchors="top left" style="opacity:1;fill:none;stroke-width:2" d="M 13.5 11 L 26 11" stroke="#000000"/> 		<path id="_B94EA119-25D1-4B29-8729-E59F1558C599frame4" oryx:anchors="top left" style="opacity:1;fill:none;stroke-width:1.5" d="M 14 14.5 L 25 14.5" stroke="#000000"/> 		<path id="_B94EA119-25D1-4B29-8729-E59F1558C599frame5" oryx:anchors="top left" style="opacity:1;fill:none;stroke-width:1.5" d="M 8.2 3.1 L 15 3.1" stroke="#000000"/> 	</g> 	 	<g id="_B94EA119-25D1-4B29-8729-E59F1558C599businessRuleTask" transform="scale(0.7,0.7) translate(8,8)" display="none"> 		<rect id="_B94EA119-25D1-4B29-8729-E59F1558C599frame6" oryx:anchors="top left" x="0" y="0" width="22" height="4" style="opacity:1;fill:#B3B1B3;fill-opacity:1;" stroke="#000000"/> 		<rect id="_B94EA119-25D1-4B29-8729-E59F1558C599frame7" oryx:anchors="top left" x="0" y="4" style="opacity:1;fill:none;" width="22" height="12" stroke="#000000"/> 		<path id="_B94EA119-25D1-4B29-8729-E59F1558C599frame8" oryx:anchors="top left" style="opacity:1;fill:none;" d="M 0 10 L 22 10" stroke="#000000"/> 		<path id="_B94EA119-25D1-4B29-8729-E59F1558C599frame9" oryx:anchors="top left" style="opacity:1; fill:none;" d="M 7 4 L 7 16" stroke="#000000"/> 	</g> 	 	<g id="_B94EA119-25D1-4B29-8729-E59F1558C599scriptTask" transform="scale(0.7,0.7) translate(8,8)" display="none"> 		<path oryx:anchors="top left" id="_B94EA119-25D1-4B29-8729-E59F1558C599frame10" style="opacity:1;fill:none;" stroke="#000000" d="M6.402,0.5h14.5c0,0-5.833,2.833-5.833,5.583s4.417,6,4.417,9.167    s-4.167,5.083-4.167,5.083H0.235c0,0,5-2.667,5-5s-4.583-6.75-4.583-9.25S6.402,0.5,6.402,0.5z"/> 		<path oryx:anchors="top left" id="_B94EA119-25D1-4B29-8729-E59F1558C599frame11" style="opacity:1;fill:none;stroke-width:1.5" d="M 3.5 4.5 L 13.5 4.5" stroke="#000000"/> 		<path oryx:anchors="top left" id="_B94EA119-25D1-4B29-8729-E59F1558C599frame12" style="opacity:1;fill:none;stroke-width:1.5" d="M 3.8 8.5 L 13.8 8.5" stroke="#000000"/> 		<path oryx:anchors="top left" id="_B94EA119-25D1-4B29-8729-E59F1558C599frame13" style="opacity:1;fill:none;stroke-width:1.5" d="M 6.3 12.5 L 16.3 12.5" stroke="#000000"/> 		<path oryx:anchors="top left" id="_B94EA119-25D1-4B29-8729-E59F1558C599frame14" style="opacity:1;fill:none;stroke-width:1.5" d="M 6.5 16.5 L 16.5 16.5" stroke="#000000"/> 	</g> 	 	<g id="_B94EA119-25D1-4B29-8729-E59F1558C599userTask" transform="scale(0.7,0.7) translate(8,8)" display="inherit"> 		<path id="_B94EA119-25D1-4B29-8729-E59F1558C599frame15" oryx:anchors="top left" style="opacity:1;fill:#F4F6F7" stroke="#000000" d="M0.585,24.167h24.083v-7.833c0,0-2.333-3.917-7.083-5.167h-9.25    c-4.417,1.333-7.833,5.75-7.833,5.75L0.585,24.167z"/> 		<path id="_B94EA119-25D1-4B29-8729-E59F1558C599frame16" oryx:anchors="top left" style="opacity:1;fill:none" d="M 6 20 L 6 24" stroke="#000000"/> 		<path id="_B94EA119-25D1-4B29-8729-E59F1558C599frame17" oryx:anchors="top left" style="opacity:1;fill:none" d="M 20 20 L 20 24" stroke="#000000"/> 		<circle id="_B94EA119-25D1-4B29-8729-E59F1558C599frame18" oryx:anchors="top left" fill="black" cx="13.002" cy="5.916" r="5.417" stroke="#000000"/> 		<path id="_B94EA119-25D1-4B29-8729-E59F1558C599frame19" oryx:anchors="top left" style="opacity:1;fill:#F0EFF0;" stroke="#000000" d="M8.043,7.083c0,0,2.814-2.426,5.376-1.807s4.624-0.693,4.624-0.693    c0.25,1.688,0.042,3.75-1.458,5.584c0,0,1.083,0.75,1.083,1.5s0.125,1.875-1,3s-5.5,1.25-6.75,0S8.668,12.834,8.668,12    s0.583-1.25,1.25-1.917C8.835,9.5,7.419,7.708,8.043,7.083z"/> 	</g> 	 	<g id="_B94EA119-25D1-4B29-8729-E59F1558C599serviceTask" transform="scale(0.7,0.7) translate(8,8)" display="none"> 		<polygon oryx:anchors="top left" id="_B94EA119-25D1-4B29-8729-E59F1558C599frame20" style="opacity:1;fill:#ffffff" stroke="#000000" points="15.392,5.064 17.954,2.502 20.347,4.895 17.786,7.455     18.729,9.732 22.353,9.732 22.353,13.115 18.731,13.115 17.788,15.392 20.351,17.955 17.958,20.347 15.397,17.786 13.12,18.729     13.12,22.353 9.737,22.353 9.737,18.731 7.46,17.788 4.897,20.35 2.506,17.958 5.066,15.397 4.124,13.12 0.5,13.12 0.5,9.737     4.121,9.737 5.065,7.461 2.503,4.898 4.895,2.506 7.455,5.066 9.732,4.125 9.732,0.5 13.116,0.5 13.116,4.121 "/> 		<circle oryx:anchors="top left" id="_B94EA119-25D1-4B29-8729-E59F1558C599frame21" style="opacity:1;fill:none" stroke="#000000" cx="11.427" cy="11.426" r="3.714"/> 		<polygon oryx:anchors="top left" id="_B94EA119-25D1-4B29-8729-E59F1558C599frame22" style="opacity:1;fill:#ffffff" stroke="#000000" points="21.392,11.064 23.954,8.502 26.347,10.895 23.786,13.455     24.729,15.732 28.353,15.732 28.353,19.115 24.731,19.115 23.788,21.392 26.351,23.955 23.958,26.347 21.397,23.786 19.12,24.729     19.12,28.353 15.737,28.353 15.737,24.731 13.46,23.788 10.897,26.35 8.506,23.958 11.066,21.397 10.124,19.12 6.5,19.12     6.5,15.737 10.121,15.737 11.065,13.461 8.503,10.898 10.895,8.506 13.455,11.066 15.732,10.125 15.732,6.5 19.116,6.5     19.116,10.121 "/> 		<circle oryx:anchors="top left" id="_B94EA119-25D1-4B29-8729-E59F1558C599frame23" style="opacity:1;fill:none;" stroke="#000000" cx="17.427" cy="17.426" r="3.714"/> 	</g> 	 	<g id="_B94EA119-25D1-4B29-8729-E59F1558C599sendTask" display="none"> 		<path id="_B94EA119-25D1-4B29-8729-E59F1558C599stframe24" oryx:anchors="left top" stroke="#FFFFFF" fill="black" stroke-width="1" d="M8,11 L8,21 L24,21 L24,11 L16,17z"/> 		<path id="_B94EA119-25D1-4B29-8729-E59F1558C599stframe25" oryx:anchors="left top" stroke="#FFFFFF" fill="black" stroke-width="1" d="M7,10 L16,17 L25 10z"/> 	</g> 	 	<g id="_B94EA119-25D1-4B29-8729-E59F1558C599receiveTask" display="none"> 		<path id="_B94EA119-25D1-4B29-8729-E59F1558C599frame26" oryx:anchors="left top" stroke="#000000" fill="none" stroke-width="1" d="M8,11 L8,21 L24,21 L24,11z M8,11 L16,17 L24,11"/> 	</g> 	 	<g id="_B94EA119-25D1-4B29-8729-E59F1558C599none" display="none"/>  	<g id="_B94EA119-25D1-4B29-8729-E59F1558C599sequential" display="none">         <path oryx:anchors="bottom" fill="none" stroke="#000000" stroke-width="2" d="M46,76h10M46,72h10 M46,68h10" id="_B94EA119-25D1-4B29-8729-E59F1558C599__B94EA119-25D1-4B29-8729-E59F1558C599_20"/>     </g>   </g></g><g class="children" style="overflow:hidden"/><g class="edge"/></g><g class="controls"><g class="dockers"/><g class="magnets" transform="translate(472, 140)"><g pointer-events="all" display="none" transform="translate(-7, 12)"><circle cx="8" cy="8" r="4" stroke="none" fill="red" fill-opacity="0.3"/></g><g pointer-events="all" display="none" transform="translate(-7, 32)"><circle cx="8" cy="8" r="4" stroke="none" fill="red" fill-opacity="0.3"/></g><g pointer-events="all" display="none" transform="translate(-7, 52)"><circle cx="8" cy="8" r="4" stroke="none" fill="red" fill-opacity="0.3"/></g><g pointer-events="all" display="none" transform="translate(17, 71)"><circle cx="8" cy="8" r="4" stroke="none" fill="red" fill-opacity="0.3"/></g><g pointer-events="all" display="none" transform="translate(42, 71)"><circle cx="8" cy="8" r="4" stroke="none" fill="red" fill-opacity="0.3"/></g><g pointer-events="all" display="none" transform="translate(67, 71)"><circle cx="8" cy="8" r="4" stroke="none" fill="red" fill-opacity="0.3"/></g><g pointer-events="all" display="none" transform="translate(91, 12)"><circle cx="8" cy="8" r="4" stroke="none" fill="red" fill-opacity="0.3"/></g><g pointer-events="all" display="none" transform="translate(91, 32)"><circle cx="8" cy="8" r="4" stroke="none" fill="red" fill-opacity="0.3"/></g><g pointer-events="all" display="none" transform="translate(91, 52)"><circle cx="8" cy="8" r="4" stroke="none" fill="red" fill-opacity="0.3"/></g><g pointer-events="all" display="none" transform="translate(17, -7)"><circle cx="8" cy="8" r="4" stroke="none" fill="red" fill-opacity="0.3"/></g><g pointer-events="all" display="none" transform="translate(42, -7)"><circle cx="8" cy="8" r="4" stroke="none" fill="red" fill-opacity="0.3"/></g><g pointer-events="all" display="none" transform="translate(67, -7)"><circle cx="8" cy="8" r="4" stroke="none" fill="red" fill-opacity="0.3"/></g><g pointer-events="all" display="none" transform="translate(42, 32)"><circle cx="8" cy="8" r="4" stroke="none" fill="red" fill-opacity="0.3"/></g></g></g></g><g id="_29151B77-A847-4CC8-BB9A-B2FF872A9E12" bpmn2nodeid="_A4196B24-2822-4FF5-8F6B-CF3DD6D5843C"><g class="stencils" transform="translate(617, 166)"><g class="me"><g pointer-events="fill" id="_29151B77-A847-4CC8-BB9A-B2FF872A9E12">      <defs id="_29151B77-A847-4CC8-BB9A-B2FF872A9E12__29151B77-A847-4CC8-BB9A-B2FF872A9E12_5"> 		<radialGradient id="_29151B77-A847-4CC8-BB9A-B2FF872A9E12background" cx="10%" cy="10%" r="100%" fx="10%" fy="10%"> 			<stop offset="0%" stop-color="#ffffff" stop-opacity="1" id="_29151B77-A847-4CC8-BB9A-B2FF872A9E12__29151B77-A847-4CC8-BB9A-B2FF872A9E12_6"/> 			<stop id="_29151B77-A847-4CC8-BB9A-B2FF872A9E12fill_el" offset="100%" stop-color="#ff6347" stop-opacity="1"/> 		</radialGradient> 	</defs> 	     <circle id="_29151B77-A847-4CC8-BB9A-B2FF872A9E12bg_frame" cx="14" cy="14" r="14" stroke="#000000" fill="url(#_29151B77-A847-4CC8-BB9A-B2FF872A9E12background) white" stroke-width="3"/> 	<text font-size="11" id="_29151B77-A847-4CC8-BB9A-B2FF872A9E12text_name" x="14" y="30" oryx:align="top center" stroke="black" stroke-width="0pt" letter-spacing="-0.01px" fill="#000000" text-anchor="middle" transform="rotate(0 14 30)" visibility="inherit" oryx:fontSize="11"/>   </g></g><g class="children" style="overflow:hidden"/><g class="edge"/></g><g class="controls"><g class="dockers"/><g class="magnets" transform="translate(617, 166)"><g pointer-events="all" display="none" transform="translate(6, 6)"><circle cx="8" cy="8" r="4" stroke="none" fill="red" fill-opacity="0.3"/></g></g></g></g></g><g class="edge"><g id="_669F57B1-9FB7-48AD-AF21-08C7EC051CE9" bpmn2nodeid="_01542274-F839-4252-94C7-73C86AC41D0C"><g class="stencils"><g class="me"><g pointer-events="painted" bpmn2nodeid="_911EE7B6-F96A-4244-A935-E8D090048635"><path id="_669F57B1-9FB7-48AD-AF21-08C7EC051CE9_1" d="M150.609375 180L194.15625 180 " stroke="#000000" fill="none" stroke-width="2" stroke-linecap="round" stroke-linejoin="round" marker-start="url(#_669F57B1-9FB7-48AD-AF21-08C7EC051CE9start)" marker-end="url(#_669F57B1-9FB7-48AD-AF21-08C7EC051CE9end)"/></g><text id="_669F57B1-9FB7-48AD-AF21-08C7EC051CE9text_name" font-size="12" x="164.609375" y="166" oryx:edgePosition="startTop" stroke-width="0pt" letter-spacing="-0.01px" fill="#000000" text-anchor="start" transform="rotate(360 150.609375 180)" visibility="inherit" oryx:fontSize="12"/></g><g class="children" style="overflow:hidden"/><g class="edge"/></g><g class="controls"><g class="dockers"/><g class="magnets"/></g></g><g id="_F97D8D99-EC44-48AD-AE0B-6BDFE06848F6" bpmn2nodeid="_DDED8659-760C-474D-9811-0C22FA461AEF"><g class="stencils"><g class="me"><g pointer-events="painted" bpmn2nodeid="_83997555-FB48-4F49-9123-8D0BBB7CE242"><path id="_F97D8D99-EC44-48AD-AE0B-6BDFE06848F6_1" d="M295.84375 180L339.15625 180 " stroke="#000000" fill="none" stroke-width="2" stroke-linecap="round" stroke-linejoin="round" marker-start="url(#_F97D8D99-EC44-48AD-AE0B-6BDFE06848F6start)" marker-end="url(#_F97D8D99-EC44-48AD-AE0B-6BDFE06848F6end)"/></g><text id="_F97D8D99-EC44-48AD-AE0B-6BDFE06848F6text_name" font-size="12" x="309.84375" y="166" oryx:edgePosition="startTop" stroke-width="0pt" letter-spacing="-0.01px" fill="#000000" text-anchor="start" transform="rotate(360 295.84375 180)" visibility="inherit" oryx:fontSize="12"/></g><g class="children" style="overflow:hidden"/><g class="edge"/></g><g class="controls"><g class="dockers"/><g class="magnets"/></g></g><g id="_8CEF4C8B-D2AE-496D-8363-85C5F2485843" bpmn2nodeid="_5678D8A2-BB16-4C20-B137-328CCD1233C7"><g class="stencils"><g class="me"><g pointer-events="painted" bpmn2nodeid="_AE9098A0-AD39-4DEF-B726-0CB943FF72C4"><path id="_8CEF4C8B-D2AE-496D-8363-85C5F2485843_1" d="M440.5 180L471.5 180 " stroke="#000000" fill="none" stroke-width="2" stroke-linecap="round" stroke-linejoin="round" marker-start="url(#_8CEF4C8B-D2AE-496D-8363-85C5F2485843start)" marker-end="url(#_8CEF4C8B-D2AE-496D-8363-85C5F2485843end)"/></g><text id="_8CEF4C8B-D2AE-496D-8363-85C5F2485843text_name" font-size="12" x="454.5" y="166" oryx:edgePosition="startTop" stroke-width="0pt" letter-spacing="-0.01px" fill="#000000" text-anchor="start" transform="rotate(360 440.5 180)" visibility="inherit" oryx:fontSize="12"/></g><g class="children" style="overflow:hidden"/><g class="edge"/></g><g class="controls"><g class="dockers"/><g class="magnets"/></g></g><g id="_2828BDAC-0461-49DA-8D85-042DB57067ED" bpmn2nodeid="_BD7F7F77-911F-4AC8-A12B-FCD73FDB524A"><g class="stencils"><g class="me"><g pointer-events="painted" bpmn2nodeid="_259311E2-58C1-4016-BEFC-275453772FAF"><path id="_2828BDAC-0461-49DA-8D85-042DB57067ED_1" d="M572.390625 180L616.375 180 " stroke="#000000" fill="none" stroke-width="2" stroke-linecap="round" stroke-linejoin="round" marker-start="url(#_2828BDAC-0461-49DA-8D85-042DB57067EDstart)" marker-end="url(#_2828BDAC-0461-49DA-8D85-042DB57067EDend)"/></g><text id="_2828BDAC-0461-49DA-8D85-042DB57067EDtext_name" font-size="12" x="586.390625" y="166" oryx:edgePosition="startTop" stroke-width="0pt" letter-spacing="-0.01px" fill="#000000" text-anchor="start" transform="rotate(360 572.390625 180)" visibility="inherit" oryx:fontSize="12"/></g><g class="children" style="overflow:hidden"/><g class="edge"/></g><g class="controls"><g class="dockers"/><g class="magnets"/></g></g></g><text id="_3CAA0205-AC0E-4B96-ACFC-9E7541D77253" style="stroke-width:1;fill:rgb(177,194,214);font-family:arial;font-weight:bold" font-size="12" onclick="ORYX.Plugins.CanvasTitle.openTextualAnalysis()" onmouseover="ORYX.Plugins.CanvasTitle.addToolTip('_3CAA0205-AC0E-4B96-ACFC-9E7541D77253')" transform="translate(10, 20)">new v.1.0 (New.new)</text></g></g></svg>