<svg xmlns="http://www.w3.org/2000/svg" xmlns:oryx="http://oryx-editor.org" id="_91604429-FE0A-4AF0-B840-3E6503D5B83A" width="686" height="265" xmlns:xlink="http://www.w3.org/1999/xlink" xmlns:svg="http://www.w3.org/2000/svg"><defs><marker id="_B49912A7-2925-4B85-B478-0714DD03B421start" refX="1" refY="5" markerUnits="userSpaceOnUse" markerWidth="17" markerHeight="11" orient="auto" fill="#000000" stroke="#000000"> 	  		<path id="_B49912A7-2925-4B85-B478-0714DD03B421conditional" d="M 0 5 L 8 0 L 16 5 L 8 10 L 0 5" fill="white" stroke="#000000" stroke-width="1" display="none"/> 			<path id="_B49912A7-2925-4B85-B478-0714DD03B421default" d="M 5 0 L 11 10" fill="white" stroke="#000000" stroke-width="1" display="none"/> 	  	</marker><marker id="_B49912A7-2925-4B85-B478-0714DD03B421end" refX="15" refY="6" markerUnits="userSpaceOnUse" markerWidth="15" markerHeight="12" orient="auto" fill="#000000" stroke="#000000"> 	  		<path id="_B49912A7-2925-4B85-B478-0714DD03B421frame2" d="M 0 1 L 15 6 L 0 11z" fill="#000000" stroke="#000000" stroke-linejoin="round" stroke-width="2"/> 	  	</marker><marker id="_20517C92-5B90-459C-9AE4-4AD6E1BE6EE0start" refX="1" refY="5" markerUnits="userSpaceOnUse" markerWidth="17" markerHeight="11" orient="auto" fill="#000000" stroke="#000000"> 	  		<path id="_20517C92-5B90-459C-9AE4-4AD6E1BE6EE0conditional" d="M 0 5 L 8 0 L 16 5 L 8 10 L 0 5" fill="white" stroke="#000000" stroke-width="1" display="none"/> 			<path id="_20517C92-5B90-459C-9AE4-4AD6E1BE6EE0default" d="M 5 0 L 11 10" fill="white" stroke="#000000" stroke-width="1" display="none"/> 	  	</marker><marker id="_20517C92-5B90-459C-9AE4-4AD6E1BE6EE0end" refX="15" refY="6" markerUnits="userSpaceOnUse" markerWidth="15" markerHeight="12" orient="auto" fill="#000000" stroke="#000000"> 	  		<path id="_20517C92-5B90-459C-9AE4-4AD6E1BE6EE0frame2" d="M 0 1 L 15 6 L 0 11z" fill="#000000" stroke="#000000" stroke-linejoin="round" stroke-width="2"/> 	  	</marker><marker id="_EBA5D7F6-A418-4448-9DCF-453E84E658A5start" refX="1" refY="5" markerUnits="userSpaceOnUse" markerWidth="17" markerHeight="11" orient="auto" fill="#000000" stroke="#000000"> 	  		<path id="_EBA5D7F6-A418-4448-9DCF-453E84E658A5conditional" d="M 0 5 L 8 0 L 16 5 L 8 10 L 0 5" fill="white" stroke="#000000" stroke-width="1" display="none"/> 			<path id="_EBA5D7F6-A418-4448-9DCF-453E84E658A5default" d="M 5 0 L 11 10" fill="white" stroke="#000000" stroke-width="1" display="none"/> 	  	</marker><marker id="_EBA5D7F6-A418-4448-9DCF-453E84E658A5end" refX="15" refY="6" markerUnits="userSpaceOnUse" markerWidth="15" markerHeight="12" orient="auto" fill="#000000" stroke="#000000"> 	  		<path id="_EBA5D7F6-A418-4448-9DCF-453E84E658A5frame2" d="M 0 1 L 15 6 L 0 11z" fill="#000000" stroke="#000000" stroke-linejoin="round" stroke-width="2"/> 	  	</marker><marker id="_328A77CE-7243-41EC-83F3-B5DBB66A7C58start" refX="1" refY="5" markerUnits="userSpaceOnUse" markerWidth="17" markerHeight="11" orient="auto" fill="#000000" stroke="#000000"> 	  		<path id="_328A77CE-7243-41EC-83F3-B5DBB66A7C58conditional" d="M 0 5 L 8 0 L 16 5 L 8 10 L 0 5" fill="white" stroke="#000000" stroke-width="1" display="none"/> 			<path id="_328A77CE-7243-41EC-83F3-B5DBB66A7C58default" d="M 5 0 L 11 10" fill="white" stroke="#000000" stroke-width="1" display="none"/> 	  	</marker><marker id="_328A77CE-7243-41EC-83F3-B5DBB66A7C58end" refX="15" refY="6" markerUnits="userSpaceOnUse" markerWidth="15" markerHeight="12" orient="auto" fill="#000000" stroke="#000000"> 	  		<path id="_328A77CE-7243-41EC-83F3-B5DBB66A7C58frame2" d="M 0 1 L 15 6 L 0 11z" fill="#000000" stroke="#000000" stroke-linejoin="round" stroke-width="2"/> 	  	</marker></defs><g stroke="none" font-family="Verdana, sans-serif" font-size-adjust="none" font-style="normal" font-variant="normal" font-weight="normal" line-heigth="normal" font-size="12"><g class="stencils" transform="translate(16, 16)"><g class="me"/><g class="children"><g id="_13DC5C95-A602-42C5-8831-1889FAF7E052" bpmn2nodeid="processStartEvent"><g class="stencils" transform="translate(120, 165)"><g class="me"><g pointer-events="fill" id="_13DC5C95-A602-42C5-8831-1889FAF7E052">        <defs id="_13DC5C95-A602-42C5-8831-1889FAF7E052__13DC5C95-A602-42C5-8831-1889FAF7E052_5"> 		<radialGradient id="_13DC5C95-A602-42C5-8831-1889FAF7E052background" cx="10%" cy="10%" r="100%" fx="10%" fy="10%"> 			<stop offset="0%" stop-color="#ffffff" stop-opacity="1" id="_13DC5C95-A602-42C5-8831-1889FAF7E052__13DC5C95-A602-42C5-8831-1889FAF7E052_6"/> 			<stop id="_13DC5C95-A602-42C5-8831-1889FAF7E052fill_el" offset="100%" stop-color="#9acd32" stop-opacity="1"/> 		</radialGradient> 	</defs> 	     <circle id="_13DC5C95-A602-42C5-8831-1889FAF7E052bg_frame" cx="15" cy="15" r="15" stroke="#000000" fill="url(#_13DC5C95-A602-42C5-8831-1889FAF7E052background) white" stroke-width="1" style="stroke-dasharray: 5.5, 3"/>      <circle id="_13DC5C95-A602-42C5-8831-1889FAF7E052frame" cx="15" cy="15" r="15" stroke="#000000" fill="none" stroke-width="1" display="inherit"/>  	<text font-size="11" id="_13DC5C95-A602-42C5-8831-1889FAF7E052text_name" x="15" y="32" oryx:align="top center" stroke="black" stroke-width="0pt" letter-spacing="-0.01px" fill="#000000" text-anchor="middle" transform="rotate(0 15 32)" visibility="inherit" oryx:fontSize="11"/>   </g></g><g class="children" style="overflow:hidden"/><g class="edge"/></g><g class="controls"><g class="dockers"/><g class="magnets" transform="translate(120, 165)"><g pointer-events="all" display="none" transform="translate(7, 7)"><circle cx="8" cy="8" r="4" stroke="none" fill="red" fill-opacity="0.3"/></g></g></g></g><g id="_57B6815B-7D45-4F2A-9A32-80D3F49F233C" bpmn2nodeid="_A50D67F8-8734-487C-8F93-637ADE1EB76C"><g class="stencils" transform="translate(195, 140)"><g class="me"><g pointer-events="fill" oryx:minimumSize="50 40" id="_57B6815B-7D45-4F2A-9A32-80D3F49F233C">   	<defs id="_57B6815B-7D45-4F2A-9A32-80D3F49F233C__57B6815B-7D45-4F2A-9A32-80D3F49F233C_17"> 		<radialGradient id="_57B6815B-7D45-4F2A-9A32-80D3F49F233Cbackground" cx="10%" cy="10%" r="100%" fx="10%" fy="10%"> 			<stop offset="0%" stop-color="#ffffff" stop-opacity="1" id="_57B6815B-7D45-4F2A-9A32-80D3F49F233C__57B6815B-7D45-4F2A-9A32-80D3F49F233C_18"/> 			<stop id="_57B6815B-7D45-4F2A-9A32-80D3F49F233Cfill_el" offset="100%" stop-color="#fafad2" stop-opacity="1"/> 		</radialGradient> 		<radialGradient id="_57B6815B-7D45-4F2A-9A32-80D3F49F233Cborderbackground" cx="10%" cy="10%" r="100%" fx="10%" fy="10%"> 			<stop offset="0%" stop-color="#ffffff" stop-opacity="1" id="_57B6815B-7D45-4F2A-9A32-80D3F49F233C__57B6815B-7D45-4F2A-9A32-80D3F49F233C_19"/> 			<stop id="_57B6815B-7D45-4F2A-9A32-80D3F49F233Cfill_border" offset="100%" stop-color="#000000" stop-opacity="1" stroke="#000000"/> 		</radialGradient> 	</defs> 	 	<rect id="_57B6815B-7D45-4F2A-9A32-80D3F49F233Ctext_frame" oryx:anchors="bottom top right left" x="1" y="1" width="94" height="79" rx="10" ry="10" stroke="none" stroke-width="0" fill="none"/> 	<rect id="_57B6815B-7D45-4F2A-9A32-80D3F49F233Cbg_frame" oryx:resize="vertical horizontal" x="0" y="0" width="100" height="80" rx="10" ry="10" stroke="#000000" stroke-width="1" fill="url(#_57B6815B-7D45-4F2A-9A32-80D3F49F233Cbackground) #ffffcc"/> 		<text font-size="12" id="_57B6815B-7D45-4F2A-9A32-80D3F49F233Ctext_name" x="50" y="40" oryx:align="middle center" oryx:fittoelem="text_frame" stroke="black" text-anchor="middle" stroke-width="0pt" letter-spacing="-0.01px" fill="#000000" transform="rotate(0 50 40)" visibility="inherit" oryx:fontSize="12"><tspan x="50" y="40" dy="5">task1</tspan></text>     <g id="_57B6815B-7D45-4F2A-9A32-80D3F49F233CmanualTask" transform="scale(0.7,0.7) translate(8,8)" display="none">     	<path oryx:anchors="top left" id="_57B6815B-7D45-4F2A-9A32-80D3F49F233Cframe" style="opacity:1;fill:none;fill-opacity:1;stroke-width:1" d="M0.5,3.751l4.083-3.25c0,0,11.166,0.083,12.083,0.083s-2.417,2.917-1.5,2.917     s11.667,0,12.584,0c1.166,1.708-0.168,3.167-0.834,3.667s0.875,1.917-1,4.417c-0.75,0.25,0.75,1.875-1.333,3.333     c-1.167,0.583,0.583,1.542-1.25,2.833c-1.167,0-20.833,0.083-20.833,0.083l-2-1.333V3.751z" stroke="#000000"/> 		<path id="_57B6815B-7D45-4F2A-9A32-80D3F49F233Cframe2" oryx:anchors="top left" style="opacity:1;fill:none;stroke-width:2" d="M 13.5 7 L 27 7" stroke="#000000"/> 		<path id="_57B6815B-7D45-4F2A-9A32-80D3F49F233Cframe3" oryx:anchors="top left" style="opacity:1;fill:none;stroke-width:2" d="M 13.5 11 L 26 11" stroke="#000000"/> 		<path id="_57B6815B-7D45-4F2A-9A32-80D3F49F233Cframe4" oryx:anchors="top left" style="opacity:1;fill:none;stroke-width:1.5" d="M 14 14.5 L 25 14.5" stroke="#000000"/> 		<path id="_57B6815B-7D45-4F2A-9A32-80D3F49F233Cframe5" oryx:anchors="top left" style="opacity:1;fill:none;stroke-width:1.5" d="M 8.2 3.1 L 15 3.1" stroke="#000000"/> 	</g> 	 	<g id="_57B6815B-7D45-4F2A-9A32-80D3F49F233CbusinessRuleTask" transform="scale(0.7,0.7) translate(8,8)" display="none"> 		<rect id="_57B6815B-7D45-4F2A-9A32-80D3F49F233Cframe6" oryx:anchors="top left" x="0" y="0" width="22" height="4" style="opacity:1;fill:#B3B1B3;fill-opacity:1;" stroke="#000000"/> 		<rect id="_57B6815B-7D45-4F2A-9A32-80D3F49F233Cframe7" oryx:anchors="top left" x="0" y="4" style="opacity:1;fill:none;" width="22" height="12" stroke="#000000"/> 		<path id="_57B6815B-7D45-4F2A-9A32-80D3F49F233Cframe8" oryx:anchors="top left" style="opacity:1;fill:none;" d="M 0 10 L 22 10" stroke="#000000"/> 		<path id="_57B6815B-7D45-4F2A-9A32-80D3F49F233Cframe9" oryx:anchors="top left" style="opacity:1; fill:none;" d="M 7 4 L 7 16" stroke="#000000"/> 	</g> 	 	<g id="_57B6815B-7D45-4F2A-9A32-80D3F49F233CscriptTask" transform="scale(0.7,0.7) translate(8,8)" display="none"> 		<path oryx:anchors="top left" id="_57B6815B-7D45-4F2A-9A32-80D3F49F233Cframe10" style="opacity:1;fill:none;" stroke="#000000" d="M6.402,0.5h14.5c0,0-5.833,2.833-5.833,5.583s4.417,6,4.417,9.167    s-4.167,5.083-4.167,5.083H0.235c0,0,5-2.667,5-5s-4.583-6.75-4.583-9.25S6.402,0.5,6.402,0.5z"/> 		<path oryx:anchors="top left" id="_57B6815B-7D45-4F2A-9A32-80D3F49F233Cframe11" style="opacity:1;fill:none;stroke-width:1.5" d="M 3.5 4.5 L 13.5 4.5" stroke="#000000"/> 		<path oryx:anchors="top left" id="_57B6815B-7D45-4F2A-9A32-80D3F49F233Cframe12" style="opacity:1;fill:none;stroke-width:1.5" d="M 3.8 8.5 L 13.8 8.5" stroke="#000000"/> 		<path oryx:anchors="top left" id="_57B6815B-7D45-4F2A-9A32-80D3F49F233Cframe13" style="opacity:1;fill:none;stroke-width:1.5" d="M 6.3 12.5 L 16.3 12.5" stroke="#000000"/> 		<path oryx:anchors="top left" id="_57B6815B-7D45-4F2A-9A32-80D3F49F233Cframe14" style="opacity:1;fill:none;stroke-width:1.5" d="M 6.5 16.5 L 16.5 16.5" stroke="#000000"/> 	</g> 	 	<g id="_57B6815B-7D45-4F2A-9A32-80D3F49F233CuserTask" transform="scale(0.7,0.7) translate(8,8)" display="inherit"> 		<path id="_57B6815B-7D45-4F2A-9A32-80D3F49F233Cframe15" oryx:anchors="top left" style="opacity:1;fill:#F4F6F7" stroke="#000000" d="M0.585,24.167h24.083v-7.833c0,0-2.333-3.917-7.083-5.167h-9.25    c-4.417,1.333-7.833,5.75-7.833,5.75L0.585,24.167z"/> 		<path id="_57B6815B-7D45-4F2A-9A32-80D3F49F233Cframe16" oryx:anchors="top left" style="opacity:1;fill:none" d="M 6 20 L 6 24" stroke="#000000"/> 		<path id="_57B6815B-7D45-4F2A-9A32-80D3F49F233Cframe17" oryx:anchors="top left" style="opacity:1;fill:none" d="M 20 20 L 20 24" stroke="#000000"/> 		<circle id="_57B6815B-7D45-4F2A-9A32-80D3F49F233Cframe18" oryx:anchors="top left" fill="black" cx="13.002" cy="5.916" r="5.417" stroke="#000000"/> 		<path id="_57B6815B-7D45-4F2A-9A32-80D3F49F233Cframe19" oryx:anchors="top left" style="opacity:1;fill:#F0EFF0;" stroke="#000000" d="M8.043,7.083c0,0,2.814-2.426,5.376-1.807s4.624-0.693,4.624-0.693    c0.25,1.688,0.042,3.75-1.458,5.584c0,0,1.083,0.75,1.083,1.5s0.125,1.875-1,3s-5.5,1.25-6.75,0S8.668,12.834,8.668,12    s0.583-1.25,1.25-1.917C8.835,9.5,7.419,7.708,8.043,7.083z"/> 	</g> 	 	<g id="_57B6815B-7D45-4F2A-9A32-80D3F49F233CserviceTask" transform="scale(0.7,0.7) translate(8,8)" display="none"> 		<polygon oryx:anchors="top left" id="_57B6815B-7D45-4F2A-9A32-80D3F49F233Cframe20" style="opacity:1;fill:#ffffff" stroke="#000000" points="15.392,5.064 17.954,2.502 20.347,4.895 17.786,7.455     18.729,9.732 22.353,9.732 22.353,13.115 18.731,13.115 17.788,15.392 20.351,17.955 17.958,20.347 15.397,17.786 13.12,18.729     13.12,22.353 9.737,22.353 9.737,18.731 7.46,17.788 4.897,20.35 2.506,17.958 5.066,15.397 4.124,13.12 0.5,13.12 0.5,9.737     4.121,9.737 5.065,7.461 2.503,4.898 4.895,2.506 7.455,5.066 9.732,4.125 9.732,0.5 13.116,0.5 13.116,4.121 "/> 		<circle oryx:anchors="top left" id="_57B6815B-7D45-4F2A-9A32-80D3F49F233Cframe21" style="opacity:1;fill:none" stroke="#000000" cx="11.427" cy="11.426" r="3.714"/> 		<polygon oryx:anchors="top left" id="_57B6815B-7D45-4F2A-9A32-80D3F49F233Cframe22" style="opacity:1;fill:#ffffff" stroke="#000000" points="21.392,11.064 23.954,8.502 26.347,10.895 23.786,13.455     24.729,15.732 28.353,15.732 28.353,19.115 24.731,19.115 23.788,21.392 26.351,23.955 23.958,26.347 21.397,23.786 19.12,24.729     19.12,28.353 15.737,28.353 15.737,24.731 13.46,23.788 10.897,26.35 8.506,23.958 11.066,21.397 10.124,19.12 6.5,19.12     6.5,15.737 10.121,15.737 11.065,13.461 8.503,10.898 10.895,8.506 13.455,11.066 15.732,10.125 15.732,6.5 19.116,6.5     19.116,10.121 "/> 		<circle oryx:anchors="top left" id="_57B6815B-7D45-4F2A-9A32-80D3F49F233Cframe23" style="opacity:1;fill:none;" stroke="#000000" cx="17.427" cy="17.426" r="3.714"/> 	</g> 	 	<g id="_57B6815B-7D45-4F2A-9A32-80D3F49F233CsendTask" display="none"> 		<path id="_57B6815B-7D45-4F2A-9A32-80D3F49F233Cstframe24" oryx:anchors="left top" stroke="#FFFFFF" fill="black" stroke-width="1" d="M8,11 L8,21 L24,21 L24,11 L16,17z"/> 		<path id="_57B6815B-7D45-4F2A-9A32-80D3F49F233Cstframe25" oryx:anchors="left top" stroke="#FFFFFF" fill="black" stroke-width="1" d="M7,10 L16,17 L25 10z"/> 	</g> 	 	<g id="_57B6815B-7D45-4F2A-9A32-80D3F49F233CreceiveTask" display="none"> 		<path id="_57B6815B-7D45-4F2A-9A32-80D3F49F233Cframe26" oryx:anchors="left top" stroke="#000000" fill="none" stroke-width="1" d="M8,11 L8,21 L24,21 L24,11z M8,11 L16,17 L24,11"/> 	</g> 	 	<g id="_57B6815B-7D45-4F2A-9A32-80D3F49F233Cnone" display="inherit"/>  	<g id="_57B6815B-7D45-4F2A-9A32-80D3F49F233Csequential" display="none">         <path oryx:anchors="bottom" fill="none" stroke="#000000" stroke-width="2" d="M46,76h10M46,72h10 M46,68h10" id="_57B6815B-7D45-4F2A-9A32-80D3F49F233C__57B6815B-7D45-4F2A-9A32-80D3F49F233C_20"/>     </g>   </g></g><g class="children" style="overflow:hidden"/><g class="edge"/></g><g class="controls"><g class="dockers"/><g class="magnets" transform="translate(195, 140)"><g pointer-events="all" display="none" transform="translate(-7, 12)"><circle cx="8" cy="8" r="4" stroke="none" fill="red" fill-opacity="0.3"/></g><g pointer-events="all" display="none" transform="translate(-7, 32)"><circle cx="8" cy="8" r="4" stroke="none" fill="red" fill-opacity="0.3"/></g><g pointer-events="all" display="none" transform="translate(-7, 52)"><circle cx="8" cy="8" r="4" stroke="none" fill="red" fill-opacity="0.3"/></g><g pointer-events="all" display="none" transform="translate(17, 71)"><circle cx="8" cy="8" r="4" stroke="none" fill="red" fill-opacity="0.3"/></g><g pointer-events="all" display="none" transform="translate(42, 71)"><circle cx="8" cy="8" r="4" stroke="none" fill="red" fill-opacity="0.3"/></g><g pointer-events="all" display="none" transform="translate(67, 71)"><circle cx="8" cy="8" r="4" stroke="none" fill="red" fill-opacity="0.3"/></g><g pointer-events="all" display="none" transform="translate(91, 12)"><circle cx="8" cy="8" r="4" stroke="none" fill="red" fill-opacity="0.3"/></g><g pointer-events="all" display="none" transform="translate(91, 32)"><circle cx="8" cy="8" r="4" stroke="none" fill="red" fill-opacity="0.3"/></g><g pointer-events="all" display="none" transform="translate(91, 52)"><circle cx="8" cy="8" r="4" stroke="none" fill="red" fill-opacity="0.3"/></g><g pointer-events="all" display="none" transform="translate(17, -7)"><circle cx="8" cy="8" r="4" stroke="none" fill="red" fill-opacity="0.3"/></g><g pointer-events="all" display="none" transform="translate(42, -7)"><circle cx="8" cy="8" r="4" stroke="none" fill="red" fill-opacity="0.3"/></g><g pointer-events="all" display="none" transform="translate(67, -7)"><circle cx="8" cy="8" r="4" stroke="none" fill="red" fill-opacity="0.3"/></g><g pointer-events="all" display="none" transform="translate(42, 32)"><circle cx="8" cy="8" r="4" stroke="none" fill="red" fill-opacity="0.3"/></g></g></g></g><g id="_8C8AC791-35D3-4414-BB47-DC0487073576" bpmn2nodeid="_1EA3600A-796C-4BB1-86E0-915109C64219"><g class="stencils" transform="translate(340, 140)"><g class="me"><g pointer-events="fill" oryx:minimumSize="50 40" id="_8C8AC791-35D3-4414-BB47-DC0487073576">   	<defs id="_8C8AC791-35D3-4414-BB47-DC0487073576__8C8AC791-35D3-4414-BB47-DC0487073576_17"> 		<radialGradient id="_8C8AC791-35D3-4414-BB47-DC0487073576background" cx="10%" cy="10%" r="100%" fx="10%" fy="10%"> 			<stop offset="0%" stop-color="#ffffff" stop-opacity="1" id="_8C8AC791-35D3-4414-BB47-DC0487073576__8C8AC791-35D3-4414-BB47-DC0487073576_18"/> 			<stop id="_8C8AC791-35D3-4414-BB47-DC0487073576fill_el" offset="100%" stop-color="#fafad2" stop-opacity="1"/> 		</radialGradient> 		<radialGradient id="_8C8AC791-35D3-4414-BB47-DC0487073576borderbackground" cx="10%" cy="10%" r="100%" fx="10%" fy="10%"> 			<stop offset="0%" stop-color="#ffffff" stop-opacity="1" id="_8C8AC791-35D3-4414-BB47-DC0487073576__8C8AC791-35D3-4414-BB47-DC0487073576_19"/> 			<stop id="_8C8AC791-35D3-4414-BB47-DC0487073576fill_border" offset="100%" stop-color="#000000" stop-opacity="1" stroke="#000000"/> 		</radialGradient> 	</defs> 	 	<rect id="_8C8AC791-35D3-4414-BB47-DC0487073576text_frame" oryx:anchors="bottom top right left" x="1" y="1" width="94" height="79" rx="10" ry="10" stroke="none" stroke-width="0" fill="none"/> 	<rect id="_8C8AC791-35D3-4414-BB47-DC0487073576bg_frame" oryx:resize="vertical horizontal" x="0" y="0" width="100" height="80" rx="10" ry="10" stroke="#000000" stroke-width="1" fill="url(#_8C8AC791-35D3-4414-BB47-DC0487073576background) #ffffcc"/> 		<text font-size="12" id="_8C8AC791-35D3-4414-BB47-DC0487073576text_name" x="50" y="40" oryx:align="middle center" oryx:fittoelem="text_frame" stroke="black" text-anchor="middle" stroke-width="0pt" letter-spacing="-0.01px" fill="#000000" transform="rotate(0 50 40)" visibility="inherit" oryx:fontSize="12"><tspan x="50" y="40" dy="5" id="ext-gen606">task2</tspan></text>     <g id="_8C8AC791-35D3-4414-BB47-DC0487073576manualTask" transform="scale(0.7,0.7) translate(8,8)" display="none">     	<path oryx:anchors="top left" id="_8C8AC791-35D3-4414-BB47-DC0487073576frame" style="opacity:1;fill:none;fill-opacity:1;stroke-width:1" d="M0.5,3.751l4.083-3.25c0,0,11.166,0.083,12.083,0.083s-2.417,2.917-1.5,2.917     s11.667,0,12.584,0c1.166,1.708-0.168,3.167-0.834,3.667s0.875,1.917-1,4.417c-0.75,0.25,0.75,1.875-1.333,3.333     c-1.167,0.583,0.583,1.542-1.25,2.833c-1.167,0-20.833,0.083-20.833,0.083l-2-1.333V3.751z" stroke="#000000"/> 		<path id="_8C8AC791-35D3-4414-BB47-DC0487073576frame2" oryx:anchors="top left" style="opacity:1;fill:none;stroke-width:2" d="M 13.5 7 L 27 7" stroke="#000000"/> 		<path id="_8C8AC791-35D3-4414-BB47-DC0487073576frame3" oryx:anchors="top left" style="opacity:1;fill:none;stroke-width:2" d="M 13.5 11 L 26 11" stroke="#000000"/> 		<path id="_8C8AC791-35D3-4414-BB47-DC0487073576frame4" oryx:anchors="top left" style="opacity:1;fill:none;stroke-width:1.5" d="M 14 14.5 L 25 14.5" stroke="#000000"/> 		<path id="_8C8AC791-35D3-4414-BB47-DC0487073576frame5" oryx:anchors="top left" style="opacity:1;fill:none;stroke-width:1.5" d="M 8.2 3.1 L 15 3.1" stroke="#000000"/> 	</g> 	 	<g id="_8C8AC791-35D3-4414-BB47-DC0487073576businessRuleTask" transform="scale(0.7,0.7) translate(8,8)" display="none"> 		<rect id="_8C8AC791-35D3-4414-BB47-DC0487073576frame6" oryx:anchors="top left" x="0" y="0" width="22" height="4" style="opacity:1;fill:#B3B1B3;fill-opacity:1;" stroke="#000000"/> 		<rect id="_8C8AC791-35D3-4414-BB47-DC0487073576frame7" oryx:anchors="top left" x="0" y="4" style="opacity:1;fill:none;" width="22" height="12" stroke="#000000"/> 		<path id="_8C8AC791-35D3-4414-BB47-DC0487073576frame8" oryx:anchors="top left" style="opacity:1;fill:none;" d="M 0 10 L 22 10" stroke="#000000"/> 		<path id="_8C8AC791-35D3-4414-BB47-DC0487073576frame9" oryx:anchors="top left" style="opacity:1; fill:none;" d="M 7 4 L 7 16" stroke="#000000"/> 	</g> 	 	<g id="_8C8AC791-35D3-4414-BB47-DC0487073576scriptTask" transform="scale(0.7,0.7) translate(8,8)" display="inherit"> 		<path oryx:anchors="top left" id="_8C8AC791-35D3-4414-BB47-DC0487073576frame10" style="opacity:1;fill:none;" stroke="#000000" d="M6.402,0.5h14.5c0,0-5.833,2.833-5.833,5.583s4.417,6,4.417,9.167    s-4.167,5.083-4.167,5.083H0.235c0,0,5-2.667,5-5s-4.583-6.75-4.583-9.25S6.402,0.5,6.402,0.5z"/> 		<path oryx:anchors="top left" id="_8C8AC791-35D3-4414-BB47-DC0487073576frame11" style="opacity:1;fill:none;stroke-width:1.5" d="M 3.5 4.5 L 13.5 4.5" stroke="#000000"/> 		<path oryx:anchors="top left" id="_8C8AC791-35D3-4414-BB47-DC0487073576frame12" style="opacity:1;fill:none;stroke-width:1.5" d="M 3.8 8.5 L 13.8 8.5" stroke="#000000"/> 		<path oryx:anchors="top left" id="_8C8AC791-35D3-4414-BB47-DC0487073576frame13" style="opacity:1;fill:none;stroke-width:1.5" d="M 6.3 12.5 L 16.3 12.5" stroke="#000000"/> 		<path oryx:anchors="top left" id="_8C8AC791-35D3-4414-BB47-DC0487073576frame14" style="opacity:1;fill:none;stroke-width:1.5" d="M 6.5 16.5 L 16.5 16.5" stroke="#000000"/> 	</g> 	 	<g id="_8C8AC791-35D3-4414-BB47-DC0487073576userTask" transform="scale(0.7,0.7) translate(8,8)" display="none"> 		<path id="_8C8AC791-35D3-4414-BB47-DC0487073576frame15" oryx:anchors="top left" style="opacity:1;fill:#F4F6F7" stroke="#000000" d="M0.585,24.167h24.083v-7.833c0,0-2.333-3.917-7.083-5.167h-9.25    c-4.417,1.333-7.833,5.75-7.833,5.75L0.585,24.167z"/> 		<path id="_8C8AC791-35D3-4414-BB47-DC0487073576frame16" oryx:anchors="top left" style="opacity:1;fill:none" d="M 6 20 L 6 24" stroke="#000000"/> 		<path id="_8C8AC791-35D3-4414-BB47-DC0487073576frame17" oryx:anchors="top left" style="opacity:1;fill:none" d="M 20 20 L 20 24" stroke="#000000"/> 		<circle id="_8C8AC791-35D3-4414-BB47-DC0487073576frame18" oryx:anchors="top left" fill="black" cx="13.002" cy="5.916" r="5.417" stroke="#000000"/> 		<path id="_8C8AC791-35D3-4414-BB47-DC0487073576frame19" oryx:anchors="top left" style="opacity:1;fill:#F0EFF0;" stroke="#000000" d="M8.043,7.083c0,0,2.814-2.426,5.376-1.807s4.624-0.693,4.624-0.693    c0.25,1.688,0.042,3.75-1.458,5.584c0,0,1.083,0.75,1.083,1.5s0.125,1.875-1,3s-5.5,1.25-6.75,0S8.668,12.834,8.668,12    s0.583-1.25,1.25-1.917C8.835,9.5,7.419,7.708,8.043,7.083z"/> 	</g> 	 	<g id="_8C8AC791-35D3-4414-BB47-DC0487073576serviceTask" transform="scale(0.7,0.7) translate(8,8)" display="none"> 		<polygon oryx:anchors="top left" id="_8C8AC791-35D3-4414-BB47-DC0487073576frame20" style="opacity:1;fill:#ffffff" stroke="#000000" points="15.392,5.064 17.954,2.502 20.347,4.895 17.786,7.455     18.729,9.732 22.353,9.732 22.353,13.115 18.731,13.115 17.788,15.392 20.351,17.955 17.958,20.347 15.397,17.786 13.12,18.729     13.12,22.353 9.737,22.353 9.737,18.731 7.46,17.788 4.897,20.35 2.506,17.958 5.066,15.397 4.124,13.12 0.5,13.12 0.5,9.737     4.121,9.737 5.065,7.461 2.503,4.898 4.895,2.506 7.455,5.066 9.732,4.125 9.732,0.5 13.116,0.5 13.116,4.121 "/> 		<circle oryx:anchors="top left" id="_8C8AC791-35D3-4414-BB47-DC0487073576frame21" style="opacity:1;fill:none" stroke="#000000" cx="11.427" cy="11.426" r="3.714"/> 		<polygon oryx:anchors="top left" id="_8C8AC791-35D3-4414-BB47-DC0487073576frame22" style="opacity:1;fill:#ffffff" stroke="#000000" points="21.392,11.064 23.954,8.502 26.347,10.895 23.786,13.455     24.729,15.732 28.353,15.732 28.353,19.115 24.731,19.115 23.788,21.392 26.351,23.955 23.958,26.347 21.397,23.786 19.12,24.729     19.12,28.353 15.737,28.353 15.737,24.731 13.46,23.788 10.897,26.35 8.506,23.958 11.066,21.397 10.124,19.12 6.5,19.12     6.5,15.737 10.121,15.737 11.065,13.461 8.503,10.898 10.895,8.506 13.455,11.066 15.732,10.125 15.732,6.5 19.116,6.5     19.116,10.121 "/> 		<circle oryx:anchors="top left" id="_8C8AC791-35D3-4414-BB47-DC0487073576frame23" style="opacity:1;fill:none;" stroke="#000000" cx="17.427" cy="17.426" r="3.714"/> 	</g> 	 	<g id="_8C8AC791-35D3-4414-BB47-DC0487073576sendTask" display="none"> 		<path id="_8C8AC791-35D3-4414-BB47-DC0487073576stframe24" oryx:anchors="left top" stroke="#FFFFFF" fill="black" stroke-width="1" d="M8,11 L8,21 L24,21 L24,11 L16,17z"/> 		<path id="_8C8AC791-35D3-4414-BB47-DC0487073576stframe25" oryx:anchors="left top" stroke="#FFFFFF" fill="black" stroke-width="1" d="M7,10 L16,17 L25 10z"/> 	</g> 	 	<g id="_8C8AC791-35D3-4414-BB47-DC0487073576receiveTask" display="none"> 		<path id="_8C8AC791-35D3-4414-BB47-DC0487073576frame26" oryx:anchors="left top" stroke="#000000" fill="none" stroke-width="1" d="M8,11 L8,21 L24,21 L24,11z M8,11 L16,17 L24,11"/> 	</g> 	 	<g id="_8C8AC791-35D3-4414-BB47-DC0487073576none" display="inherit"/>  	<g id="_8C8AC791-35D3-4414-BB47-DC0487073576sequential" display="none">         <path oryx:anchors="bottom" fill="none" stroke="#000000" stroke-width="2" d="M46,76h10M46,72h10 M46,68h10" id="_8C8AC791-35D3-4414-BB47-DC0487073576__8C8AC791-35D3-4414-BB47-DC0487073576_20"/>     </g>   </g></g><g class="children" style="overflow:hidden"/><g class="edge"/></g><g class="controls"><g class="dockers"/><g class="magnets" transform="translate(340, 140)"><g pointer-events="all" display="none" transform="translate(-7, 12)"><circle cx="8" cy="8" r="4" stroke="none" fill="red" fill-opacity="0.3"/></g><g pointer-events="all" display="none" transform="translate(-7, 32)"><circle cx="8" cy="8" r="4" stroke="none" fill="red" fill-opacity="0.3"/></g><g pointer-events="all" display="none" transform="translate(-7, 52)"><circle cx="8" cy="8" r="4" stroke="none" fill="red" fill-opacity="0.3"/></g><g pointer-events="all" display="none" transform="translate(17, 71)"><circle cx="8" cy="8" r="4" stroke="none" fill="red" fill-opacity="0.3"/></g><g pointer-events="all" display="none" transform="translate(42, 71)"><circle cx="8" cy="8" r="4" stroke="none" fill="red" fill-opacity="0.3"/></g><g pointer-events="all" display="none" transform="translate(67, 71)"><circle cx="8" cy="8" r="4" stroke="none" fill="red" fill-opacity="0.3"/></g><g pointer-events="all" display="none" transform="translate(91, 12)"><circle cx="8" cy="8" r="4" stroke="none" fill="red" fill-opacity="0.3"/></g><g pointer-events="all" display="none" transform="translate(91, 32)"><circle cx="8" cy="8" r="4" stroke="none" fill="red" fill-opacity="0.3"/></g><g pointer-events="all" display="none" transform="translate(91, 52)"><circle cx="8" cy="8" r="4" stroke="none" fill="red" fill-opacity="0.3"/></g><g pointer-events="all" display="none" transform="translate(17, -7)"><circle cx="8" cy="8" r="4" stroke="none" fill="red" fill-opacity="0.3"/></g><g pointer-events="all" display="none" transform="translate(42, -7)"><circle cx="8" cy="8" r="4" stroke="none" fill="red" fill-opacity="0.3"/></g><g pointer-events="all" display="none" transform="translate(67, -7)"><circle cx="8" cy="8" r="4" stroke="none" fill="red" fill-opacity="0.3"/></g><g pointer-events="all" display="none" transform="translate(42, 32)"><circle cx="8" cy="8" r="4" stroke="none" fill="red" fill-opacity="0.3"/></g></g></g></g><g id="_B6E892E8-B7BF-4B72-9BCE-7619EFE17055" bpmn2nodeid="_AC9F5D4F-DECF-4E94-A2A8-4795D4C25DFF"><g class="stencils" transform="translate(472, 140)"><g class="me"><g pointer-events="fill" oryx:minimumSize="50 40" id="_B6E892E8-B7BF-4B72-9BCE-7619EFE17055">   	<defs id="_B6E892E8-B7BF-4B72-9BCE-7619EFE17055__B6E892E8-B7BF-4B72-9BCE-7619EFE17055_17"> 		<radialGradient id="_B6E892E8-B7BF-4B72-9BCE-7619EFE17055background" cx="10%" cy="10%" r="100%" fx="10%" fy="10%"> 			<stop offset="0%" stop-color="#ffffff" stop-opacity="1" id="_B6E892E8-B7BF-4B72-9BCE-7619EFE17055__B6E892E8-B7BF-4B72-9BCE-7619EFE17055_18"/> 			<stop id="_B6E892E8-B7BF-4B72-9BCE-7619EFE17055fill_el" offset="100%" stop-color="#fafad2" stop-opacity="1"/> 		</radialGradient> 		<radialGradient id="_B6E892E8-B7BF-4B72-9BCE-7619EFE17055borderbackground" cx="10%" cy="10%" r="100%" fx="10%" fy="10%"> 			<stop offset="0%" stop-color="#ffffff" stop-opacity="1" id="_B6E892E8-B7BF-4B72-9BCE-7619EFE17055__B6E892E8-B7BF-4B72-9BCE-7619EFE17055_19"/> 			<stop id="_B6E892E8-B7BF-4B72-9BCE-7619EFE17055fill_border" offset="100%" stop-color="#000000" stop-opacity="1" stroke="#000000"/> 		</radialGradient> 	</defs> 	 	<rect id="_B6E892E8-B7BF-4B72-9BCE-7619EFE17055text_frame" oryx:anchors="bottom top right left" x="1" y="1" width="94" height="79" rx="10" ry="10" stroke="none" stroke-width="0" fill="none"/> 	<rect id="_B6E892E8-B7BF-4B72-9BCE-7619EFE17055bg_frame" oryx:resize="vertical horizontal" x="0" y="0" width="100" height="80" rx="10" ry="10" stroke="#000000" stroke-width="1" fill="url(#_B6E892E8-B7BF-4B72-9BCE-7619EFE17055background) #ffffcc"/> 		<text font-size="12" id="_B6E892E8-B7BF-4B72-9BCE-7619EFE17055text_name" x="50" y="40" oryx:align="middle center" oryx:fittoelem="text_frame" stroke="black" text-anchor="middle" stroke-width="0pt" letter-spacing="-0.01px" fill="#000000" transform="rotate(0 50 40)" visibility="inherit" oryx:fontSize="12"><tspan x="50" y="40" dy="5">task3</tspan></text>     <g id="_B6E892E8-B7BF-4B72-9BCE-7619EFE17055manualTask" transform="scale(0.7,0.7) translate(8,8)" display="none">     	<path oryx:anchors="top left" id="_B6E892E8-B7BF-4B72-9BCE-7619EFE17055frame" style="opacity:1;fill:none;fill-opacity:1;stroke-width:1" d="M0.5,3.751l4.083-3.25c0,0,11.166,0.083,12.083,0.083s-2.417,2.917-1.5,2.917     s11.667,0,12.584,0c1.166,1.708-0.168,3.167-0.834,3.667s0.875,1.917-1,4.417c-0.75,0.25,0.75,1.875-1.333,3.333     c-1.167,0.583,0.583,1.542-1.25,2.833c-1.167,0-20.833,0.083-20.833,0.083l-2-1.333V3.751z" stroke="#000000"/> 		<path id="_B6E892E8-B7BF-4B72-9BCE-7619EFE17055frame2" oryx:anchors="top left" style="opacity:1;fill:none;stroke-width:2" d="M 13.5 7 L 27 7" stroke="#000000"/> 		<path id="_B6E892E8-B7BF-4B72-9BCE-7619EFE17055frame3" oryx:anchors="top left" style="opacity:1;fill:none;stroke-width:2" d="M 13.5 11 L 26 11" stroke="#000000"/> 		<path id="_B6E892E8-B7BF-4B72-9BCE-7619EFE17055frame4" oryx:anchors="top left" style="opacity:1;fill:none;stroke-width:1.5" d="M 14 14.5 L 25 14.5" stroke="#000000"/> 		<path id="_B6E892E8-B7BF-4B72-9BCE-7619EFE17055frame5" oryx:anchors="top left" style="opacity:1;fill:none;stroke-width:1.5" d="M 8.2 3.1 L 15 3.1" stroke="#000000"/> 	</g> 	 	<g id="_B6E892E8-B7BF-4B72-9BCE-7619EFE17055businessRuleTask" transform="scale(0.7,0.7) translate(8,8)" display="none"> 		<rect id="_B6E892E8-B7BF-4B72-9BCE-7619EFE17055frame6" oryx:anchors="top left" x="0" y="0" width="22" height="4" style="opacity:1;fill:#B3B1B3;fill-opacity:1;" stroke="#000000"/> 		<rect id="_B6E892E8-B7BF-4B72-9BCE-7619EFE17055frame7" oryx:anchors="top left" x="0" y="4" style="opacity:1;fill:none;" width="22" height="12" stroke="#000000"/> 		<path id="_B6E892E8-B7BF-4B72-9BCE-7619EFE17055frame8" oryx:anchors="top left" style="opacity:1;fill:none;" d="M 0 10 L 22 10" stroke="#000000"/> 		<path id="_B6E892E8-B7BF-4B72-9BCE-7619EFE17055frame9" oryx:anchors="top left" style="opacity:1; fill:none;" d="M 7 4 L 7 16" stroke="#000000"/> 	</g> 	 	<g id="_B6E892E8-B7BF-4B72-9BCE-7619EFE17055scriptTask" transform="scale(0.7,0.7) translate(8,8)" display="inherit"> 		<path oryx:anchors="top left" id="_B6E892E8-B7BF-4B72-9BCE-7619EFE17055frame10" style="opacity:1;fill:none;" stroke="#000000" d="M6.402,0.5h14.5c0,0-5.833,2.833-5.833,5.583s4.417,6,4.417,9.167    s-4.167,5.083-4.167,5.083H0.235c0,0,5-2.667,5-5s-4.583-6.75-4.583-9.25S6.402,0.5,6.402,0.5z"/> 		<path oryx:anchors="top left" id="_B6E892E8-B7BF-4B72-9BCE-7619EFE17055frame11" style="opacity:1;fill:none;stroke-width:1.5" d="M 3.5 4.5 L 13.5 4.5" stroke="#000000"/> 		<path oryx:anchors="top left" id="_B6E892E8-B7BF-4B72-9BCE-7619EFE17055frame12" style="opacity:1;fill:none;stroke-width:1.5" d="M 3.8 8.5 L 13.8 8.5" stroke="#000000"/> 		<path oryx:anchors="top left" id="_B6E892E8-B7BF-4B72-9BCE-7619EFE17055frame13" style="opacity:1;fill:none;stroke-width:1.5" d="M 6.3 12.5 L 16.3 12.5" stroke="#000000"/> 		<path oryx:anchors="top left" id="_B6E892E8-B7BF-4B72-9BCE-7619EFE17055frame14" style="opacity:1;fill:none;stroke-width:1.5" d="M 6.5 16.5 L 16.5 16.5" stroke="#000000"/> 	</g> 	 	<g id="_B6E892E8-B7BF-4B72-9BCE-7619EFE17055userTask" transform="scale(0.7,0.7) translate(8,8)" display="none"> 		<path id="_B6E892E8-B7BF-4B72-9BCE-7619EFE17055frame15" oryx:anchors="top left" style="opacity:1;fill:#F4F6F7" stroke="#000000" d="M0.585,24.167h24.083v-7.833c0,0-2.333-3.917-7.083-5.167h-9.25    c-4.417,1.333-7.833,5.75-7.833,5.75L0.585,24.167z"/> 		<path id="_B6E892E8-B7BF-4B72-9BCE-7619EFE17055frame16" oryx:anchors="top left" style="opacity:1;fill:none" d="M 6 20 L 6 24" stroke="#000000"/> 		<path id="_B6E892E8-B7BF-4B72-9BCE-7619EFE17055frame17" oryx:anchors="top left" style="opacity:1;fill:none" d="M 20 20 L 20 24" stroke="#000000"/> 		<circle id="_B6E892E8-B7BF-4B72-9BCE-7619EFE17055frame18" oryx:anchors="top left" fill="black" cx="13.002" cy="5.916" r="5.417" stroke="#000000"/> 		<path id="_B6E892E8-B7BF-4B72-9BCE-7619EFE17055frame19" oryx:anchors="top left" style="opacity:1;fill:#F0EFF0;" stroke="#000000" d="M8.043,7.083c0,0,2.814-2.426,5.376-1.807s4.624-0.693,4.624-0.693    c0.25,1.688,0.042,3.75-1.458,5.584c0,0,1.083,0.75,1.083,1.5s0.125,1.875-1,3s-5.5,1.25-6.75,0S8.668,12.834,8.668,12    s0.583-1.25,1.25-1.917C8.835,9.5,7.419,7.708,8.043,7.083z"/> 	</g> 	 	<g id="_B6E892E8-B7BF-4B72-9BCE-7619EFE17055serviceTask" transform="scale(0.7,0.7) translate(8,8)" display="none"> 		<polygon oryx:anchors="top left" id="_B6E892E8-B7BF-4B72-9BCE-7619EFE17055frame20" style="opacity:1;fill:#ffffff" stroke="#000000" points="15.392,5.064 17.954,2.502 20.347,4.895 17.786,7.455     18.729,9.732 22.353,9.732 22.353,13.115 18.731,13.115 17.788,15.392 20.351,17.955 17.958,20.347 15.397,17.786 13.12,18.729     13.12,22.353 9.737,22.353 9.737,18.731 7.46,17.788 4.897,20.35 2.506,17.958 5.066,15.397 4.124,13.12 0.5,13.12 0.5,9.737     4.121,9.737 5.065,7.461 2.503,4.898 4.895,2.506 7.455,5.066 9.732,4.125 9.732,0.5 13.116,0.5 13.116,4.121 "/> 		<circle oryx:anchors="top left" id="_B6E892E8-B7BF-4B72-9BCE-7619EFE17055frame21" style="opacity:1;fill:none" stroke="#000000" cx="11.427" cy="11.426" r="3.714"/> 		<polygon oryx:anchors="top left" id="_B6E892E8-B7BF-4B72-9BCE-7619EFE17055frame22" style="opacity:1;fill:#ffffff" stroke="#000000" points="21.392,11.064 23.954,8.502 26.347,10.895 23.786,13.455     24.729,15.732 28.353,15.732 28.353,19.115 24.731,19.115 23.788,21.392 26.351,23.955 23.958,26.347 21.397,23.786 19.12,24.729     19.12,28.353 15.737,28.353 15.737,24.731 13.46,23.788 10.897,26.35 8.506,23.958 11.066,21.397 10.124,19.12 6.5,19.12     6.5,15.737 10.121,15.737 11.065,13.461 8.503,10.898 10.895,8.506 13.455,11.066 15.732,10.125 15.732,6.5 19.116,6.5     19.116,10.121 "/> 		<circle oryx:anchors="top left" id="_B6E892E8-B7BF-4B72-9BCE-7619EFE17055frame23" style="opacity:1;fill:none;" stroke="#000000" cx="17.427" cy="17.426" r="3.714"/> 	</g> 	 	<g id="_B6E892E8-B7BF-4B72-9BCE-7619EFE17055sendTask" display="none"> 		<path id="_B6E892E8-B7BF-4B72-9BCE-7619EFE17055stframe24" oryx:anchors="left top" stroke="#FFFFFF" fill="black" stroke-width="1" d="M8,11 L8,21 L24,21 L24,11 L16,17z"/> 		<path id="_B6E892E8-B7BF-4B72-9BCE-7619EFE17055stframe25" oryx:anchors="left top" stroke="#FFFFFF" fill="black" stroke-width="1" d="M7,10 L16,17 L25 10z"/> 	</g> 	 	<g id="_B6E892E8-B7BF-4B72-9BCE-7619EFE17055receiveTask" display="none"> 		<path id="_B6E892E8-B7BF-4B72-9BCE-7619EFE17055frame26" oryx:anchors="left top" stroke="#000000" fill="none" stroke-width="1" d="M8,11 L8,21 L24,21 L24,11z M8,11 L16,17 L24,11"/> 	</g> 	 	<g id="_B6E892E8-B7BF-4B72-9BCE-7619EFE17055none" display="none"/>  	<g id="_B6E892E8-B7BF-4B72-9BCE-7619EFE17055sequential" display="none">         <path oryx:anchors="bottom" fill="none" stroke="#000000" stroke-width="2" d="M46,76h10M46,72h10 M46,68h10" id="_B6E892E8-B7BF-4B72-9BCE-7619EFE17055__B6E892E8-B7BF-4B72-9BCE-7619EFE17055_20"/>     </g>   </g></g><g class="children" style="overflow:hidden"/><g class="edge"/></g><g class="controls"><g class="dockers"/><g class="magnets" transform="translate(472, 140)"><g pointer-events="all" display="none" transform="translate(-7, 12)"><circle cx="8" cy="8" r="4" stroke="none" fill="red" fill-opacity="0.3"/></g><g pointer-events="all" display="none" transform="translate(-7, 32)"><circle cx="8" cy="8" r="4" stroke="none" fill="red" fill-opacity="0.3"/></g><g pointer-events="all" display="none" transform="translate(-7, 52)"><circle cx="8" cy="8" r="4" stroke="none" fill="red" fill-opacity="0.3"/></g><g pointer-events="all" display="none" transform="translate(17, 71)"><circle cx="8" cy="8" r="4" stroke="none" fill="red" fill-opacity="0.3"/></g><g pointer-events="all" display="none" transform="translate(42, 71)"><circle cx="8" cy="8" r="4" stroke="none" fill="red" fill-opacity="0.3"/></g><g pointer-events="all" display="none" transform="translate(67, 71)"><circle cx="8" cy="8" r="4" stroke="none" fill="red" fill-opacity="0.3"/></g><g pointer-events="all" display="none" transform="translate(91, 12)"><circle cx="8" cy="8" r="4" stroke="none" fill="red" fill-opacity="0.3"/></g><g pointer-events="all" display="none" transform="translate(91, 32)"><circle cx="8" cy="8" r="4" stroke="none" fill="red" fill-opacity="0.3"/></g><g pointer-events="all" display="none" transform="translate(91, 52)"><circle cx="8" cy="8" r="4" stroke="none" fill="red" fill-opacity="0.3"/></g><g pointer-events="all" display="none" transform="translate(17, -7)"><circle cx="8" cy="8" r="4" stroke="none" fill="red" fill-opacity="0.3"/></g><g pointer-events="all" display="none" transform="translate(42, -7)"><circle cx="8" cy="8" r="4" stroke="none" fill="red" fill-opacity="0.3"/></g><g pointer-events="all" display="none" transform="translate(67, -7)"><circle cx="8" cy="8" r="4" stroke="none" fill="red" fill-opacity="0.3"/></g><g pointer-events="all" display="none" transform="translate(42, 32)"><circle cx="8" cy="8" r="4" stroke="none" fill="red" fill-opacity="0.3"/></g></g></g></g><g id="_009E21E5-E8C8-4F23-AC08-6AB3D447FC96" bpmn2nodeid="_A4196B24-2822-4FF5-8F6B-CF3DD6D5843C"><g class="stencils" transform="translate(617, 166)"><g class="me"><g pointer-events="fill" id="_009E21E5-E8C8-4F23-AC08-6AB3D447FC96">      <defs id="_009E21E5-E8C8-4F23-AC08-6AB3D447FC96__009E21E5-E8C8-4F23-AC08-6AB3D447FC96_5"> 		<radialGradient id="_009E21E5-E8C8-4F23-AC08-6AB3D447FC96background" cx="10%" cy="10%" r="100%" fx="10%" fy="10%"> 			<stop offset="0%" stop-color="#ffffff" stop-opacity="1" id="_009E21E5-E8C8-4F23-AC08-6AB3D447FC96__009E21E5-E8C8-4F23-AC08-6AB3D447FC96_6"/> 			<stop id="_009E21E5-E8C8-4F23-AC08-6AB3D447FC96fill_el" offset="100%" stop-color="#ff6347" stop-opacity="1"/> 		</radialGradient> 	</defs> 	     <circle id="_009E21E5-E8C8-4F23-AC08-6AB3D447FC96bg_frame" cx="14" cy="14" r="14" stroke="#000000" fill="url(#_009E21E5-E8C8-4F23-AC08-6AB3D447FC96background) white" stroke-width="3"/> 	<text font-size="11" id="_009E21E5-E8C8-4F23-AC08-6AB3D447FC96text_name" x="14" y="30" oryx:align="top center" stroke="black" stroke-width="0pt" letter-spacing="-0.01px" fill="#000000" text-anchor="middle" transform="rotate(0 14 30)" visibility="inherit" oryx:fontSize="11"/>   </g></g><g class="children" style="overflow:hidden"/><g class="edge"/></g><g class="controls"><g class="dockers"/><g class="magnets" transform="translate(617, 166)"><g pointer-events="all" display="none" transform="translate(6, 6)"><circle cx="8" cy="8" r="4" stroke="none" fill="red" fill-opacity="0.3"/></g></g></g></g></g><g class="edge"><g id="_B49912A7-2925-4B85-B478-0714DD03B421" bpmn2nodeid="_01542274-F839-4252-94C7-73C86AC41D0C"><g class="stencils"><g class="me"><g pointer-events="painted" bpmn2nodeid="_0C29F61E-8126-4AE5-A459-33AD93AD2E61"><path id="_B49912A7-2925-4B85-B478-0714DD03B421_1" d="M150.609375 180L194.15625 180 " stroke="#000000" fill="none" stroke-width="2" stroke-linecap="round" stroke-linejoin="round" marker-start="url(#_B49912A7-2925-4B85-B478-0714DD03B421start)" marker-end="url(#_B49912A7-2925-4B85-B478-0714DD03B421end)"/></g><text id="_B49912A7-2925-4B85-B478-0714DD03B421text_name" font-size="12" x="164.609375" y="166" oryx:edgePosition="startTop" stroke-width="0pt" letter-spacing="-0.01px" fill="#000000" text-anchor="start" transform="rotate(360 150.609375 180)" visibility="inherit" oryx:fontSize="12"/></g><g class="children" style="overflow:hidden"/><g class="edge"/></g><g class="controls"><g class="dockers"/><g class="magnets"/></g></g><g id="_20517C92-5B90-459C-9AE4-4AD6E1BE6EE0" bpmn2nodeid="_DDED8659-760C-474D-9811-0C22FA461AEF"><g class="stencils"><g class="me"><g pointer-events="painted" bpmn2nodeid="_E4415417-7FAD-4F7D-ADAE-1B8338E8BA24"><path id="_20517C92-5B90-459C-9AE4-4AD6E1BE6EE0_1" d="M295.84375 180L339.15625 180 " stroke="#000000" fill="none" stroke-width="2" stroke-linecap="round" stroke-linejoin="round" marker-start="url(#_20517C92-5B90-459C-9AE4-4AD6E1BE6EE0start)" marker-end="url(#_20517C92-5B90-459C-9AE4-4AD6E1BE6EE0end)"/></g><text id="_20517C92-5B90-459C-9AE4-4AD6E1BE6EE0text_name" font-size="12" x="309.84375" y="166" oryx:edgePosition="startTop" stroke-width="0pt" letter-spacing="-0.01px" fill="#000000" text-anchor="start" transform="rotate(360 295.84375 180)" visibility="inherit" oryx:fontSize="12"/></g><g class="children" style="overflow:hidden"/><g class="edge"/></g><g class="controls"><g class="dockers"/><g class="magnets"/></g></g><g id="_EBA5D7F6-A418-4448-9DCF-453E84E658A5" bpmn2nodeid="_5678D8A2-BB16-4C20-B137-328CCD1233C7"><g class="stencils"><g class="me"><g pointer-events="painted" bpmn2nodeid="_5678D8A2-BB16-4C20-B137-328CCD1233C7"><path id="_EBA5D7F6-A418-4448-9DCF-453E84E658A5_1" d="M440.5 180L471.5 180 " stroke="#000000" fill="none" stroke-width="2" stroke-linecap="round" stroke-linejoin="round" marker-start="url(#_EBA5D7F6-A418-4448-9DCF-453E84E658A5start)" marker-end="url(#_EBA5D7F6-A418-4448-9DCF-453E84E658A5end)"/></g><text id="_EBA5D7F6-A418-4448-9DCF-453E84E658A5text_name" font-size="12" x="454.5" y="166" oryx:edgePosition="startTop" stroke-width="0pt" letter-spacing="-0.01px" fill="#000000" text-anchor="start" transform="rotate(360 440.5 180)" visibility="inherit" oryx:fontSize="12"/></g><g class="children" style="overflow:hidden"/><g class="edge"/></g><g class="controls"><g class="dockers"/><g class="magnets"/></g></g><g id="_328A77CE-7243-41EC-83F3-B5DBB66A7C58" bpmn2nodeid="_BD7F7F77-911F-4AC8-A12B-FCD73FDB524A"><g class="stencils"><g class="me"><g pointer-events="painted" bpmn2nodeid="_BD7F7F77-911F-4AC8-A12B-FCD73FDB524A"><path id="_328A77CE-7243-41EC-83F3-B5DBB66A7C58_1" d="M572.390625 180L616.375 180 " stroke="#000000" fill="none" stroke-width="2" stroke-linecap="round" stroke-linejoin="round" marker-start="url(#_328A77CE-7243-41EC-83F3-B5DBB66A7C58start)" marker-end="url(#_328A77CE-7243-41EC-83F3-B5DBB66A7C58end)"/></g><text id="_328A77CE-7243-41EC-83F3-B5DBB66A7C58text_name" font-size="12" x="586.390625" y="166" oryx:edgePosition="startTop" stroke-width="0pt" letter-spacing="-0.01px" fill="#000000" text-anchor="start" transform="rotate(360 572.390625 180)" visibility="inherit" oryx:fontSize="12"/></g><g class="children" style="overflow:hidden"/><g class="edge"/></g><g class="controls"><g class="dockers"/><g class="magnets"/></g></g></g><text id="_246D2F3B-10F3-4F40-B662-B9DB855C70AE" style="stroke-width:1;fill:rgb(177,194,214);font-family:arial;font-weight:bold" font-size="12" onclick="ORYX.Plugins.CanvasTitle.openTextualAnalysis()" onmouseover="ORYX.Plugins.CanvasTitle.addToolTip('_246D2F3B-10F3-4F40-B662-B9DB855C70AE')" transform="translate(10, 20)">new v.1.0 (New.new)</text></g></g></svg>