<svg xmlns="http://www.w3.org/2000/svg" xmlns:oryx="http://oryx-editor.org" id="_F702F8E9-2205-4D6C-BF97-CA5406F7F5A6" width="686" height="265" xmlns:xlink="http://www.w3.org/1999/xlink" xmlns:svg="http://www.w3.org/2000/svg"><defs><marker id="_0CFF3766-6551-4F78-B0D4-5EDB31380685start" refX="1" refY="5" markerUnits="userSpaceOnUse" markerWidth="17" markerHeight="11" orient="auto" fill="#000000" stroke="#000000"> 	  		<path id="_0CFF3766-6551-4F78-B0D4-5EDB31380685conditional" d="M 0 5 L 8 0 L 16 5 L 8 10 L 0 5" fill="white" stroke="#000000" stroke-width="1" display="none"/> 			<path id="_0CFF3766-6551-4F78-B0D4-5EDB31380685default" d="M 5 0 L 11 10" fill="white" stroke="#000000" stroke-width="1" display="none"/> 	  	</marker><marker id="_0CFF3766-6551-4F78-B0D4-5EDB31380685end" refX="15" refY="6" markerUnits="userSpaceOnUse" markerWidth="15" markerHeight="12" orient="auto" fill="#000000" stroke="#000000"> 	  		<path id="_0CFF3766-6551-4F78-B0D4-5EDB31380685frame2" d="M 0 1 L 15 6 L 0 11z" fill="#000000" stroke="#000000" stroke-linejoin="round" stroke-width="2"/> 	  	</marker><marker id="_2E39F552-B74F-446A-9A0A-02FB51BAC5E0start" refX="1" refY="5" markerUnits="userSpaceOnUse" markerWidth="17" markerHeight="11" orient="auto" fill="#000000" stroke="#000000"> 	  		<path id="_2E39F552-B74F-446A-9A0A-02FB51BAC5E0conditional" d="M 0 5 L 8 0 L 16 5 L 8 10 L 0 5" fill="white" stroke="#000000" stroke-width="1" display="none"/> 			<path id="_2E39F552-B74F-446A-9A0A-02FB51BAC5E0default" d="M 5 0 L 11 10" fill="white" stroke="#000000" stroke-width="1" display="none"/> 	  	</marker><marker id="_2E39F552-B74F-446A-9A0A-02FB51BAC5E0end" refX="15" refY="6" markerUnits="userSpaceOnUse" markerWidth="15" markerHeight="12" orient="auto" fill="#000000" stroke="#000000"> 	  		<path id="_2E39F552-B74F-446A-9A0A-02FB51BAC5E0frame2" d="M 0 1 L 15 6 L 0 11z" fill="#000000" stroke="#000000" stroke-linejoin="round" stroke-width="2"/> 	  	</marker><marker id="_2DA137AE-F300-4C08-AB0B-2FB3D169D4B8start" refX="1" refY="5" markerUnits="userSpaceOnUse" markerWidth="17" markerHeight="11" orient="auto" fill="#000000" stroke="#000000"> 	  		<path id="_2DA137AE-F300-4C08-AB0B-2FB3D169D4B8conditional" d="M 0 5 L 8 0 L 16 5 L 8 10 L 0 5" fill="white" stroke="#000000" stroke-width="1" display="none"/> 			<path id="_2DA137AE-F300-4C08-AB0B-2FB3D169D4B8default" d="M 5 0 L 11 10" fill="white" stroke="#000000" stroke-width="1" display="none"/> 	  	</marker><marker id="_2DA137AE-F300-4C08-AB0B-2FB3D169D4B8end" refX="15" refY="6" markerUnits="userSpaceOnUse" markerWidth="15" markerHeight="12" orient="auto" fill="#000000" stroke="#000000"> 	  		<path id="_2DA137AE-F300-4C08-AB0B-2FB3D169D4B8frame2" d="M 0 1 L 15 6 L 0 11z" fill="#000000" stroke="#000000" stroke-linejoin="round" stroke-width="2"/> 	  	</marker><marker id="_98975BB2-46C8-458A-B448-E2EB0D90E38Dstart" refX="1" refY="5" markerUnits="userSpaceOnUse" markerWidth="17" markerHeight="11" orient="auto" fill="#000000" stroke="#000000"> 	  		<path id="_98975BB2-46C8-458A-B448-E2EB0D90E38Dconditional" d="M 0 5 L 8 0 L 16 5 L 8 10 L 0 5" fill="white" stroke="#000000" stroke-width="1" display="none"/> 			<path id="_98975BB2-46C8-458A-B448-E2EB0D90E38Ddefault" d="M 5 0 L 11 10" fill="white" stroke="#000000" stroke-width="1" display="none"/> 	  	</marker><marker id="_98975BB2-46C8-458A-B448-E2EB0D90E38Dend" refX="15" refY="6" markerUnits="userSpaceOnUse" markerWidth="15" markerHeight="12" orient="auto" fill="#000000" stroke="#000000"> 	  		<path id="_98975BB2-46C8-458A-B448-E2EB0D90E38Dframe2" d="M 0 1 L 15 6 L 0 11z" fill="#000000" stroke="#000000" stroke-linejoin="round" stroke-width="2"/> 	  	</marker></defs><g stroke="none" font-family="Verdana, sans-serif" font-size-adjust="none" font-style="normal" font-variant="normal" font-weight="normal" line-heigth="normal" font-size="12"><g class="stencils" transform="translate(16, 16)"><g class="me"/><g class="children"><g id="_939E5592-5F1B-4F7A-9FA3-9E26866CE2CA" bpmn2nodeid="processStartEvent"><g class="stencils" transform="translate(120, 165)"><g class="me"><g pointer-events="fill" id="_939E5592-5F1B-4F7A-9FA3-9E26866CE2CA">        <defs id="_939E5592-5F1B-4F7A-9FA3-9E26866CE2CA__939E5592-5F1B-4F7A-9FA3-9E26866CE2CA_5"> 		<radialGradient id="_939E5592-5F1B-4F7A-9FA3-9E26866CE2CAbackground" cx="10%" cy="10%" r="100%" fx="10%" fy="10%"> 			<stop offset="0%" stop-color="#ffffff" stop-opacity="1" id="_939E5592-5F1B-4F7A-9FA3-9E26866CE2CA__939E5592-5F1B-4F7A-9FA3-9E26866CE2CA_6"/> 			<stop id="_939E5592-5F1B-4F7A-9FA3-9E26866CE2CAfill_el" offset="100%" stop-color="#9acd32" stop-opacity="1"/> 		</radialGradient> 	</defs> 	     <circle id="_939E5592-5F1B-4F7A-9FA3-9E26866CE2CAbg_frame" cx="15" cy="15" r="15" stroke="#000000" fill="url(#_939E5592-5F1B-4F7A-9FA3-9E26866CE2CAbackground) white" stroke-width="1" style="stroke-dasharray: 5.5, 3"/>      <circle id="_939E5592-5F1B-4F7A-9FA3-9E26866CE2CAframe" cx="15" cy="15" r="15" stroke="#000000" fill="none" stroke-width="1" display="inherit"/>  	<text font-size="11" id="_939E5592-5F1B-4F7A-9FA3-9E26866CE2CAtext_name" x="15" y="32" oryx:align="top center" stroke="black" stroke-width="0pt" letter-spacing="-0.01px" fill="#000000" text-anchor="middle" transform="rotate(0 15 32)" visibility="inherit" oryx:fontSize="11"/>   </g></g><g class="children" style="overflow:hidden"/><g class="edge"/></g><g class="controls"><g class="dockers"/><g class="magnets" transform="translate(120, 165)"><g pointer-events="all" display="none" transform="translate(7, 7)"><circle cx="8" cy="8" r="4" stroke="none" fill="red" fill-opacity="0.3"/></g></g></g></g><g id="_E4B2FC67-110C-419E-8886-7F39330DF38F" bpmn2nodeid="_A50D67F8-8734-487C-8F93-637ADE1EB76C"><g class="stencils" transform="translate(195, 140)"><g class="me"><g pointer-events="fill" oryx:minimumSize="50 40" id="_E4B2FC67-110C-419E-8886-7F39330DF38F">   	<defs id="_E4B2FC67-110C-419E-8886-7F39330DF38F__E4B2FC67-110C-419E-8886-7F39330DF38F_17"> 		<radialGradient id="_E4B2FC67-110C-419E-8886-7F39330DF38Fbackground" cx="10%" cy="10%" r="100%" fx="10%" fy="10%"> 			<stop offset="0%" stop-color="#ffffff" stop-opacity="1" id="_E4B2FC67-110C-419E-8886-7F39330DF38F__E4B2FC67-110C-419E-8886-7F39330DF38F_18"/> 			<stop id="_E4B2FC67-110C-419E-8886-7F39330DF38Ffill_el" offset="100%" stop-color="#fafad2" stop-opacity="1"/> 		</radialGradient> 		<radialGradient id="_E4B2FC67-110C-419E-8886-7F39330DF38Fborderbackground" cx="10%" cy="10%" r="100%" fx="10%" fy="10%"> 			<stop offset="0%" stop-color="#ffffff" stop-opacity="1" id="_E4B2FC67-110C-419E-8886-7F39330DF38F__E4B2FC67-110C-419E-8886-7F39330DF38F_19"/> 			<stop id="_E4B2FC67-110C-419E-8886-7F39330DF38Ffill_border" offset="100%" stop-color="#000000" stop-opacity="1" stroke="#000000"/> 		</radialGradient> 	</defs> 	 	<rect id="_E4B2FC67-110C-419E-8886-7F39330DF38Ftext_frame" oryx:anchors="bottom top right left" x="1" y="1" width="94" height="79" rx="10" ry="10" stroke="none" stroke-width="0" fill="none"/> 	<rect id="_E4B2FC67-110C-419E-8886-7F39330DF38Fbg_frame" oryx:resize="vertical horizontal" x="0" y="0" width="100" height="80" rx="10" ry="10" stroke="#000000" stroke-width="1" fill="url(#_E4B2FC67-110C-419E-8886-7F39330DF38Fbackground) #ffffcc"/> 		<text font-size="12" id="_E4B2FC67-110C-419E-8886-7F39330DF38Ftext_name" x="50" y="40" oryx:align="middle center" oryx:fittoelem="text_frame" stroke="black" text-anchor="middle" stroke-width="0pt" letter-spacing="-0.01px" fill="#000000" transform="rotate(0 50 40)" visibility="inherit" oryx:fontSize="12"><tspan x="50" y="40" dy="5">task1</tspan></text>     <g id="_E4B2FC67-110C-419E-8886-7F39330DF38FmanualTask" transform="scale(0.7,0.7) translate(8,8)" display="none">     	<path oryx:anchors="top left" id="_E4B2FC67-110C-419E-8886-7F39330DF38Fframe" style="opacity:1;fill:none;fill-opacity:1;stroke-width:1" d="M0.5,3.751l4.083-3.25c0,0,11.166,0.083,12.083,0.083s-2.417,2.917-1.5,2.917     s11.667,0,12.584,0c1.166,1.708-0.168,3.167-0.834,3.667s0.875,1.917-1,4.417c-0.75,0.25,0.75,1.875-1.333,3.333     c-1.167,0.583,0.583,1.542-1.25,2.833c-1.167,0-20.833,0.083-20.833,0.083l-2-1.333V3.751z" stroke="#000000"/> 		<path id="_E4B2FC67-110C-419E-8886-7F39330DF38Fframe2" oryx:anchors="top left" style="opacity:1;fill:none;stroke-width:2" d="M 13.5 7 L 27 7" stroke="#000000"/> 		<path id="_E4B2FC67-110C-419E-8886-7F39330DF38Fframe3" oryx:anchors="top left" style="opacity:1;fill:none;stroke-width:2" d="M 13.5 11 L 26 11" stroke="#000000"/> 		<path id="_E4B2FC67-110C-419E-8886-7F39330DF38Fframe4" oryx:anchors="top left" style="opacity:1;fill:none;stroke-width:1.5" d="M 14 14.5 L 25 14.5" stroke="#000000"/> 		<path id="_E4B2FC67-110C-419E-8886-7F39330DF38Fframe5" oryx:anchors="top left" style="opacity:1;fill:none;stroke-width:1.5" d="M 8.2 3.1 L 15 3.1" stroke="#000000"/> 	</g> 	 	<g id="_E4B2FC67-110C-419E-8886-7F39330DF38FbusinessRuleTask" transform="scale(0.7,0.7) translate(8,8)" display="none"> 		<rect id="_E4B2FC67-110C-419E-8886-7F39330DF38Fframe6" oryx:anchors="top left" x="0" y="0" width="22" height="4" style="opacity:1;fill:#B3B1B3;fill-opacity:1;" stroke="#000000"/> 		<rect id="_E4B2FC67-110C-419E-8886-7F39330DF38Fframe7" oryx:anchors="top left" x="0" y="4" style="opacity:1;fill:none;" width="22" height="12" stroke="#000000"/> 		<path id="_E4B2FC67-110C-419E-8886-7F39330DF38Fframe8" oryx:anchors="top left" style="opacity:1;fill:none;" d="M 0 10 L 22 10" stroke="#000000"/> 		<path id="_E4B2FC67-110C-419E-8886-7F39330DF38Fframe9" oryx:anchors="top left" style="opacity:1; fill:none;" d="M 7 4 L 7 16" stroke="#000000"/> 	</g> 	 	<g id="_E4B2FC67-110C-419E-8886-7F39330DF38FscriptTask" transform="scale(0.7,0.7) translate(8,8)" display="none"> 		<path oryx:anchors="top left" id="_E4B2FC67-110C-419E-8886-7F39330DF38Fframe10" style="opacity:1;fill:none;" stroke="#000000" d="M6.402,0.5h14.5c0,0-5.833,2.833-5.833,5.583s4.417,6,4.417,9.167    s-4.167,5.083-4.167,5.083H0.235c0,0,5-2.667,5-5s-4.583-6.75-4.583-9.25S6.402,0.5,6.402,0.5z"/> 		<path oryx:anchors="top left" id="_E4B2FC67-110C-419E-8886-7F39330DF38Fframe11" style="opacity:1;fill:none;stroke-width:1.5" d="M 3.5 4.5 L 13.5 4.5" stroke="#000000"/> 		<path oryx:anchors="top left" id="_E4B2FC67-110C-419E-8886-7F39330DF38Fframe12" style="opacity:1;fill:none;stroke-width:1.5" d="M 3.8 8.5 L 13.8 8.5" stroke="#000000"/> 		<path oryx:anchors="top left" id="_E4B2FC67-110C-419E-8886-7F39330DF38Fframe13" style="opacity:1;fill:none;stroke-width:1.5" d="M 6.3 12.5 L 16.3 12.5" stroke="#000000"/> 		<path oryx:anchors="top left" id="_E4B2FC67-110C-419E-8886-7F39330DF38Fframe14" style="opacity:1;fill:none;stroke-width:1.5" d="M 6.5 16.5 L 16.5 16.5" stroke="#000000"/> 	</g> 	 	<g id="_E4B2FC67-110C-419E-8886-7F39330DF38FuserTask" transform="scale(0.7,0.7) translate(8,8)" display="inherit"> 		<path id="_E4B2FC67-110C-419E-8886-7F39330DF38Fframe15" oryx:anchors="top left" style="opacity:1;fill:#F4F6F7" stroke="#000000" d="M0.585,24.167h24.083v-7.833c0,0-2.333-3.917-7.083-5.167h-9.25    c-4.417,1.333-7.833,5.75-7.833,5.75L0.585,24.167z"/> 		<path id="_E4B2FC67-110C-419E-8886-7F39330DF38Fframe16" oryx:anchors="top left" style="opacity:1;fill:none" d="M 6 20 L 6 24" stroke="#000000"/> 		<path id="_E4B2FC67-110C-419E-8886-7F39330DF38Fframe17" oryx:anchors="top left" style="opacity:1;fill:none" d="M 20 20 L 20 24" stroke="#000000"/> 		<circle id="_E4B2FC67-110C-419E-8886-7F39330DF38Fframe18" oryx:anchors="top left" fill="black" cx="13.002" cy="5.916" r="5.417" stroke="#000000"/> 		<path id="_E4B2FC67-110C-419E-8886-7F39330DF38Fframe19" oryx:anchors="top left" style="opacity:1;fill:#F0EFF0;" stroke="#000000" d="M8.043,7.083c0,0,2.814-2.426,5.376-1.807s4.624-0.693,4.624-0.693    c0.25,1.688,0.042,3.75-1.458,5.584c0,0,1.083,0.75,1.083,1.5s0.125,1.875-1,3s-5.5,1.25-6.75,0S8.668,12.834,8.668,12    s0.583-1.25,1.25-1.917C8.835,9.5,7.419,7.708,8.043,7.083z"/> 	</g> 	 	<g id="_E4B2FC67-110C-419E-8886-7F39330DF38FserviceTask" transform="scale(0.7,0.7) translate(8,8)" display="none"> 		<polygon oryx:anchors="top left" id="_E4B2FC67-110C-419E-8886-7F39330DF38Fframe20" style="opacity:1;fill:#ffffff" stroke="#000000" points="15.392,5.064 17.954,2.502 20.347,4.895 17.786,7.455     18.729,9.732 22.353,9.732 22.353,13.115 18.731,13.115 17.788,15.392 20.351,17.955 17.958,20.347 15.397,17.786 13.12,18.729     13.12,22.353 9.737,22.353 9.737,18.731 7.46,17.788 4.897,20.35 2.506,17.958 5.066,15.397 4.124,13.12 0.5,13.12 0.5,9.737     4.121,9.737 5.065,7.461 2.503,4.898 4.895,2.506 7.455,5.066 9.732,4.125 9.732,0.5 13.116,0.5 13.116,4.121 "/> 		<circle oryx:anchors="top left" id="_E4B2FC67-110C-419E-8886-7F39330DF38Fframe21" style="opacity:1;fill:none" stroke="#000000" cx="11.427" cy="11.426" r="3.714"/> 		<polygon oryx:anchors="top left" id="_E4B2FC67-110C-419E-8886-7F39330DF38Fframe22" style="opacity:1;fill:#ffffff" stroke="#000000" points="21.392,11.064 23.954,8.502 26.347,10.895 23.786,13.455     24.729,15.732 28.353,15.732 28.353,19.115 24.731,19.115 23.788,21.392 26.351,23.955 23.958,26.347 21.397,23.786 19.12,24.729     19.12,28.353 15.737,28.353 15.737,24.731 13.46,23.788 10.897,26.35 8.506,23.958 11.066,21.397 10.124,19.12 6.5,19.12     6.5,15.737 10.121,15.737 11.065,13.461 8.503,10.898 10.895,8.506 13.455,11.066 15.732,10.125 15.732,6.5 19.116,6.5     19.116,10.121 "/> 		<circle oryx:anchors="top left" id="_E4B2FC67-110C-419E-8886-7F39330DF38Fframe23" style="opacity:1;fill:none;" stroke="#000000" cx="17.427" cy="17.426" r="3.714"/> 	</g> 	 	<g id="_E4B2FC67-110C-419E-8886-7F39330DF38FsendTask" display="none"> 		<path id="_E4B2FC67-110C-419E-8886-7F39330DF38Fstframe24" oryx:anchors="left top" stroke="#FFFFFF" fill="black" stroke-width="1" d="M8,11 L8,21 L24,21 L24,11 L16,17z"/> 		<path id="_E4B2FC67-110C-419E-8886-7F39330DF38Fstframe25" oryx:anchors="left top" stroke="#FFFFFF" fill="black" stroke-width="1" d="M7,10 L16,17 L25 10z"/> 	</g> 	 	<g id="_E4B2FC67-110C-419E-8886-7F39330DF38FreceiveTask" display="none"> 		<path id="_E4B2FC67-110C-419E-8886-7F39330DF38Fframe26" oryx:anchors="left top" stroke="#000000" fill="none" stroke-width="1" d="M8,11 L8,21 L24,21 L24,11z M8,11 L16,17 L24,11"/> 	</g> 	 	<g id="_E4B2FC67-110C-419E-8886-7F39330DF38Fnone" display="inherit"/>  	<g id="_E4B2FC67-110C-419E-8886-7F39330DF38Fsequential" display="none">         <path oryx:anchors="bottom" fill="none" stroke="#000000" stroke-width="2" d="M46,76h10M46,72h10 M46,68h10" id="_E4B2FC67-110C-419E-8886-7F39330DF38F__E4B2FC67-110C-419E-8886-7F39330DF38F_20"/>     </g>   </g></g><g class="children" style="overflow:hidden"/><g class="edge"/></g><g class="controls"><g class="dockers"/><g class="magnets" transform="translate(195, 140)"><g pointer-events="all" display="none" transform="translate(-7, 12)"><circle cx="8" cy="8" r="4" stroke="none" fill="red" fill-opacity="0.3"/></g><g pointer-events="all" display="none" transform="translate(-7, 32)"><circle cx="8" cy="8" r="4" stroke="none" fill="red" fill-opacity="0.3"/></g><g pointer-events="all" display="none" transform="translate(-7, 52)"><circle cx="8" cy="8" r="4" stroke="none" fill="red" fill-opacity="0.3"/></g><g pointer-events="all" display="none" transform="translate(17, 71)"><circle cx="8" cy="8" r="4" stroke="none" fill="red" fill-opacity="0.3"/></g><g pointer-events="all" display="none" transform="translate(42, 71)"><circle cx="8" cy="8" r="4" stroke="none" fill="red" fill-opacity="0.3"/></g><g pointer-events="all" display="none" transform="translate(67, 71)"><circle cx="8" cy="8" r="4" stroke="none" fill="red" fill-opacity="0.3"/></g><g pointer-events="all" display="none" transform="translate(91, 12)"><circle cx="8" cy="8" r="4" stroke="none" fill="red" fill-opacity="0.3"/></g><g pointer-events="all" display="none" transform="translate(91, 32)"><circle cx="8" cy="8" r="4" stroke="none" fill="red" fill-opacity="0.3"/></g><g pointer-events="all" display="none" transform="translate(91, 52)"><circle cx="8" cy="8" r="4" stroke="none" fill="red" fill-opacity="0.3"/></g><g pointer-events="all" display="none" transform="translate(17, -7)"><circle cx="8" cy="8" r="4" stroke="none" fill="red" fill-opacity="0.3"/></g><g pointer-events="all" display="none" transform="translate(42, -7)"><circle cx="8" cy="8" r="4" stroke="none" fill="red" fill-opacity="0.3"/></g><g pointer-events="all" display="none" transform="translate(67, -7)"><circle cx="8" cy="8" r="4" stroke="none" fill="red" fill-opacity="0.3"/></g><g pointer-events="all" display="none" transform="translate(42, 32)"><circle cx="8" cy="8" r="4" stroke="none" fill="red" fill-opacity="0.3"/></g></g></g></g><g id="_6F91CC6F-D0DA-403B-8D08-F264D1EF8568" bpmn2nodeid="_1EA3600A-796C-4BB1-86E0-915109C64219"><g class="stencils" transform="translate(340, 140)"><g class="me"><g pointer-events="fill" oryx:minimumSize="50 40" id="_6F91CC6F-D0DA-403B-8D08-F264D1EF8568">   	<defs id="_6F91CC6F-D0DA-403B-8D08-F264D1EF8568__6F91CC6F-D0DA-403B-8D08-F264D1EF8568_17"> 		<radialGradient id="_6F91CC6F-D0DA-403B-8D08-F264D1EF8568background" cx="10%" cy="10%" r="100%" fx="10%" fy="10%"> 			<stop offset="0%" stop-color="#ffffff" stop-opacity="1" id="_6F91CC6F-D0DA-403B-8D08-F264D1EF8568__6F91CC6F-D0DA-403B-8D08-F264D1EF8568_18"/> 			<stop id="_6F91CC6F-D0DA-403B-8D08-F264D1EF8568fill_el" offset="100%" stop-color="#fafad2" stop-opacity="1"/> 		</radialGradient> 		<radialGradient id="_6F91CC6F-D0DA-403B-8D08-F264D1EF8568borderbackground" cx="10%" cy="10%" r="100%" fx="10%" fy="10%"> 			<stop offset="0%" stop-color="#ffffff" stop-opacity="1" id="_6F91CC6F-D0DA-403B-8D08-F264D1EF8568__6F91CC6F-D0DA-403B-8D08-F264D1EF8568_19"/> 			<stop id="_6F91CC6F-D0DA-403B-8D08-F264D1EF8568fill_border" offset="100%" stop-color="#000000" stop-opacity="1" stroke="#000000"/> 		</radialGradient> 	</defs> 	 	<rect id="_6F91CC6F-D0DA-403B-8D08-F264D1EF8568text_frame" oryx:anchors="bottom top right left" x="1" y="1" width="94" height="79" rx="10" ry="10" stroke="none" stroke-width="0" fill="none"/> 	<rect id="_6F91CC6F-D0DA-403B-8D08-F264D1EF8568bg_frame" oryx:resize="vertical horizontal" x="0" y="0" width="100" height="80" rx="10" ry="10" stroke="#000000" stroke-width="1" fill="url(#_6F91CC6F-D0DA-403B-8D08-F264D1EF8568background) #ffffcc"/> 		<text font-size="12" id="_6F91CC6F-D0DA-403B-8D08-F264D1EF8568text_name" x="50" y="40" oryx:align="middle center" oryx:fittoelem="text_frame" stroke="black" text-anchor="middle" stroke-width="0pt" letter-spacing="-0.01px" fill="#000000" transform="rotate(0 50 40)" visibility="inherit" oryx:fontSize="12"><tspan x="50" y="40" dy="5">task2</tspan></text>     <g id="_6F91CC6F-D0DA-403B-8D08-F264D1EF8568manualTask" transform="scale(0.7,0.7) translate(8,8)" display="none">     	<path oryx:anchors="top left" id="_6F91CC6F-D0DA-403B-8D08-F264D1EF8568frame" style="opacity:1;fill:none;fill-opacity:1;stroke-width:1" d="M0.5,3.751l4.083-3.25c0,0,11.166,0.083,12.083,0.083s-2.417,2.917-1.5,2.917     s11.667,0,12.584,0c1.166,1.708-0.168,3.167-0.834,3.667s0.875,1.917-1,4.417c-0.75,0.25,0.75,1.875-1.333,3.333     c-1.167,0.583,0.583,1.542-1.25,2.833c-1.167,0-20.833,0.083-20.833,0.083l-2-1.333V3.751z" stroke="#000000"/> 		<path id="_6F91CC6F-D0DA-403B-8D08-F264D1EF8568frame2" oryx:anchors="top left" style="opacity:1;fill:none;stroke-width:2" d="M 13.5 7 L 27 7" stroke="#000000"/> 		<path id="_6F91CC6F-D0DA-403B-8D08-F264D1EF8568frame3" oryx:anchors="top left" style="opacity:1;fill:none;stroke-width:2" d="M 13.5 11 L 26 11" stroke="#000000"/> 		<path id="_6F91CC6F-D0DA-403B-8D08-F264D1EF8568frame4" oryx:anchors="top left" style="opacity:1;fill:none;stroke-width:1.5" d="M 14 14.5 L 25 14.5" stroke="#000000"/> 		<path id="_6F91CC6F-D0DA-403B-8D08-F264D1EF8568frame5" oryx:anchors="top left" style="opacity:1;fill:none;stroke-width:1.5" d="M 8.2 3.1 L 15 3.1" stroke="#000000"/> 	</g> 	 	<g id="_6F91CC6F-D0DA-403B-8D08-F264D1EF8568businessRuleTask" transform="scale(0.7,0.7) translate(8,8)" display="none"> 		<rect id="_6F91CC6F-D0DA-403B-8D08-F264D1EF8568frame6" oryx:anchors="top left" x="0" y="0" width="22" height="4" style="opacity:1;fill:#B3B1B3;fill-opacity:1;" stroke="#000000"/> 		<rect id="_6F91CC6F-D0DA-403B-8D08-F264D1EF8568frame7" oryx:anchors="top left" x="0" y="4" style="opacity:1;fill:none;" width="22" height="12" stroke="#000000"/> 		<path id="_6F91CC6F-D0DA-403B-8D08-F264D1EF8568frame8" oryx:anchors="top left" style="opacity:1;fill:none;" d="M 0 10 L 22 10" stroke="#000000"/> 		<path id="_6F91CC6F-D0DA-403B-8D08-F264D1EF8568frame9" oryx:anchors="top left" style="opacity:1; fill:none;" d="M 7 4 L 7 16" stroke="#000000"/> 	</g> 	 	<g id="_6F91CC6F-D0DA-403B-8D08-F264D1EF8568scriptTask" transform="scale(0.7,0.7) translate(8,8)" display="inherit"> 		<path oryx:anchors="top left" id="_6F91CC6F-D0DA-403B-8D08-F264D1EF8568frame10" style="opacity:1;fill:none;" stroke="#000000" d="M6.402,0.5h14.5c0,0-5.833,2.833-5.833,5.583s4.417,6,4.417,9.167    s-4.167,5.083-4.167,5.083H0.235c0,0,5-2.667,5-5s-4.583-6.75-4.583-9.25S6.402,0.5,6.402,0.5z"/> 		<path oryx:anchors="top left" id="_6F91CC6F-D0DA-403B-8D08-F264D1EF8568frame11" style="opacity:1;fill:none;stroke-width:1.5" d="M 3.5 4.5 L 13.5 4.5" stroke="#000000"/> 		<path oryx:anchors="top left" id="_6F91CC6F-D0DA-403B-8D08-F264D1EF8568frame12" style="opacity:1;fill:none;stroke-width:1.5" d="M 3.8 8.5 L 13.8 8.5" stroke="#000000"/> 		<path oryx:anchors="top left" id="_6F91CC6F-D0DA-403B-8D08-F264D1EF8568frame13" style="opacity:1;fill:none;stroke-width:1.5" d="M 6.3 12.5 L 16.3 12.5" stroke="#000000"/> 		<path oryx:anchors="top left" id="_6F91CC6F-D0DA-403B-8D08-F264D1EF8568frame14" style="opacity:1;fill:none;stroke-width:1.5" d="M 6.5 16.5 L 16.5 16.5" stroke="#000000"/> 	</g> 	 	<g id="_6F91CC6F-D0DA-403B-8D08-F264D1EF8568userTask" transform="scale(0.7,0.7) translate(8,8)" display="none"> 		<path id="_6F91CC6F-D0DA-403B-8D08-F264D1EF8568frame15" oryx:anchors="top left" style="opacity:1;fill:#F4F6F7" stroke="#000000" d="M0.585,24.167h24.083v-7.833c0,0-2.333-3.917-7.083-5.167h-9.25    c-4.417,1.333-7.833,5.75-7.833,5.75L0.585,24.167z"/> 		<path id="_6F91CC6F-D0DA-403B-8D08-F264D1EF8568frame16" oryx:anchors="top left" style="opacity:1;fill:none" d="M 6 20 L 6 24" stroke="#000000"/> 		<path id="_6F91CC6F-D0DA-403B-8D08-F264D1EF8568frame17" oryx:anchors="top left" style="opacity:1;fill:none" d="M 20 20 L 20 24" stroke="#000000"/> 		<circle id="_6F91CC6F-D0DA-403B-8D08-F264D1EF8568frame18" oryx:anchors="top left" fill="black" cx="13.002" cy="5.916" r="5.417" stroke="#000000"/> 		<path id="_6F91CC6F-D0DA-403B-8D08-F264D1EF8568frame19" oryx:anchors="top left" style="opacity:1;fill:#F0EFF0;" stroke="#000000" d="M8.043,7.083c0,0,2.814-2.426,5.376-1.807s4.624-0.693,4.624-0.693    c0.25,1.688,0.042,3.75-1.458,5.584c0,0,1.083,0.75,1.083,1.5s0.125,1.875-1,3s-5.5,1.25-6.75,0S8.668,12.834,8.668,12    s0.583-1.25,1.25-1.917C8.835,9.5,7.419,7.708,8.043,7.083z"/> 	</g> 	 	<g id="_6F91CC6F-D0DA-403B-8D08-F264D1EF8568serviceTask" transform="scale(0.7,0.7) translate(8,8)" display="none"> 		<polygon oryx:anchors="top left" id="_6F91CC6F-D0DA-403B-8D08-F264D1EF8568frame20" style="opacity:1;fill:#ffffff" stroke="#000000" points="15.392,5.064 17.954,2.502 20.347,4.895 17.786,7.455     18.729,9.732 22.353,9.732 22.353,13.115 18.731,13.115 17.788,15.392 20.351,17.955 17.958,20.347 15.397,17.786 13.12,18.729     13.12,22.353 9.737,22.353 9.737,18.731 7.46,17.788 4.897,20.35 2.506,17.958 5.066,15.397 4.124,13.12 0.5,13.12 0.5,9.737     4.121,9.737 5.065,7.461 2.503,4.898 4.895,2.506 7.455,5.066 9.732,4.125 9.732,0.5 13.116,0.5 13.116,4.121 "/> 		<circle oryx:anchors="top left" id="_6F91CC6F-D0DA-403B-8D08-F264D1EF8568frame21" style="opacity:1;fill:none" stroke="#000000" cx="11.427" cy="11.426" r="3.714"/> 		<polygon oryx:anchors="top left" id="_6F91CC6F-D0DA-403B-8D08-F264D1EF8568frame22" style="opacity:1;fill:#ffffff" stroke="#000000" points="21.392,11.064 23.954,8.502 26.347,10.895 23.786,13.455     24.729,15.732 28.353,15.732 28.353,19.115 24.731,19.115 23.788,21.392 26.351,23.955 23.958,26.347 21.397,23.786 19.12,24.729     19.12,28.353 15.737,28.353 15.737,24.731 13.46,23.788 10.897,26.35 8.506,23.958 11.066,21.397 10.124,19.12 6.5,19.12     6.5,15.737 10.121,15.737 11.065,13.461 8.503,10.898 10.895,8.506 13.455,11.066 15.732,10.125 15.732,6.5 19.116,6.5     19.116,10.121 "/> 		<circle oryx:anchors="top left" id="_6F91CC6F-D0DA-403B-8D08-F264D1EF8568frame23" style="opacity:1;fill:none;" stroke="#000000" cx="17.427" cy="17.426" r="3.714"/> 	</g> 	 	<g id="_6F91CC6F-D0DA-403B-8D08-F264D1EF8568sendTask" display="none"> 		<path id="_6F91CC6F-D0DA-403B-8D08-F264D1EF8568stframe24" oryx:anchors="left top" stroke="#FFFFFF" fill="black" stroke-width="1" d="M8,11 L8,21 L24,21 L24,11 L16,17z"/> 		<path id="_6F91CC6F-D0DA-403B-8D08-F264D1EF8568stframe25" oryx:anchors="left top" stroke="#FFFFFF" fill="black" stroke-width="1" d="M7,10 L16,17 L25 10z"/> 	</g> 	 	<g id="_6F91CC6F-D0DA-403B-8D08-F264D1EF8568receiveTask" display="none"> 		<path id="_6F91CC6F-D0DA-403B-8D08-F264D1EF8568frame26" oryx:anchors="left top" stroke="#000000" fill="none" stroke-width="1" d="M8,11 L8,21 L24,21 L24,11z M8,11 L16,17 L24,11"/> 	</g> 	 	<g id="_6F91CC6F-D0DA-403B-8D08-F264D1EF8568none" display="inherit"/>  	<g id="_6F91CC6F-D0DA-403B-8D08-F264D1EF8568sequential" display="none">         <path oryx:anchors="bottom" fill="none" stroke="#000000" stroke-width="2" d="M46,76h10M46,72h10 M46,68h10" id="_6F91CC6F-D0DA-403B-8D08-F264D1EF8568__6F91CC6F-D0DA-403B-8D08-F264D1EF8568_20"/>     </g>   </g></g><g class="children" style="overflow:hidden"/><g class="edge"/></g><g class="controls"><g class="dockers"/><g class="magnets" transform="translate(340, 140)"><g pointer-events="all" display="none" transform="translate(-7, 12)"><circle cx="8" cy="8" r="4" stroke="none" fill="red" fill-opacity="0.3"/></g><g pointer-events="all" display="none" transform="translate(-7, 32)"><circle cx="8" cy="8" r="4" stroke="none" fill="red" fill-opacity="0.3"/></g><g pointer-events="all" display="none" transform="translate(-7, 52)"><circle cx="8" cy="8" r="4" stroke="none" fill="red" fill-opacity="0.3"/></g><g pointer-events="all" display="none" transform="translate(17, 71)"><circle cx="8" cy="8" r="4" stroke="none" fill="red" fill-opacity="0.3"/></g><g pointer-events="all" display="none" transform="translate(42, 71)"><circle cx="8" cy="8" r="4" stroke="none" fill="red" fill-opacity="0.3"/></g><g pointer-events="all" display="none" transform="translate(67, 71)"><circle cx="8" cy="8" r="4" stroke="none" fill="red" fill-opacity="0.3"/></g><g pointer-events="all" display="none" transform="translate(91, 12)"><circle cx="8" cy="8" r="4" stroke="none" fill="red" fill-opacity="0.3"/></g><g pointer-events="all" display="none" transform="translate(91, 32)"><circle cx="8" cy="8" r="4" stroke="none" fill="red" fill-opacity="0.3"/></g><g pointer-events="all" display="none" transform="translate(91, 52)"><circle cx="8" cy="8" r="4" stroke="none" fill="red" fill-opacity="0.3"/></g><g pointer-events="all" display="none" transform="translate(17, -7)"><circle cx="8" cy="8" r="4" stroke="none" fill="red" fill-opacity="0.3"/></g><g pointer-events="all" display="none" transform="translate(42, -7)"><circle cx="8" cy="8" r="4" stroke="none" fill="red" fill-opacity="0.3"/></g><g pointer-events="all" display="none" transform="translate(67, -7)"><circle cx="8" cy="8" r="4" stroke="none" fill="red" fill-opacity="0.3"/></g><g pointer-events="all" display="none" transform="translate(42, 32)"><circle cx="8" cy="8" r="4" stroke="none" fill="red" fill-opacity="0.3"/></g></g></g></g><g id="_8402DADB-9776-41CA-BA9E-BFF08A1C4582" bpmn2nodeid="_AC9F5D4F-DECF-4E94-A2A8-4795D4C25DFF"><g class="stencils" transform="translate(472, 140)"><g class="me"><g pointer-events="fill" oryx:minimumSize="50 40" id="_8402DADB-9776-41CA-BA9E-BFF08A1C4582">   	<defs id="_8402DADB-9776-41CA-BA9E-BFF08A1C4582__8402DADB-9776-41CA-BA9E-BFF08A1C4582_17"> 		<radialGradient id="_8402DADB-9776-41CA-BA9E-BFF08A1C4582background" cx="10%" cy="10%" r="100%" fx="10%" fy="10%"> 			<stop offset="0%" stop-color="#ffffff" stop-opacity="1" id="_8402DADB-9776-41CA-BA9E-BFF08A1C4582__8402DADB-9776-41CA-BA9E-BFF08A1C4582_18"/> 			<stop id="_8402DADB-9776-41CA-BA9E-BFF08A1C4582fill_el" offset="100%" stop-color="#fafad2" stop-opacity="1"/> 		</radialGradient> 		<radialGradient id="_8402DADB-9776-41CA-BA9E-BFF08A1C4582borderbackground" cx="10%" cy="10%" r="100%" fx="10%" fy="10%"> 			<stop offset="0%" stop-color="#ffffff" stop-opacity="1" id="_8402DADB-9776-41CA-BA9E-BFF08A1C4582__8402DADB-9776-41CA-BA9E-BFF08A1C4582_19"/> 			<stop id="_8402DADB-9776-41CA-BA9E-BFF08A1C4582fill_border" offset="100%" stop-color="#000000" stop-opacity="1" stroke="#000000"/> 		</radialGradient> 	</defs> 	 	<rect id="_8402DADB-9776-41CA-BA9E-BFF08A1C4582text_frame" oryx:anchors="bottom top right left" x="1" y="1" width="94" height="79" rx="10" ry="10" stroke="none" stroke-width="0" fill="none"/> 	<rect id="_8402DADB-9776-41CA-BA9E-BFF08A1C4582bg_frame" oryx:resize="vertical horizontal" x="0" y="0" width="100" height="80" rx="10" ry="10" stroke="#000000" stroke-width="1" fill="url(#_8402DADB-9776-41CA-BA9E-BFF08A1C4582background) #ffffcc"/> 		<text font-size="12" id="_8402DADB-9776-41CA-BA9E-BFF08A1C4582text_name" x="50" y="40" oryx:align="middle center" oryx:fittoelem="text_frame" stroke="black" text-anchor="middle" stroke-width="0pt" letter-spacing="-0.01px" fill="#000000" transform="rotate(0 50 40)" visibility="inherit" oryx:fontSize="12"><tspan x="50" y="40" dy="5" id="ext-gen606">task3</tspan></text>     <g id="_8402DADB-9776-41CA-BA9E-BFF08A1C4582manualTask" transform="scale(0.7,0.7) translate(8,8)" display="none">     	<path oryx:anchors="top left" id="_8402DADB-9776-41CA-BA9E-BFF08A1C4582frame" style="opacity:1;fill:none;fill-opacity:1;stroke-width:1" d="M0.5,3.751l4.083-3.25c0,0,11.166,0.083,12.083,0.083s-2.417,2.917-1.5,2.917     s11.667,0,12.584,0c1.166,1.708-0.168,3.167-0.834,3.667s0.875,1.917-1,4.417c-0.75,0.25,0.75,1.875-1.333,3.333     c-1.167,0.583,0.583,1.542-1.25,2.833c-1.167,0-20.833,0.083-20.833,0.083l-2-1.333V3.751z" stroke="#000000"/> 		<path id="_8402DADB-9776-41CA-BA9E-BFF08A1C4582frame2" oryx:anchors="top left" style="opacity:1;fill:none;stroke-width:2" d="M 13.5 7 L 27 7" stroke="#000000"/> 		<path id="_8402DADB-9776-41CA-BA9E-BFF08A1C4582frame3" oryx:anchors="top left" style="opacity:1;fill:none;stroke-width:2" d="M 13.5 11 L 26 11" stroke="#000000"/> 		<path id="_8402DADB-9776-41CA-BA9E-BFF08A1C4582frame4" oryx:anchors="top left" style="opacity:1;fill:none;stroke-width:1.5" d="M 14 14.5 L 25 14.5" stroke="#000000"/> 		<path id="_8402DADB-9776-41CA-BA9E-BFF08A1C4582frame5" oryx:anchors="top left" style="opacity:1;fill:none;stroke-width:1.5" d="M 8.2 3.1 L 15 3.1" stroke="#000000"/> 	</g> 	 	<g id="_8402DADB-9776-41CA-BA9E-BFF08A1C4582businessRuleTask" transform="scale(0.7,0.7) translate(8,8)" display="none"> 		<rect id="_8402DADB-9776-41CA-BA9E-BFF08A1C4582frame6" oryx:anchors="top left" x="0" y="0" width="22" height="4" style="opacity:1;fill:#B3B1B3;fill-opacity:1;" stroke="#000000"/> 		<rect id="_8402DADB-9776-41CA-BA9E-BFF08A1C4582frame7" oryx:anchors="top left" x="0" y="4" style="opacity:1;fill:none;" width="22" height="12" stroke="#000000"/> 		<path id="_8402DADB-9776-41CA-BA9E-BFF08A1C4582frame8" oryx:anchors="top left" style="opacity:1;fill:none;" d="M 0 10 L 22 10" stroke="#000000"/> 		<path id="_8402DADB-9776-41CA-BA9E-BFF08A1C4582frame9" oryx:anchors="top left" style="opacity:1; fill:none;" d="M 7 4 L 7 16" stroke="#000000"/> 	</g> 	 	<g id="_8402DADB-9776-41CA-BA9E-BFF08A1C4582scriptTask" transform="scale(0.7,0.7) translate(8,8)" display="inherit"> 		<path oryx:anchors="top left" id="_8402DADB-9776-41CA-BA9E-BFF08A1C4582frame10" style="opacity:1;fill:none;" stroke="#000000" d="M6.402,0.5h14.5c0,0-5.833,2.833-5.833,5.583s4.417,6,4.417,9.167    s-4.167,5.083-4.167,5.083H0.235c0,0,5-2.667,5-5s-4.583-6.75-4.583-9.25S6.402,0.5,6.402,0.5z"/> 		<path oryx:anchors="top left" id="_8402DADB-9776-41CA-BA9E-BFF08A1C4582frame11" style="opacity:1;fill:none;stroke-width:1.5" d="M 3.5 4.5 L 13.5 4.5" stroke="#000000"/> 		<path oryx:anchors="top left" id="_8402DADB-9776-41CA-BA9E-BFF08A1C4582frame12" style="opacity:1;fill:none;stroke-width:1.5" d="M 3.8 8.5 L 13.8 8.5" stroke="#000000"/> 		<path oryx:anchors="top left" id="_8402DADB-9776-41CA-BA9E-BFF08A1C4582frame13" style="opacity:1;fill:none;stroke-width:1.5" d="M 6.3 12.5 L 16.3 12.5" stroke="#000000"/> 		<path oryx:anchors="top left" id="_8402DADB-9776-41CA-BA9E-BFF08A1C4582frame14" style="opacity:1;fill:none;stroke-width:1.5" d="M 6.5 16.5 L 16.5 16.5" stroke="#000000"/> 	</g> 	 	<g id="_8402DADB-9776-41CA-BA9E-BFF08A1C4582userTask" transform="scale(0.7,0.7) translate(8,8)" display="none"> 		<path id="_8402DADB-9776-41CA-BA9E-BFF08A1C4582frame15" oryx:anchors="top left" style="opacity:1;fill:#F4F6F7" stroke="#000000" d="M0.585,24.167h24.083v-7.833c0,0-2.333-3.917-7.083-5.167h-9.25    c-4.417,1.333-7.833,5.75-7.833,5.75L0.585,24.167z"/> 		<path id="_8402DADB-9776-41CA-BA9E-BFF08A1C4582frame16" oryx:anchors="top left" style="opacity:1;fill:none" d="M 6 20 L 6 24" stroke="#000000"/> 		<path id="_8402DADB-9776-41CA-BA9E-BFF08A1C4582frame17" oryx:anchors="top left" style="opacity:1;fill:none" d="M 20 20 L 20 24" stroke="#000000"/> 		<circle id="_8402DADB-9776-41CA-BA9E-BFF08A1C4582frame18" oryx:anchors="top left" fill="black" cx="13.002" cy="5.916" r="5.417" stroke="#000000"/> 		<path id="_8402DADB-9776-41CA-BA9E-BFF08A1C4582frame19" oryx:anchors="top left" style="opacity:1;fill:#F0EFF0;" stroke="#000000" d="M8.043,7.083c0,0,2.814-2.426,5.376-1.807s4.624-0.693,4.624-0.693    c0.25,1.688,0.042,3.75-1.458,5.584c0,0,1.083,0.75,1.083,1.5s0.125,1.875-1,3s-5.5,1.25-6.75,0S8.668,12.834,8.668,12    s0.583-1.25,1.25-1.917C8.835,9.5,7.419,7.708,8.043,7.083z"/> 	</g> 	 	<g id="_8402DADB-9776-41CA-BA9E-BFF08A1C4582serviceTask" transform="scale(0.7,0.7) translate(8,8)" display="none"> 		<polygon oryx:anchors="top left" id="_8402DADB-9776-41CA-BA9E-BFF08A1C4582frame20" style="opacity:1;fill:#ffffff" stroke="#000000" points="15.392,5.064 17.954,2.502 20.347,4.895 17.786,7.455     18.729,9.732 22.353,9.732 22.353,13.115 18.731,13.115 17.788,15.392 20.351,17.955 17.958,20.347 15.397,17.786 13.12,18.729     13.12,22.353 9.737,22.353 9.737,18.731 7.46,17.788 4.897,20.35 2.506,17.958 5.066,15.397 4.124,13.12 0.5,13.12 0.5,9.737     4.121,9.737 5.065,7.461 2.503,4.898 4.895,2.506 7.455,5.066 9.732,4.125 9.732,0.5 13.116,0.5 13.116,4.121 "/> 		<circle oryx:anchors="top left" id="_8402DADB-9776-41CA-BA9E-BFF08A1C4582frame21" style="opacity:1;fill:none" stroke="#000000" cx="11.427" cy="11.426" r="3.714"/> 		<polygon oryx:anchors="top left" id="_8402DADB-9776-41CA-BA9E-BFF08A1C4582frame22" style="opacity:1;fill:#ffffff" stroke="#000000" points="21.392,11.064 23.954,8.502 26.347,10.895 23.786,13.455     24.729,15.732 28.353,15.732 28.353,19.115 24.731,19.115 23.788,21.392 26.351,23.955 23.958,26.347 21.397,23.786 19.12,24.729     19.12,28.353 15.737,28.353 15.737,24.731 13.46,23.788 10.897,26.35 8.506,23.958 11.066,21.397 10.124,19.12 6.5,19.12     6.5,15.737 10.121,15.737 11.065,13.461 8.503,10.898 10.895,8.506 13.455,11.066 15.732,10.125 15.732,6.5 19.116,6.5     19.116,10.121 "/> 		<circle oryx:anchors="top left" id="_8402DADB-9776-41CA-BA9E-BFF08A1C4582frame23" style="opacity:1;fill:none;" stroke="#000000" cx="17.427" cy="17.426" r="3.714"/> 	</g> 	 	<g id="_8402DADB-9776-41CA-BA9E-BFF08A1C4582sendTask" display="none"> 		<path id="_8402DADB-9776-41CA-BA9E-BFF08A1C4582stframe24" oryx:anchors="left top" stroke="#FFFFFF" fill="black" stroke-width="1" d="M8,11 L8,21 L24,21 L24,11 L16,17z"/> 		<path id="_8402DADB-9776-41CA-BA9E-BFF08A1C4582stframe25" oryx:anchors="left top" stroke="#FFFFFF" fill="black" stroke-width="1" d="M7,10 L16,17 L25 10z"/> 	</g> 	 	<g id="_8402DADB-9776-41CA-BA9E-BFF08A1C4582receiveTask" display="none"> 		<path id="_8402DADB-9776-41CA-BA9E-BFF08A1C4582frame26" oryx:anchors="left top" stroke="#000000" fill="none" stroke-width="1" d="M8,11 L8,21 L24,21 L24,11z M8,11 L16,17 L24,11"/> 	</g> 	 	<g id="_8402DADB-9776-41CA-BA9E-BFF08A1C4582none" display="none"/>  	<g id="_8402DADB-9776-41CA-BA9E-BFF08A1C4582sequential" display="none">         <path oryx:anchors="bottom" fill="none" stroke="#000000" stroke-width="2" d="M46,76h10M46,72h10 M46,68h10" id="_8402DADB-9776-41CA-BA9E-BFF08A1C4582__8402DADB-9776-41CA-BA9E-BFF08A1C4582_20"/>     </g>   </g></g><g class="children" style="overflow:hidden"/><g class="edge"/></g><g class="controls"><g class="dockers"/><g class="magnets" transform="translate(472, 140)"><g pointer-events="all" display="none" transform="translate(-7, 12)"><circle cx="8" cy="8" r="4" stroke="none" fill="red" fill-opacity="0.3"/></g><g pointer-events="all" display="none" transform="translate(-7, 32)"><circle cx="8" cy="8" r="4" stroke="none" fill="red" fill-opacity="0.3"/></g><g pointer-events="all" display="none" transform="translate(-7, 52)"><circle cx="8" cy="8" r="4" stroke="none" fill="red" fill-opacity="0.3"/></g><g pointer-events="all" display="none" transform="translate(17, 71)"><circle cx="8" cy="8" r="4" stroke="none" fill="red" fill-opacity="0.3"/></g><g pointer-events="all" display="none" transform="translate(42, 71)"><circle cx="8" cy="8" r="4" stroke="none" fill="red" fill-opacity="0.3"/></g><g pointer-events="all" display="none" transform="translate(67, 71)"><circle cx="8" cy="8" r="4" stroke="none" fill="red" fill-opacity="0.3"/></g><g pointer-events="all" display="none" transform="translate(91, 12)"><circle cx="8" cy="8" r="4" stroke="none" fill="red" fill-opacity="0.3"/></g><g pointer-events="all" display="none" transform="translate(91, 32)"><circle cx="8" cy="8" r="4" stroke="none" fill="red" fill-opacity="0.3"/></g><g pointer-events="all" display="none" transform="translate(91, 52)"><circle cx="8" cy="8" r="4" stroke="none" fill="red" fill-opacity="0.3"/></g><g pointer-events="all" display="none" transform="translate(17, -7)"><circle cx="8" cy="8" r="4" stroke="none" fill="red" fill-opacity="0.3"/></g><g pointer-events="all" display="none" transform="translate(42, -7)"><circle cx="8" cy="8" r="4" stroke="none" fill="red" fill-opacity="0.3"/></g><g pointer-events="all" display="none" transform="translate(67, -7)"><circle cx="8" cy="8" r="4" stroke="none" fill="red" fill-opacity="0.3"/></g><g pointer-events="all" display="none" transform="translate(42, 32)"><circle cx="8" cy="8" r="4" stroke="none" fill="red" fill-opacity="0.3"/></g></g></g></g><g id="_588E30AA-8382-44E0-9DFB-366E3FDA6A97" bpmn2nodeid="_A4196B24-2822-4FF5-8F6B-CF3DD6D5843C"><g class="stencils" transform="translate(617, 166)"><g class="me"><g pointer-events="fill" id="_588E30AA-8382-44E0-9DFB-366E3FDA6A97">      <defs id="_588E30AA-8382-44E0-9DFB-366E3FDA6A97__588E30AA-8382-44E0-9DFB-366E3FDA6A97_5"> 		<radialGradient id="_588E30AA-8382-44E0-9DFB-366E3FDA6A97background" cx="10%" cy="10%" r="100%" fx="10%" fy="10%"> 			<stop offset="0%" stop-color="#ffffff" stop-opacity="1" id="_588E30AA-8382-44E0-9DFB-366E3FDA6A97__588E30AA-8382-44E0-9DFB-366E3FDA6A97_6"/> 			<stop id="_588E30AA-8382-44E0-9DFB-366E3FDA6A97fill_el" offset="100%" stop-color="#ff6347" stop-opacity="1"/> 		</radialGradient> 	</defs> 	     <circle id="_588E30AA-8382-44E0-9DFB-366E3FDA6A97bg_frame" cx="14" cy="14" r="14" stroke="#000000" fill="url(#_588E30AA-8382-44E0-9DFB-366E3FDA6A97background) white" stroke-width="3"/> 	<text font-size="11" id="_588E30AA-8382-44E0-9DFB-366E3FDA6A97text_name" x="14" y="30" oryx:align="top center" stroke="black" stroke-width="0pt" letter-spacing="-0.01px" fill="#000000" text-anchor="middle" transform="rotate(0 14 30)" visibility="inherit" oryx:fontSize="11"/>   </g></g><g class="children" style="overflow:hidden"/><g class="edge"/></g><g class="controls"><g class="dockers"/><g class="magnets" transform="translate(617, 166)"><g pointer-events="all" display="none" transform="translate(6, 6)"><circle cx="8" cy="8" r="4" stroke="none" fill="red" fill-opacity="0.3"/></g></g></g></g></g><g class="edge"><g id="_0CFF3766-6551-4F78-B0D4-5EDB31380685" bpmn2nodeid="_01542274-F839-4252-94C7-73C86AC41D0C"><g class="stencils"><g class="me"><g pointer-events="painted" bpmn2nodeid="_4901942B-11C2-4639-8802-F6D3D56545A8"><path id="_0CFF3766-6551-4F78-B0D4-5EDB31380685_1" d="M150.609375 180L194.15625 180 " stroke="#000000" fill="none" stroke-width="2" stroke-linecap="round" stroke-linejoin="round" marker-start="url(#_0CFF3766-6551-4F78-B0D4-5EDB31380685start)" marker-end="url(#_0CFF3766-6551-4F78-B0D4-5EDB31380685end)"/></g><text id="_0CFF3766-6551-4F78-B0D4-5EDB31380685text_name" font-size="12" x="164.609375" y="166" oryx:edgePosition="startTop" stroke-width="0pt" letter-spacing="-0.01px" fill="#000000" text-anchor="start" transform="rotate(360 150.609375 180)" visibility="inherit" oryx:fontSize="12"/></g><g class="children" style="overflow:hidden"/><g class="edge"/></g><g class="controls"><g class="dockers"/><g class="magnets"/></g></g><g id="_2E39F552-B74F-446A-9A0A-02FB51BAC5E0" bpmn2nodeid="_DDED8659-760C-474D-9811-0C22FA461AEF"><g class="stencils"><g class="me"><g pointer-events="painted" bpmn2nodeid="_49235267-05B5-4FA4-B98F-8D6F049C529F"><path id="_2E39F552-B74F-446A-9A0A-02FB51BAC5E0_1" d="M295.84375 180L339.15625 180 " stroke="#000000" fill="none" stroke-width="2" stroke-linecap="round" stroke-linejoin="round" marker-start="url(#_2E39F552-B74F-446A-9A0A-02FB51BAC5E0start)" marker-end="url(#_2E39F552-B74F-446A-9A0A-02FB51BAC5E0end)"/></g><text id="_2E39F552-B74F-446A-9A0A-02FB51BAC5E0text_name" font-size="12" x="309.84375" y="166" oryx:edgePosition="startTop" stroke-width="0pt" letter-spacing="-0.01px" fill="#000000" text-anchor="start" transform="rotate(360 295.84375 180)" visibility="inherit" oryx:fontSize="12"/></g><g class="children" style="overflow:hidden"/><g class="edge"/></g><g class="controls"><g class="dockers"/><g class="magnets"/></g></g><g id="_2DA137AE-F300-4C08-AB0B-2FB3D169D4B8" bpmn2nodeid="_5678D8A2-BB16-4C20-B137-328CCD1233C7"><g class="stencils"><g class="me"><g pointer-events="painted" bpmn2nodeid="_06798957-18BD-40A3-B178-951873924925"><path id="_2DA137AE-F300-4C08-AB0B-2FB3D169D4B8_1" d="M440.5 180L471.5 180 " stroke="#000000" fill="none" stroke-width="2" stroke-linecap="round" stroke-linejoin="round" marker-start="url(#_2DA137AE-F300-4C08-AB0B-2FB3D169D4B8start)" marker-end="url(#_2DA137AE-F300-4C08-AB0B-2FB3D169D4B8end)"/></g><text id="_2DA137AE-F300-4C08-AB0B-2FB3D169D4B8text_name" font-size="12" x="454.5" y="166" oryx:edgePosition="startTop" stroke-width="0pt" letter-spacing="-0.01px" fill="#000000" text-anchor="start" transform="rotate(360 440.5 180)" visibility="inherit" oryx:fontSize="12"/></g><g class="children" style="overflow:hidden"/><g class="edge"/></g><g class="controls"><g class="dockers"/><g class="magnets"/></g></g><g id="_98975BB2-46C8-458A-B448-E2EB0D90E38D" bpmn2nodeid="_BD7F7F77-911F-4AC8-A12B-FCD73FDB524A"><g class="stencils"><g class="me"><g pointer-events="painted" bpmn2nodeid="_F7A29E5B-E2DB-4711-8FA3-93C424BAE879"><path id="_98975BB2-46C8-458A-B448-E2EB0D90E38D_1" d="M572.390625 180L616.375 180 " stroke="#000000" fill="none" stroke-width="2" stroke-linecap="round" stroke-linejoin="round" marker-start="url(#_98975BB2-46C8-458A-B448-E2EB0D90E38Dstart)" marker-end="url(#_98975BB2-46C8-458A-B448-E2EB0D90E38Dend)"/></g><text id="_98975BB2-46C8-458A-B448-E2EB0D90E38Dtext_name" font-size="12" x="586.390625" y="166" oryx:edgePosition="startTop" stroke-width="0pt" letter-spacing="-0.01px" fill="#000000" text-anchor="start" transform="rotate(360 572.390625 180)" visibility="inherit" oryx:fontSize="12"/></g><g class="children" style="overflow:hidden"/><g class="edge"/></g><g class="controls"><g class="dockers"/><g class="magnets"/></g></g></g><text id="_90AFDEE7-4651-452A-9BC9-B0F278B7CF4F" style="stroke-width:1;fill:rgb(177,194,214);font-family:arial;font-weight:bold" font-size="12" onclick="ORYX.Plugins.CanvasTitle.openTextualAnalysis()" onmouseover="ORYX.Plugins.CanvasTitle.addToolTip('_90AFDEE7-4651-452A-9BC9-B0F278B7CF4F')" transform="translate(10, 20)">new v.1.0 (New.new)</text><text id="_90AFDEE7-4651-452A-9BC9-B0F278B7CF4F" style="stroke-width:1;fill:rgb(177,194,214);font-family:arial;font-weight:bold" font-size="12" onclick="ORYX.Plugins.CanvasTitle.openTextualAnalysis()" onmouseover="ORYX.Plugins.CanvasTitle.addToolTip('_90AFDEE7-4651-452A-9BC9-B0F278B7CF4F')" transform="translate(10, 20)">new v.1.0 (New.new)</text></g></g></svg>