<svg xmlns="http://www.w3.org/2000/svg" xmlns:oryx="http://oryx-editor.org" id="_089CC988-30B6-41C1-8C94-531424D2709A" width="686" height="265" xmlns:xlink="http://www.w3.org/1999/xlink" xmlns:svg="http://www.w3.org/2000/svg"><defs><marker id="_8D74AF05-77FD-4869-9E4D-A3161A847BE1start" refX="1" refY="5" markerUnits="userSpaceOnUse" markerWidth="17" markerHeight="11" orient="auto" fill="#000000" stroke="#000000"> 	  		<path id="_8D74AF05-77FD-4869-9E4D-A3161A847BE1conditional" d="M 0 5 L 8 0 L 16 5 L 8 10 L 0 5" fill="white" stroke="#000000" stroke-width="1" display="none"/> 			<path id="_8D74AF05-77FD-4869-9E4D-A3161A847BE1default" d="M 5 0 L 11 10" fill="white" stroke="#000000" stroke-width="1" display="none"/> 	  	</marker><marker id="_8D74AF05-77FD-4869-9E4D-A3161A847BE1end" refX="15" refY="6" markerUnits="userSpaceOnUse" markerWidth="15" markerHeight="12" orient="auto" fill="#000000" stroke="#000000"> 	  		<path id="_8D74AF05-77FD-4869-9E4D-A3161A847BE1frame2" d="M 0 1 L 15 6 L 0 11z" fill="#000000" stroke="#000000" stroke-linejoin="round" stroke-width="2"/> 	  	</marker><marker id="_78564CA4-B179-4E6E-808A-AC7121365DB0start" refX="1" refY="5" markerUnits="userSpaceOnUse" markerWidth="17" markerHeight="11" orient="auto" fill="#000000" stroke="#000000"> 	  		<path id="_78564CA4-B179-4E6E-808A-AC7121365DB0conditional" d="M 0 5 L 8 0 L 16 5 L 8 10 L 0 5" fill="white" stroke="#000000" stroke-width="1" display="none"/> 			<path id="_78564CA4-B179-4E6E-808A-AC7121365DB0default" d="M 5 0 L 11 10" fill="white" stroke="#000000" stroke-width="1" display="none"/> 	  	</marker><marker id="_78564CA4-B179-4E6E-808A-AC7121365DB0end" refX="15" refY="6" markerUnits="userSpaceOnUse" markerWidth="15" markerHeight="12" orient="auto" fill="#000000" stroke="#000000"> 	  		<path id="_78564CA4-B179-4E6E-808A-AC7121365DB0frame2" d="M 0 1 L 15 6 L 0 11z" fill="#000000" stroke="#000000" stroke-linejoin="round" stroke-width="2"/> 	  	</marker><marker id="_5A8C9997-39F8-4256-94AD-AD74D9959E9Astart" refX="1" refY="5" markerUnits="userSpaceOnUse" markerWidth="17" markerHeight="11" orient="auto" fill="#000000" stroke="#000000"> 	  		<path id="_5A8C9997-39F8-4256-94AD-AD74D9959E9Aconditional" d="M 0 5 L 8 0 L 16 5 L 8 10 L 0 5" fill="white" stroke="#000000" stroke-width="1" display="none"/> 			<path id="_5A8C9997-39F8-4256-94AD-AD74D9959E9Adefault" d="M 5 0 L 11 10" fill="white" stroke="#000000" stroke-width="1" display="none"/> 	  	</marker><marker id="_5A8C9997-39F8-4256-94AD-AD74D9959E9Aend" refX="15" refY="6" markerUnits="userSpaceOnUse" markerWidth="15" markerHeight="12" orient="auto" fill="#000000" stroke="#000000"> 	  		<path id="_5A8C9997-39F8-4256-94AD-AD74D9959E9Aframe2" d="M 0 1 L 15 6 L 0 11z" fill="#000000" stroke="#000000" stroke-linejoin="round" stroke-width="2"/> 	  	</marker><marker id="_F1ACA06A-FFE1-478F-AA21-E1E1D02475E5start" refX="1" refY="5" markerUnits="userSpaceOnUse" markerWidth="17" markerHeight="11" orient="auto" fill="#000000" stroke="#000000"> 	  		<path id="_F1ACA06A-FFE1-478F-AA21-E1E1D02475E5conditional" d="M 0 5 L 8 0 L 16 5 L 8 10 L 0 5" fill="white" stroke="#000000" stroke-width="1" display="none"/> 			<path id="_F1ACA06A-FFE1-478F-AA21-E1E1D02475E5default" d="M 5 0 L 11 10" fill="white" stroke="#000000" stroke-width="1" display="none"/> 	  	</marker><marker id="_F1ACA06A-FFE1-478F-AA21-E1E1D02475E5end" refX="15" refY="6" markerUnits="userSpaceOnUse" markerWidth="15" markerHeight="12" orient="auto" fill="#000000" stroke="#000000"> 	  		<path id="_F1ACA06A-FFE1-478F-AA21-E1E1D02475E5frame2" d="M 0 1 L 15 6 L 0 11z" fill="#000000" stroke="#000000" stroke-linejoin="round" stroke-width="2"/> 	  	</marker></defs><g stroke="none" font-family="Verdana, sans-serif" font-size-adjust="none" font-style="normal" font-variant="normal" font-weight="normal" line-heigth="normal" font-size="12"><g class="stencils" transform="translate(16, 16)"><g class="me"/><g class="children"><g id="_4D80DA82-2938-4EF0-8E7A-E194CE8F821F" bpmn2nodeid="processStartEvent"><g class="stencils" transform="translate(120, 165)"><g class="me"><g pointer-events="fill" id="_4D80DA82-2938-4EF0-8E7A-E194CE8F821F">        <defs id="_4D80DA82-2938-4EF0-8E7A-E194CE8F821F__4D80DA82-2938-4EF0-8E7A-E194CE8F821F_5"> 		<radialGradient id="_4D80DA82-2938-4EF0-8E7A-E194CE8F821Fbackground" cx="10%" cy="10%" r="100%" fx="10%" fy="10%"> 			<stop offset="0%" stop-color="#ffffff" stop-opacity="1" id="_4D80DA82-2938-4EF0-8E7A-E194CE8F821F__4D80DA82-2938-4EF0-8E7A-E194CE8F821F_6"/> 			<stop id="_4D80DA82-2938-4EF0-8E7A-E194CE8F821Ffill_el" offset="100%" stop-color="#9acd32" stop-opacity="1"/> 		</radialGradient> 	</defs> 	     <circle id="_4D80DA82-2938-4EF0-8E7A-E194CE8F821Fbg_frame" cx="15" cy="15" r="15" stroke="#000000" fill="url(#_4D80DA82-2938-4EF0-8E7A-E194CE8F821Fbackground) white" stroke-width="1" style="stroke-dasharray: 5.5, 3"/>      <circle id="_4D80DA82-2938-4EF0-8E7A-E194CE8F821Fframe" cx="15" cy="15" r="15" stroke="#000000" fill="none" stroke-width="1" display="inherit"/>  	<text font-size="11" id="_4D80DA82-2938-4EF0-8E7A-E194CE8F821Ftext_name" x="15" y="32" oryx:align="top center" stroke="black" stroke-width="0pt" letter-spacing="-0.01px" fill="#000000" text-anchor="middle" transform="rotate(0 15 32)" visibility="inherit" oryx:fontSize="11"/>   </g></g><g class="children" style="overflow:hidden"/><g class="edge"/></g><g class="controls"><g class="dockers"/><g class="magnets" transform="translate(120, 165)"><g pointer-events="all" display="none" transform="translate(7, 7)"><circle cx="8" cy="8" r="4" stroke="none" fill="red" fill-opacity="0.3"/></g></g></g></g><g id="_69726B19-1C30-433C-8F6B-3AEC638D77DC" bpmn2nodeid="_A50D67F8-8734-487C-8F93-637ADE1EB76C"><g class="stencils" transform="translate(195, 140)"><g class="me"><g pointer-events="fill" oryx:minimumSize="50 40" id="_69726B19-1C30-433C-8F6B-3AEC638D77DC">   	<defs id="_69726B19-1C30-433C-8F6B-3AEC638D77DC__69726B19-1C30-433C-8F6B-3AEC638D77DC_17"> 		<radialGradient id="_69726B19-1C30-433C-8F6B-3AEC638D77DCbackground" cx="10%" cy="10%" r="100%" fx="10%" fy="10%"> 			<stop offset="0%" stop-color="#ffffff" stop-opacity="1" id="_69726B19-1C30-433C-8F6B-3AEC638D77DC__69726B19-1C30-433C-8F6B-3AEC638D77DC_18"/> 			<stop id="_69726B19-1C30-433C-8F6B-3AEC638D77DCfill_el" offset="100%" stop-color="#fafad2" stop-opacity="1"/> 		</radialGradient> 		<radialGradient id="_69726B19-1C30-433C-8F6B-3AEC638D77DCborderbackground" cx="10%" cy="10%" r="100%" fx="10%" fy="10%"> 			<stop offset="0%" stop-color="#ffffff" stop-opacity="1" id="_69726B19-1C30-433C-8F6B-3AEC638D77DC__69726B19-1C30-433C-8F6B-3AEC638D77DC_19"/> 			<stop id="_69726B19-1C30-433C-8F6B-3AEC638D77DCfill_border" offset="100%" stop-color="#000000" stop-opacity="1" stroke="#000000"/> 		</radialGradient> 	</defs> 	 	<rect id="_69726B19-1C30-433C-8F6B-3AEC638D77DCtext_frame" oryx:anchors="bottom top right left" x="1" y="1" width="94" height="79" rx="10" ry="10" stroke="none" stroke-width="0" fill="none"/> 	<rect id="_69726B19-1C30-433C-8F6B-3AEC638D77DCbg_frame" oryx:resize="vertical horizontal" x="0" y="0" width="100" height="80" rx="10" ry="10" stroke="#000000" stroke-width="1" fill="url(#_69726B19-1C30-433C-8F6B-3AEC638D77DCbackground) #ffffcc"/> 		<text font-size="12" id="_69726B19-1C30-433C-8F6B-3AEC638D77DCtext_name" x="50" y="40" oryx:align="middle center" oryx:fittoelem="text_frame" stroke="black" text-anchor="middle" stroke-width="0pt" letter-spacing="-0.01px" fill="#000000" transform="rotate(0 50 40)" visibility="inherit" oryx:fontSize="12"><tspan x="50" y="40" dy="5">task1</tspan></text>     <g id="_69726B19-1C30-433C-8F6B-3AEC638D77DCmanualTask" transform="scale(0.7,0.7) translate(8,8)" display="none">     	<path oryx:anchors="top left" id="_69726B19-1C30-433C-8F6B-3AEC638D77DCframe" style="opacity:1;fill:none;fill-opacity:1;stroke-width:1" d="M0.5,3.751l4.083-3.25c0,0,11.166,0.083,12.083,0.083s-2.417,2.917-1.5,2.917     s11.667,0,12.584,0c1.166,1.708-0.168,3.167-0.834,3.667s0.875,1.917-1,4.417c-0.75,0.25,0.75,1.875-1.333,3.333     c-1.167,0.583,0.583,1.542-1.25,2.833c-1.167,0-20.833,0.083-20.833,0.083l-2-1.333V3.751z" stroke="#000000"/> 		<path id="_69726B19-1C30-433C-8F6B-3AEC638D77DCframe2" oryx:anchors="top left" style="opacity:1;fill:none;stroke-width:2" d="M 13.5 7 L 27 7" stroke="#000000"/> 		<path id="_69726B19-1C30-433C-8F6B-3AEC638D77DCframe3" oryx:anchors="top left" style="opacity:1;fill:none;stroke-width:2" d="M 13.5 11 L 26 11" stroke="#000000"/> 		<path id="_69726B19-1C30-433C-8F6B-3AEC638D77DCframe4" oryx:anchors="top left" style="opacity:1;fill:none;stroke-width:1.5" d="M 14 14.5 L 25 14.5" stroke="#000000"/> 		<path id="_69726B19-1C30-433C-8F6B-3AEC638D77DCframe5" oryx:anchors="top left" style="opacity:1;fill:none;stroke-width:1.5" d="M 8.2 3.1 L 15 3.1" stroke="#000000"/> 	</g> 	 	<g id="_69726B19-1C30-433C-8F6B-3AEC638D77DCbusinessRuleTask" transform="scale(0.7,0.7) translate(8,8)" display="none"> 		<rect id="_69726B19-1C30-433C-8F6B-3AEC638D77DCframe6" oryx:anchors="top left" x="0" y="0" width="22" height="4" style="opacity:1;fill:#B3B1B3;fill-opacity:1;" stroke="#000000"/> 		<rect id="_69726B19-1C30-433C-8F6B-3AEC638D77DCframe7" oryx:anchors="top left" x="0" y="4" style="opacity:1;fill:none;" width="22" height="12" stroke="#000000"/> 		<path id="_69726B19-1C30-433C-8F6B-3AEC638D77DCframe8" oryx:anchors="top left" style="opacity:1;fill:none;" d="M 0 10 L 22 10" stroke="#000000"/> 		<path id="_69726B19-1C30-433C-8F6B-3AEC638D77DCframe9" oryx:anchors="top left" style="opacity:1; fill:none;" d="M 7 4 L 7 16" stroke="#000000"/> 	</g> 	 	<g id="_69726B19-1C30-433C-8F6B-3AEC638D77DCscriptTask" transform="scale(0.7,0.7) translate(8,8)" display="none"> 		<path oryx:anchors="top left" id="_69726B19-1C30-433C-8F6B-3AEC638D77DCframe10" style="opacity:1;fill:none;" stroke="#000000" d="M6.402,0.5h14.5c0,0-5.833,2.833-5.833,5.583s4.417,6,4.417,9.167    s-4.167,5.083-4.167,5.083H0.235c0,0,5-2.667,5-5s-4.583-6.75-4.583-9.25S6.402,0.5,6.402,0.5z"/> 		<path oryx:anchors="top left" id="_69726B19-1C30-433C-8F6B-3AEC638D77DCframe11" style="opacity:1;fill:none;stroke-width:1.5" d="M 3.5 4.5 L 13.5 4.5" stroke="#000000"/> 		<path oryx:anchors="top left" id="_69726B19-1C30-433C-8F6B-3AEC638D77DCframe12" style="opacity:1;fill:none;stroke-width:1.5" d="M 3.8 8.5 L 13.8 8.5" stroke="#000000"/> 		<path oryx:anchors="top left" id="_69726B19-1C30-433C-8F6B-3AEC638D77DCframe13" style="opacity:1;fill:none;stroke-width:1.5" d="M 6.3 12.5 L 16.3 12.5" stroke="#000000"/> 		<path oryx:anchors="top left" id="_69726B19-1C30-433C-8F6B-3AEC638D77DCframe14" style="opacity:1;fill:none;stroke-width:1.5" d="M 6.5 16.5 L 16.5 16.5" stroke="#000000"/> 	</g> 	 	<g id="_69726B19-1C30-433C-8F6B-3AEC638D77DCuserTask" transform="scale(0.7,0.7) translate(8,8)" display="inherit"> 		<path id="_69726B19-1C30-433C-8F6B-3AEC638D77DCframe15" oryx:anchors="top left" style="opacity:1;fill:#F4F6F7" stroke="#000000" d="M0.585,24.167h24.083v-7.833c0,0-2.333-3.917-7.083-5.167h-9.25    c-4.417,1.333-7.833,5.75-7.833,5.75L0.585,24.167z"/> 		<path id="_69726B19-1C30-433C-8F6B-3AEC638D77DCframe16" oryx:anchors="top left" style="opacity:1;fill:none" d="M 6 20 L 6 24" stroke="#000000"/> 		<path id="_69726B19-1C30-433C-8F6B-3AEC638D77DCframe17" oryx:anchors="top left" style="opacity:1;fill:none" d="M 20 20 L 20 24" stroke="#000000"/> 		<circle id="_69726B19-1C30-433C-8F6B-3AEC638D77DCframe18" oryx:anchors="top left" fill="black" cx="13.002" cy="5.916" r="5.417" stroke="#000000"/> 		<path id="_69726B19-1C30-433C-8F6B-3AEC638D77DCframe19" oryx:anchors="top left" style="opacity:1;fill:#F0EFF0;" stroke="#000000" d="M8.043,7.083c0,0,2.814-2.426,5.376-1.807s4.624-0.693,4.624-0.693    c0.25,1.688,0.042,3.75-1.458,5.584c0,0,1.083,0.75,1.083,1.5s0.125,1.875-1,3s-5.5,1.25-6.75,0S8.668,12.834,8.668,12    s0.583-1.25,1.25-1.917C8.835,9.5,7.419,7.708,8.043,7.083z"/> 	</g> 	 	<g id="_69726B19-1C30-433C-8F6B-3AEC638D77DCserviceTask" transform="scale(0.7,0.7) translate(8,8)" display="none"> 		<polygon oryx:anchors="top left" id="_69726B19-1C30-433C-8F6B-3AEC638D77DCframe20" style="opacity:1;fill:#ffffff" stroke="#000000" points="15.392,5.064 17.954,2.502 20.347,4.895 17.786,7.455     18.729,9.732 22.353,9.732 22.353,13.115 18.731,13.115 17.788,15.392 20.351,17.955 17.958,20.347 15.397,17.786 13.12,18.729     13.12,22.353 9.737,22.353 9.737,18.731 7.46,17.788 4.897,20.35 2.506,17.958 5.066,15.397 4.124,13.12 0.5,13.12 0.5,9.737     4.121,9.737 5.065,7.461 2.503,4.898 4.895,2.506 7.455,5.066 9.732,4.125 9.732,0.5 13.116,0.5 13.116,4.121 "/> 		<circle oryx:anchors="top left" id="_69726B19-1C30-433C-8F6B-3AEC638D77DCframe21" style="opacity:1;fill:none" stroke="#000000" cx="11.427" cy="11.426" r="3.714"/> 		<polygon oryx:anchors="top left" id="_69726B19-1C30-433C-8F6B-3AEC638D77DCframe22" style="opacity:1;fill:#ffffff" stroke="#000000" points="21.392,11.064 23.954,8.502 26.347,10.895 23.786,13.455     24.729,15.732 28.353,15.732 28.353,19.115 24.731,19.115 23.788,21.392 26.351,23.955 23.958,26.347 21.397,23.786 19.12,24.729     19.12,28.353 15.737,28.353 15.737,24.731 13.46,23.788 10.897,26.35 8.506,23.958 11.066,21.397 10.124,19.12 6.5,19.12     6.5,15.737 10.121,15.737 11.065,13.461 8.503,10.898 10.895,8.506 13.455,11.066 15.732,10.125 15.732,6.5 19.116,6.5     19.116,10.121 "/> 		<circle oryx:anchors="top left" id="_69726B19-1C30-433C-8F6B-3AEC638D77DCframe23" style="opacity:1;fill:none;" stroke="#000000" cx="17.427" cy="17.426" r="3.714"/> 	</g> 	 	<g id="_69726B19-1C30-433C-8F6B-3AEC638D77DCsendTask" display="none"> 		<path id="_69726B19-1C30-433C-8F6B-3AEC638D77DCstframe24" oryx:anchors="left top" stroke="#FFFFFF" fill="black" stroke-width="1" d="M8,11 L8,21 L24,21 L24,11 L16,17z"/> 		<path id="_69726B19-1C30-433C-8F6B-3AEC638D77DCstframe25" oryx:anchors="left top" stroke="#FFFFFF" fill="black" stroke-width="1" d="M7,10 L16,17 L25 10z"/> 	</g> 	 	<g id="_69726B19-1C30-433C-8F6B-3AEC638D77DCreceiveTask" display="none"> 		<path id="_69726B19-1C30-433C-8F6B-3AEC638D77DCframe26" oryx:anchors="left top" stroke="#000000" fill="none" stroke-width="1" d="M8,11 L8,21 L24,21 L24,11z M8,11 L16,17 L24,11"/> 	</g> 	 	<g id="_69726B19-1C30-433C-8F6B-3AEC638D77DCnone" display="inherit"/>  	<g id="_69726B19-1C30-433C-8F6B-3AEC638D77DCsequential" display="none">         <path oryx:anchors="bottom" fill="none" stroke="#000000" stroke-width="2" d="M46,76h10M46,72h10 M46,68h10" id="_69726B19-1C30-433C-8F6B-3AEC638D77DC__69726B19-1C30-433C-8F6B-3AEC638D77DC_20"/>     </g>   </g></g><g class="children" style="overflow:hidden"/><g class="edge"/></g><g class="controls"><g class="dockers"/><g class="magnets" transform="translate(195, 140)"><g pointer-events="all" display="none" transform="translate(-7, 12)"><circle cx="8" cy="8" r="4" stroke="none" fill="red" fill-opacity="0.3"/></g><g pointer-events="all" display="none" transform="translate(-7, 32)"><circle cx="8" cy="8" r="4" stroke="none" fill="red" fill-opacity="0.3"/></g><g pointer-events="all" display="none" transform="translate(-7, 52)"><circle cx="8" cy="8" r="4" stroke="none" fill="red" fill-opacity="0.3"/></g><g pointer-events="all" display="none" transform="translate(17, 71)"><circle cx="8" cy="8" r="4" stroke="none" fill="red" fill-opacity="0.3"/></g><g pointer-events="all" display="none" transform="translate(42, 71)"><circle cx="8" cy="8" r="4" stroke="none" fill="red" fill-opacity="0.3"/></g><g pointer-events="all" display="none" transform="translate(67, 71)"><circle cx="8" cy="8" r="4" stroke="none" fill="red" fill-opacity="0.3"/></g><g pointer-events="all" display="none" transform="translate(91, 12)"><circle cx="8" cy="8" r="4" stroke="none" fill="red" fill-opacity="0.3"/></g><g pointer-events="all" display="none" transform="translate(91, 32)"><circle cx="8" cy="8" r="4" stroke="none" fill="red" fill-opacity="0.3"/></g><g pointer-events="all" display="none" transform="translate(91, 52)"><circle cx="8" cy="8" r="4" stroke="none" fill="red" fill-opacity="0.3"/></g><g pointer-events="all" display="none" transform="translate(17, -7)"><circle cx="8" cy="8" r="4" stroke="none" fill="red" fill-opacity="0.3"/></g><g pointer-events="all" display="none" transform="translate(42, -7)"><circle cx="8" cy="8" r="4" stroke="none" fill="red" fill-opacity="0.3"/></g><g pointer-events="all" display="none" transform="translate(67, -7)"><circle cx="8" cy="8" r="4" stroke="none" fill="red" fill-opacity="0.3"/></g><g pointer-events="all" display="none" transform="translate(42, 32)"><circle cx="8" cy="8" r="4" stroke="none" fill="red" fill-opacity="0.3"/></g></g></g></g><g id="_135F1D59-5F87-4D91-A847-61CCCA60A041" bpmn2nodeid="_1EA3600A-796C-4BB1-86E0-915109C64219"><g class="stencils" transform="translate(340, 140)"><g class="me"><g pointer-events="fill" oryx:minimumSize="50 40" id="_135F1D59-5F87-4D91-A847-61CCCA60A041">   	<defs id="_135F1D59-5F87-4D91-A847-61CCCA60A041__135F1D59-5F87-4D91-A847-61CCCA60A041_17"> 		<radialGradient id="_135F1D59-5F87-4D91-A847-61CCCA60A041background" cx="10%" cy="10%" r="100%" fx="10%" fy="10%"> 			<stop offset="0%" stop-color="#ffffff" stop-opacity="1" id="_135F1D59-5F87-4D91-A847-61CCCA60A041__135F1D59-5F87-4D91-A847-61CCCA60A041_18"/> 			<stop id="_135F1D59-5F87-4D91-A847-61CCCA60A041fill_el" offset="100%" stop-color="#fafad2" stop-opacity="1"/> 		</radialGradient> 		<radialGradient id="_135F1D59-5F87-4D91-A847-61CCCA60A041borderbackground" cx="10%" cy="10%" r="100%" fx="10%" fy="10%"> 			<stop offset="0%" stop-color="#ffffff" stop-opacity="1" id="_135F1D59-5F87-4D91-A847-61CCCA60A041__135F1D59-5F87-4D91-A847-61CCCA60A041_19"/> 			<stop id="_135F1D59-5F87-4D91-A847-61CCCA60A041fill_border" offset="100%" stop-color="#000000" stop-opacity="1" stroke="#000000"/> 		</radialGradient> 	</defs> 	 	<rect id="_135F1D59-5F87-4D91-A847-61CCCA60A041text_frame" oryx:anchors="bottom top right left" x="1" y="1" width="94" height="79" rx="10" ry="10" stroke="none" stroke-width="0" fill="none"/> 	<rect id="_135F1D59-5F87-4D91-A847-61CCCA60A041bg_frame" oryx:resize="vertical horizontal" x="0" y="0" width="100" height="80" rx="10" ry="10" stroke="#000000" stroke-width="1" fill="url(#_135F1D59-5F87-4D91-A847-61CCCA60A041background) #ffffcc"/> 		<text font-size="12" id="_135F1D59-5F87-4D91-A847-61CCCA60A041text_name" x="50" y="40" oryx:align="middle center" oryx:fittoelem="text_frame" stroke="black" text-anchor="middle" stroke-width="0pt" letter-spacing="-0.01px" fill="#000000" transform="rotate(0 50 40)" visibility="inherit" oryx:fontSize="12"><tspan x="50" y="40" dy="5">task2</tspan></text>     <g id="_135F1D59-5F87-4D91-A847-61CCCA60A041manualTask" transform="scale(0.7,0.7) translate(8,8)" display="none">     	<path oryx:anchors="top left" id="_135F1D59-5F87-4D91-A847-61CCCA60A041frame" style="opacity:1;fill:none;fill-opacity:1;stroke-width:1" d="M0.5,3.751l4.083-3.25c0,0,11.166,0.083,12.083,0.083s-2.417,2.917-1.5,2.917     s11.667,0,12.584,0c1.166,1.708-0.168,3.167-0.834,3.667s0.875,1.917-1,4.417c-0.75,0.25,0.75,1.875-1.333,3.333     c-1.167,0.583,0.583,1.542-1.25,2.833c-1.167,0-20.833,0.083-20.833,0.083l-2-1.333V3.751z" stroke="#000000"/> 		<path id="_135F1D59-5F87-4D91-A847-61CCCA60A041frame2" oryx:anchors="top left" style="opacity:1;fill:none;stroke-width:2" d="M 13.5 7 L 27 7" stroke="#000000"/> 		<path id="_135F1D59-5F87-4D91-A847-61CCCA60A041frame3" oryx:anchors="top left" style="opacity:1;fill:none;stroke-width:2" d="M 13.5 11 L 26 11" stroke="#000000"/> 		<path id="_135F1D59-5F87-4D91-A847-61CCCA60A041frame4" oryx:anchors="top left" style="opacity:1;fill:none;stroke-width:1.5" d="M 14 14.5 L 25 14.5" stroke="#000000"/> 		<path id="_135F1D59-5F87-4D91-A847-61CCCA60A041frame5" oryx:anchors="top left" style="opacity:1;fill:none;stroke-width:1.5" d="M 8.2 3.1 L 15 3.1" stroke="#000000"/> 	</g> 	 	<g id="_135F1D59-5F87-4D91-A847-61CCCA60A041businessRuleTask" transform="scale(0.7,0.7) translate(8,8)" display="none"> 		<rect id="_135F1D59-5F87-4D91-A847-61CCCA60A041frame6" oryx:anchors="top left" x="0" y="0" width="22" height="4" style="opacity:1;fill:#B3B1B3;fill-opacity:1;" stroke="#000000"/> 		<rect id="_135F1D59-5F87-4D91-A847-61CCCA60A041frame7" oryx:anchors="top left" x="0" y="4" style="opacity:1;fill:none;" width="22" height="12" stroke="#000000"/> 		<path id="_135F1D59-5F87-4D91-A847-61CCCA60A041frame8" oryx:anchors="top left" style="opacity:1;fill:none;" d="M 0 10 L 22 10" stroke="#000000"/> 		<path id="_135F1D59-5F87-4D91-A847-61CCCA60A041frame9" oryx:anchors="top left" style="opacity:1; fill:none;" d="M 7 4 L 7 16" stroke="#000000"/> 	</g> 	 	<g id="_135F1D59-5F87-4D91-A847-61CCCA60A041scriptTask" transform="scale(0.7,0.7) translate(8,8)" display="inherit"> 		<path oryx:anchors="top left" id="_135F1D59-5F87-4D91-A847-61CCCA60A041frame10" style="opacity:1;fill:none;" stroke="#000000" d="M6.402,0.5h14.5c0,0-5.833,2.833-5.833,5.583s4.417,6,4.417,9.167    s-4.167,5.083-4.167,5.083H0.235c0,0,5-2.667,5-5s-4.583-6.75-4.583-9.25S6.402,0.5,6.402,0.5z"/> 		<path oryx:anchors="top left" id="_135F1D59-5F87-4D91-A847-61CCCA60A041frame11" style="opacity:1;fill:none;stroke-width:1.5" d="M 3.5 4.5 L 13.5 4.5" stroke="#000000"/> 		<path oryx:anchors="top left" id="_135F1D59-5F87-4D91-A847-61CCCA60A041frame12" style="opacity:1;fill:none;stroke-width:1.5" d="M 3.8 8.5 L 13.8 8.5" stroke="#000000"/> 		<path oryx:anchors="top left" id="_135F1D59-5F87-4D91-A847-61CCCA60A041frame13" style="opacity:1;fill:none;stroke-width:1.5" d="M 6.3 12.5 L 16.3 12.5" stroke="#000000"/> 		<path oryx:anchors="top left" id="_135F1D59-5F87-4D91-A847-61CCCA60A041frame14" style="opacity:1;fill:none;stroke-width:1.5" d="M 6.5 16.5 L 16.5 16.5" stroke="#000000"/> 	</g> 	 	<g id="_135F1D59-5F87-4D91-A847-61CCCA60A041userTask" transform="scale(0.7,0.7) translate(8,8)" display="none"> 		<path id="_135F1D59-5F87-4D91-A847-61CCCA60A041frame15" oryx:anchors="top left" style="opacity:1;fill:#F4F6F7" stroke="#000000" d="M0.585,24.167h24.083v-7.833c0,0-2.333-3.917-7.083-5.167h-9.25    c-4.417,1.333-7.833,5.75-7.833,5.75L0.585,24.167z"/> 		<path id="_135F1D59-5F87-4D91-A847-61CCCA60A041frame16" oryx:anchors="top left" style="opacity:1;fill:none" d="M 6 20 L 6 24" stroke="#000000"/> 		<path id="_135F1D59-5F87-4D91-A847-61CCCA60A041frame17" oryx:anchors="top left" style="opacity:1;fill:none" d="M 20 20 L 20 24" stroke="#000000"/> 		<circle id="_135F1D59-5F87-4D91-A847-61CCCA60A041frame18" oryx:anchors="top left" fill="black" cx="13.002" cy="5.916" r="5.417" stroke="#000000"/> 		<path id="_135F1D59-5F87-4D91-A847-61CCCA60A041frame19" oryx:anchors="top left" style="opacity:1;fill:#F0EFF0;" stroke="#000000" d="M8.043,7.083c0,0,2.814-2.426,5.376-1.807s4.624-0.693,4.624-0.693    c0.25,1.688,0.042,3.75-1.458,5.584c0,0,1.083,0.75,1.083,1.5s0.125,1.875-1,3s-5.5,1.25-6.75,0S8.668,12.834,8.668,12    s0.583-1.25,1.25-1.917C8.835,9.5,7.419,7.708,8.043,7.083z"/> 	</g> 	 	<g id="_135F1D59-5F87-4D91-A847-61CCCA60A041serviceTask" transform="scale(0.7,0.7) translate(8,8)" display="none"> 		<polygon oryx:anchors="top left" id="_135F1D59-5F87-4D91-A847-61CCCA60A041frame20" style="opacity:1;fill:#ffffff" stroke="#000000" points="15.392,5.064 17.954,2.502 20.347,4.895 17.786,7.455     18.729,9.732 22.353,9.732 22.353,13.115 18.731,13.115 17.788,15.392 20.351,17.955 17.958,20.347 15.397,17.786 13.12,18.729     13.12,22.353 9.737,22.353 9.737,18.731 7.46,17.788 4.897,20.35 2.506,17.958 5.066,15.397 4.124,13.12 0.5,13.12 0.5,9.737     4.121,9.737 5.065,7.461 2.503,4.898 4.895,2.506 7.455,5.066 9.732,4.125 9.732,0.5 13.116,0.5 13.116,4.121 "/> 		<circle oryx:anchors="top left" id="_135F1D59-5F87-4D91-A847-61CCCA60A041frame21" style="opacity:1;fill:none" stroke="#000000" cx="11.427" cy="11.426" r="3.714"/> 		<polygon oryx:anchors="top left" id="_135F1D59-5F87-4D91-A847-61CCCA60A041frame22" style="opacity:1;fill:#ffffff" stroke="#000000" points="21.392,11.064 23.954,8.502 26.347,10.895 23.786,13.455     24.729,15.732 28.353,15.732 28.353,19.115 24.731,19.115 23.788,21.392 26.351,23.955 23.958,26.347 21.397,23.786 19.12,24.729     19.12,28.353 15.737,28.353 15.737,24.731 13.46,23.788 10.897,26.35 8.506,23.958 11.066,21.397 10.124,19.12 6.5,19.12     6.5,15.737 10.121,15.737 11.065,13.461 8.503,10.898 10.895,8.506 13.455,11.066 15.732,10.125 15.732,6.5 19.116,6.5     19.116,10.121 "/> 		<circle oryx:anchors="top left" id="_135F1D59-5F87-4D91-A847-61CCCA60A041frame23" style="opacity:1;fill:none;" stroke="#000000" cx="17.427" cy="17.426" r="3.714"/> 	</g> 	 	<g id="_135F1D59-5F87-4D91-A847-61CCCA60A041sendTask" display="none"> 		<path id="_135F1D59-5F87-4D91-A847-61CCCA60A041stframe24" oryx:anchors="left top" stroke="#FFFFFF" fill="black" stroke-width="1" d="M8,11 L8,21 L24,21 L24,11 L16,17z"/> 		<path id="_135F1D59-5F87-4D91-A847-61CCCA60A041stframe25" oryx:anchors="left top" stroke="#FFFFFF" fill="black" stroke-width="1" d="M7,10 L16,17 L25 10z"/> 	</g> 	 	<g id="_135F1D59-5F87-4D91-A847-61CCCA60A041receiveTask" display="none"> 		<path id="_135F1D59-5F87-4D91-A847-61CCCA60A041frame26" oryx:anchors="left top" stroke="#000000" fill="none" stroke-width="1" d="M8,11 L8,21 L24,21 L24,11z M8,11 L16,17 L24,11"/> 	</g> 	 	<g id="_135F1D59-5F87-4D91-A847-61CCCA60A041none" display="inherit"/>  	<g id="_135F1D59-5F87-4D91-A847-61CCCA60A041sequential" display="none">         <path oryx:anchors="bottom" fill="none" stroke="#000000" stroke-width="2" d="M46,76h10M46,72h10 M46,68h10" id="_135F1D59-5F87-4D91-A847-61CCCA60A041__135F1D59-5F87-4D91-A847-61CCCA60A041_20"/>     </g>   </g></g><g class="children" style="overflow:hidden"/><g class="edge"/></g><g class="controls"><g class="dockers"/><g class="magnets" transform="translate(340, 140)"><g pointer-events="all" display="none" transform="translate(-7, 12)"><circle cx="8" cy="8" r="4" stroke="none" fill="red" fill-opacity="0.3"/></g><g pointer-events="all" display="none" transform="translate(-7, 32)"><circle cx="8" cy="8" r="4" stroke="none" fill="red" fill-opacity="0.3"/></g><g pointer-events="all" display="none" transform="translate(-7, 52)"><circle cx="8" cy="8" r="4" stroke="none" fill="red" fill-opacity="0.3"/></g><g pointer-events="all" display="none" transform="translate(17, 71)"><circle cx="8" cy="8" r="4" stroke="none" fill="red" fill-opacity="0.3"/></g><g pointer-events="all" display="none" transform="translate(42, 71)"><circle cx="8" cy="8" r="4" stroke="none" fill="red" fill-opacity="0.3"/></g><g pointer-events="all" display="none" transform="translate(67, 71)"><circle cx="8" cy="8" r="4" stroke="none" fill="red" fill-opacity="0.3"/></g><g pointer-events="all" display="none" transform="translate(91, 12)"><circle cx="8" cy="8" r="4" stroke="none" fill="red" fill-opacity="0.3"/></g><g pointer-events="all" display="none" transform="translate(91, 32)"><circle cx="8" cy="8" r="4" stroke="none" fill="red" fill-opacity="0.3"/></g><g pointer-events="all" display="none" transform="translate(91, 52)"><circle cx="8" cy="8" r="4" stroke="none" fill="red" fill-opacity="0.3"/></g><g pointer-events="all" display="none" transform="translate(17, -7)"><circle cx="8" cy="8" r="4" stroke="none" fill="red" fill-opacity="0.3"/></g><g pointer-events="all" display="none" transform="translate(42, -7)"><circle cx="8" cy="8" r="4" stroke="none" fill="red" fill-opacity="0.3"/></g><g pointer-events="all" display="none" transform="translate(67, -7)"><circle cx="8" cy="8" r="4" stroke="none" fill="red" fill-opacity="0.3"/></g><g pointer-events="all" display="none" transform="translate(42, 32)"><circle cx="8" cy="8" r="4" stroke="none" fill="red" fill-opacity="0.3"/></g></g></g></g><g id="_5762C2D4-11A9-4B14-8E9D-B66E3CB60172" bpmn2nodeid="_AC9F5D4F-DECF-4E94-A2A8-4795D4C25DFF"><g class="stencils" transform="translate(472, 140)"><g class="me"><g pointer-events="fill" oryx:minimumSize="50 40" id="_5762C2D4-11A9-4B14-8E9D-B66E3CB60172">   	<defs id="_5762C2D4-11A9-4B14-8E9D-B66E3CB60172__5762C2D4-11A9-4B14-8E9D-B66E3CB60172_17"> 		<radialGradient id="_5762C2D4-11A9-4B14-8E9D-B66E3CB60172background" cx="10%" cy="10%" r="100%" fx="10%" fy="10%"> 			<stop offset="0%" stop-color="#ffffff" stop-opacity="1" id="_5762C2D4-11A9-4B14-8E9D-B66E3CB60172__5762C2D4-11A9-4B14-8E9D-B66E3CB60172_18"/> 			<stop id="_5762C2D4-11A9-4B14-8E9D-B66E3CB60172fill_el" offset="100%" stop-color="#fafad2" stop-opacity="1"/> 		</radialGradient> 		<radialGradient id="_5762C2D4-11A9-4B14-8E9D-B66E3CB60172borderbackground" cx="10%" cy="10%" r="100%" fx="10%" fy="10%"> 			<stop offset="0%" stop-color="#ffffff" stop-opacity="1" id="_5762C2D4-11A9-4B14-8E9D-B66E3CB60172__5762C2D4-11A9-4B14-8E9D-B66E3CB60172_19"/> 			<stop id="_5762C2D4-11A9-4B14-8E9D-B66E3CB60172fill_border" offset="100%" stop-color="#000000" stop-opacity="1" stroke="#000000"/> 		</radialGradient> 	</defs> 	 	<rect id="_5762C2D4-11A9-4B14-8E9D-B66E3CB60172text_frame" oryx:anchors="bottom top right left" x="1" y="1" width="94" height="79" rx="10" ry="10" stroke="none" stroke-width="0" fill="none"/> 	<rect id="_5762C2D4-11A9-4B14-8E9D-B66E3CB60172bg_frame" oryx:resize="vertical horizontal" x="0" y="0" width="100" height="80" rx="10" ry="10" stroke="#000000" stroke-width="1" fill="url(#_5762C2D4-11A9-4B14-8E9D-B66E3CB60172background) #ffffcc"/> 		<text font-size="12" id="_5762C2D4-11A9-4B14-8E9D-B66E3CB60172text_name" x="50" y="40" oryx:align="middle center" oryx:fittoelem="text_frame" stroke="black" text-anchor="middle" stroke-width="0pt" letter-spacing="-0.01px" fill="#000000" transform="rotate(0 50 40)" visibility="inherit" oryx:fontSize="12"><tspan x="50" y="40" dy="5" id="ext-gen617">task3</tspan></text>     <g id="_5762C2D4-11A9-4B14-8E9D-B66E3CB60172manualTask" transform="scale(0.7,0.7) translate(8,8)" display="none">     	<path oryx:anchors="top left" id="_5762C2D4-11A9-4B14-8E9D-B66E3CB60172frame" style="opacity:1;fill:none;fill-opacity:1;stroke-width:1" d="M0.5,3.751l4.083-3.25c0,0,11.166,0.083,12.083,0.083s-2.417,2.917-1.5,2.917     s11.667,0,12.584,0c1.166,1.708-0.168,3.167-0.834,3.667s0.875,1.917-1,4.417c-0.75,0.25,0.75,1.875-1.333,3.333     c-1.167,0.583,0.583,1.542-1.25,2.833c-1.167,0-20.833,0.083-20.833,0.083l-2-1.333V3.751z" stroke="#000000"/> 		<path id="_5762C2D4-11A9-4B14-8E9D-B66E3CB60172frame2" oryx:anchors="top left" style="opacity:1;fill:none;stroke-width:2" d="M 13.5 7 L 27 7" stroke="#000000"/> 		<path id="_5762C2D4-11A9-4B14-8E9D-B66E3CB60172frame3" oryx:anchors="top left" style="opacity:1;fill:none;stroke-width:2" d="M 13.5 11 L 26 11" stroke="#000000"/> 		<path id="_5762C2D4-11A9-4B14-8E9D-B66E3CB60172frame4" oryx:anchors="top left" style="opacity:1;fill:none;stroke-width:1.5" d="M 14 14.5 L 25 14.5" stroke="#000000"/> 		<path id="_5762C2D4-11A9-4B14-8E9D-B66E3CB60172frame5" oryx:anchors="top left" style="opacity:1;fill:none;stroke-width:1.5" d="M 8.2 3.1 L 15 3.1" stroke="#000000"/> 	</g> 	 	<g id="_5762C2D4-11A9-4B14-8E9D-B66E3CB60172businessRuleTask" transform="scale(0.7,0.7) translate(8,8)" display="none"> 		<rect id="_5762C2D4-11A9-4B14-8E9D-B66E3CB60172frame6" oryx:anchors="top left" x="0" y="0" width="22" height="4" style="opacity:1;fill:#B3B1B3;fill-opacity:1;" stroke="#000000"/> 		<rect id="_5762C2D4-11A9-4B14-8E9D-B66E3CB60172frame7" oryx:anchors="top left" x="0" y="4" style="opacity:1;fill:none;" width="22" height="12" stroke="#000000"/> 		<path id="_5762C2D4-11A9-4B14-8E9D-B66E3CB60172frame8" oryx:anchors="top left" style="opacity:1;fill:none;" d="M 0 10 L 22 10" stroke="#000000"/> 		<path id="_5762C2D4-11A9-4B14-8E9D-B66E3CB60172frame9" oryx:anchors="top left" style="opacity:1; fill:none;" d="M 7 4 L 7 16" stroke="#000000"/> 	</g> 	 	<g id="_5762C2D4-11A9-4B14-8E9D-B66E3CB60172scriptTask" transform="scale(0.7,0.7) translate(8,8)" display="none"> 		<path oryx:anchors="top left" id="_5762C2D4-11A9-4B14-8E9D-B66E3CB60172frame10" style="opacity:1;fill:none;" stroke="#000000" d="M6.402,0.5h14.5c0,0-5.833,2.833-5.833,5.583s4.417,6,4.417,9.167    s-4.167,5.083-4.167,5.083H0.235c0,0,5-2.667,5-5s-4.583-6.75-4.583-9.25S6.402,0.5,6.402,0.5z"/> 		<path oryx:anchors="top left" id="_5762C2D4-11A9-4B14-8E9D-B66E3CB60172frame11" style="opacity:1;fill:none;stroke-width:1.5" d="M 3.5 4.5 L 13.5 4.5" stroke="#000000"/> 		<path oryx:anchors="top left" id="_5762C2D4-11A9-4B14-8E9D-B66E3CB60172frame12" style="opacity:1;fill:none;stroke-width:1.5" d="M 3.8 8.5 L 13.8 8.5" stroke="#000000"/> 		<path oryx:anchors="top left" id="_5762C2D4-11A9-4B14-8E9D-B66E3CB60172frame13" style="opacity:1;fill:none;stroke-width:1.5" d="M 6.3 12.5 L 16.3 12.5" stroke="#000000"/> 		<path oryx:anchors="top left" id="_5762C2D4-11A9-4B14-8E9D-B66E3CB60172frame14" style="opacity:1;fill:none;stroke-width:1.5" d="M 6.5 16.5 L 16.5 16.5" stroke="#000000"/> 	</g> 	 	<g id="_5762C2D4-11A9-4B14-8E9D-B66E3CB60172userTask" transform="scale(0.7,0.7) translate(8,8)" display="inherit"> 		<path id="_5762C2D4-11A9-4B14-8E9D-B66E3CB60172frame15" oryx:anchors="top left" style="opacity:1;fill:#F4F6F7" stroke="#000000" d="M0.585,24.167h24.083v-7.833c0,0-2.333-3.917-7.083-5.167h-9.25    c-4.417,1.333-7.833,5.75-7.833,5.75L0.585,24.167z"/> 		<path id="_5762C2D4-11A9-4B14-8E9D-B66E3CB60172frame16" oryx:anchors="top left" style="opacity:1;fill:none" d="M 6 20 L 6 24" stroke="#000000"/> 		<path id="_5762C2D4-11A9-4B14-8E9D-B66E3CB60172frame17" oryx:anchors="top left" style="opacity:1;fill:none" d="M 20 20 L 20 24" stroke="#000000"/> 		<circle id="_5762C2D4-11A9-4B14-8E9D-B66E3CB60172frame18" oryx:anchors="top left" fill="black" cx="13.002" cy="5.916" r="5.417" stroke="#000000"/> 		<path id="_5762C2D4-11A9-4B14-8E9D-B66E3CB60172frame19" oryx:anchors="top left" style="opacity:1;fill:#F0EFF0;" stroke="#000000" d="M8.043,7.083c0,0,2.814-2.426,5.376-1.807s4.624-0.693,4.624-0.693    c0.25,1.688,0.042,3.75-1.458,5.584c0,0,1.083,0.75,1.083,1.5s0.125,1.875-1,3s-5.5,1.25-6.75,0S8.668,12.834,8.668,12    s0.583-1.25,1.25-1.917C8.835,9.5,7.419,7.708,8.043,7.083z"/> 	</g> 	 	<g id="_5762C2D4-11A9-4B14-8E9D-B66E3CB60172serviceTask" transform="scale(0.7,0.7) translate(8,8)" display="none"> 		<polygon oryx:anchors="top left" id="_5762C2D4-11A9-4B14-8E9D-B66E3CB60172frame20" style="opacity:1;fill:#ffffff" stroke="#000000" points="15.392,5.064 17.954,2.502 20.347,4.895 17.786,7.455     18.729,9.732 22.353,9.732 22.353,13.115 18.731,13.115 17.788,15.392 20.351,17.955 17.958,20.347 15.397,17.786 13.12,18.729     13.12,22.353 9.737,22.353 9.737,18.731 7.46,17.788 4.897,20.35 2.506,17.958 5.066,15.397 4.124,13.12 0.5,13.12 0.5,9.737     4.121,9.737 5.065,7.461 2.503,4.898 4.895,2.506 7.455,5.066 9.732,4.125 9.732,0.5 13.116,0.5 13.116,4.121 "/> 		<circle oryx:anchors="top left" id="_5762C2D4-11A9-4B14-8E9D-B66E3CB60172frame21" style="opacity:1;fill:none" stroke="#000000" cx="11.427" cy="11.426" r="3.714"/> 		<polygon oryx:anchors="top left" id="_5762C2D4-11A9-4B14-8E9D-B66E3CB60172frame22" style="opacity:1;fill:#ffffff" stroke="#000000" points="21.392,11.064 23.954,8.502 26.347,10.895 23.786,13.455     24.729,15.732 28.353,15.732 28.353,19.115 24.731,19.115 23.788,21.392 26.351,23.955 23.958,26.347 21.397,23.786 19.12,24.729     19.12,28.353 15.737,28.353 15.737,24.731 13.46,23.788 10.897,26.35 8.506,23.958 11.066,21.397 10.124,19.12 6.5,19.12     6.5,15.737 10.121,15.737 11.065,13.461 8.503,10.898 10.895,8.506 13.455,11.066 15.732,10.125 15.732,6.5 19.116,6.5     19.116,10.121 "/> 		<circle oryx:anchors="top left" id="_5762C2D4-11A9-4B14-8E9D-B66E3CB60172frame23" style="opacity:1;fill:none;" stroke="#000000" cx="17.427" cy="17.426" r="3.714"/> 	</g> 	 	<g id="_5762C2D4-11A9-4B14-8E9D-B66E3CB60172sendTask" display="none"> 		<path id="_5762C2D4-11A9-4B14-8E9D-B66E3CB60172stframe24" oryx:anchors="left top" stroke="#FFFFFF" fill="black" stroke-width="1" d="M8,11 L8,21 L24,21 L24,11 L16,17z"/> 		<path id="_5762C2D4-11A9-4B14-8E9D-B66E3CB60172stframe25" oryx:anchors="left top" stroke="#FFFFFF" fill="black" stroke-width="1" d="M7,10 L16,17 L25 10z"/> 	</g> 	 	<g id="_5762C2D4-11A9-4B14-8E9D-B66E3CB60172receiveTask" display="none"> 		<path id="_5762C2D4-11A9-4B14-8E9D-B66E3CB60172frame26" oryx:anchors="left top" stroke="#000000" fill="none" stroke-width="1" d="M8,11 L8,21 L24,21 L24,11z M8,11 L16,17 L24,11"/> 	</g> 	 	<g id="_5762C2D4-11A9-4B14-8E9D-B66E3CB60172none" display="none"/>  	<g id="_5762C2D4-11A9-4B14-8E9D-B66E3CB60172sequential" display="none">         <path oryx:anchors="bottom" fill="none" stroke="#000000" stroke-width="2" d="M46,76h10M46,72h10 M46,68h10" id="_5762C2D4-11A9-4B14-8E9D-B66E3CB60172__5762C2D4-11A9-4B14-8E9D-B66E3CB60172_20"/>     </g>   </g></g><g class="children" style="overflow:hidden"/><g class="edge"/></g><g class="controls"><g class="dockers"/><g class="magnets" transform="translate(472, 140)"><g pointer-events="all" display="none" transform="translate(-7, 12)"><circle cx="8" cy="8" r="4" stroke="none" fill="red" fill-opacity="0.3"/></g><g pointer-events="all" display="none" transform="translate(-7, 32)"><circle cx="8" cy="8" r="4" stroke="none" fill="red" fill-opacity="0.3"/></g><g pointer-events="all" display="none" transform="translate(-7, 52)"><circle cx="8" cy="8" r="4" stroke="none" fill="red" fill-opacity="0.3"/></g><g pointer-events="all" display="none" transform="translate(17, 71)"><circle cx="8" cy="8" r="4" stroke="none" fill="red" fill-opacity="0.3"/></g><g pointer-events="all" display="none" transform="translate(42, 71)"><circle cx="8" cy="8" r="4" stroke="none" fill="red" fill-opacity="0.3"/></g><g pointer-events="all" display="none" transform="translate(67, 71)"><circle cx="8" cy="8" r="4" stroke="none" fill="red" fill-opacity="0.3"/></g><g pointer-events="all" display="none" transform="translate(91, 12)"><circle cx="8" cy="8" r="4" stroke="none" fill="red" fill-opacity="0.3"/></g><g pointer-events="all" display="none" transform="translate(91, 32)"><circle cx="8" cy="8" r="4" stroke="none" fill="red" fill-opacity="0.3"/></g><g pointer-events="all" display="none" transform="translate(91, 52)"><circle cx="8" cy="8" r="4" stroke="none" fill="red" fill-opacity="0.3"/></g><g pointer-events="all" display="none" transform="translate(17, -7)"><circle cx="8" cy="8" r="4" stroke="none" fill="red" fill-opacity="0.3"/></g><g pointer-events="all" display="none" transform="translate(42, -7)"><circle cx="8" cy="8" r="4" stroke="none" fill="red" fill-opacity="0.3"/></g><g pointer-events="all" display="none" transform="translate(67, -7)"><circle cx="8" cy="8" r="4" stroke="none" fill="red" fill-opacity="0.3"/></g><g pointer-events="all" display="none" transform="translate(42, 32)"><circle cx="8" cy="8" r="4" stroke="none" fill="red" fill-opacity="0.3"/></g></g></g></g><g id="_54C623F3-2079-476C-8ACB-031629884140" bpmn2nodeid="_A4196B24-2822-4FF5-8F6B-CF3DD6D5843C"><g class="stencils" transform="translate(617, 166)"><g class="me"><g pointer-events="fill" id="_54C623F3-2079-476C-8ACB-031629884140">      <defs id="_54C623F3-2079-476C-8ACB-031629884140__54C623F3-2079-476C-8ACB-031629884140_5"> 		<radialGradient id="_54C623F3-2079-476C-8ACB-031629884140background" cx="10%" cy="10%" r="100%" fx="10%" fy="10%"> 			<stop offset="0%" stop-color="#ffffff" stop-opacity="1" id="_54C623F3-2079-476C-8ACB-031629884140__54C623F3-2079-476C-8ACB-031629884140_6"/> 			<stop id="_54C623F3-2079-476C-8ACB-031629884140fill_el" offset="100%" stop-color="#ff6347" stop-opacity="1"/> 		</radialGradient> 	</defs> 	     <circle id="_54C623F3-2079-476C-8ACB-031629884140bg_frame" cx="14" cy="14" r="14" stroke="#000000" fill="url(#_54C623F3-2079-476C-8ACB-031629884140background) white" stroke-width="3"/> 	<text font-size="11" id="_54C623F3-2079-476C-8ACB-031629884140text_name" x="14" y="30" oryx:align="top center" stroke="black" stroke-width="0pt" letter-spacing="-0.01px" fill="#000000" text-anchor="middle" transform="rotate(0 14 30)" visibility="inherit" oryx:fontSize="11"/>   </g></g><g class="children" style="overflow:hidden"/><g class="edge"/></g><g class="controls"><g class="dockers"/><g class="magnets" transform="translate(617, 166)"><g pointer-events="all" display="none" transform="translate(6, 6)"><circle cx="8" cy="8" r="4" stroke="none" fill="red" fill-opacity="0.3"/></g></g></g></g></g><g class="edge"><g id="_8D74AF05-77FD-4869-9E4D-A3161A847BE1" bpmn2nodeid="_01542274-F839-4252-94C7-73C86AC41D0C"><g class="stencils"><g class="me"><g pointer-events="painted" bpmn2nodeid="_B6D084FB-84A4-4C25-824C-422DA97D9AA0"><path id="_8D74AF05-77FD-4869-9E4D-A3161A847BE1_1" d="M150.609375 180L194.15625 180 " stroke="#000000" fill="none" stroke-width="2" stroke-linecap="round" stroke-linejoin="round" marker-start="url(#_8D74AF05-77FD-4869-9E4D-A3161A847BE1start)" marker-end="url(#_8D74AF05-77FD-4869-9E4D-A3161A847BE1end)"/></g><text id="_8D74AF05-77FD-4869-9E4D-A3161A847BE1text_name" font-size="12" x="164.609375" y="166" oryx:edgePosition="startTop" stroke-width="0pt" letter-spacing="-0.01px" fill="#000000" text-anchor="start" transform="rotate(360 150.609375 180)" visibility="inherit" oryx:fontSize="12"/></g><g class="children" style="overflow:hidden"/><g class="edge"/></g><g class="controls"><g class="dockers"/><g class="magnets"/></g></g><g id="_78564CA4-B179-4E6E-808A-AC7121365DB0" bpmn2nodeid="_DDED8659-760C-474D-9811-0C22FA461AEF"><g class="stencils"><g class="me"><g pointer-events="painted" bpmn2nodeid="_843B7519-6BB6-498E-98FB-101604EDC69A"><path id="_78564CA4-B179-4E6E-808A-AC7121365DB0_1" d="M295.84375 180L339.15625 180 " stroke="#000000" fill="none" stroke-width="2" stroke-linecap="round" stroke-linejoin="round" marker-start="url(#_78564CA4-B179-4E6E-808A-AC7121365DB0start)" marker-end="url(#_78564CA4-B179-4E6E-808A-AC7121365DB0end)"/></g><text id="_78564CA4-B179-4E6E-808A-AC7121365DB0text_name" font-size="12" x="309.84375" y="166" oryx:edgePosition="startTop" stroke-width="0pt" letter-spacing="-0.01px" fill="#000000" text-anchor="start" transform="rotate(360 295.84375 180)" visibility="inherit" oryx:fontSize="12"/></g><g class="children" style="overflow:hidden"/><g class="edge"/></g><g class="controls"><g class="dockers"/><g class="magnets"/></g></g><g id="_5A8C9997-39F8-4256-94AD-AD74D9959E9A" bpmn2nodeid="_5678D8A2-BB16-4C20-B137-328CCD1233C7"><g class="stencils"><g class="me"><g pointer-events="painted" bpmn2nodeid="_EE628C97-0AE8-4159-A600-EC9E43201A10"><path id="_5A8C9997-39F8-4256-94AD-AD74D9959E9A_1" d="M440.5 180L471.5 180 " stroke="#000000" fill="none" stroke-width="2" stroke-linecap="round" stroke-linejoin="round" marker-start="url(#_5A8C9997-39F8-4256-94AD-AD74D9959E9Astart)" marker-end="url(#_5A8C9997-39F8-4256-94AD-AD74D9959E9Aend)"/></g><text id="_5A8C9997-39F8-4256-94AD-AD74D9959E9Atext_name" font-size="12" x="454.5" y="166" oryx:edgePosition="startTop" stroke-width="0pt" letter-spacing="-0.01px" fill="#000000" text-anchor="start" transform="rotate(360 440.5 180)" visibility="inherit" oryx:fontSize="12"/></g><g class="children" style="overflow:hidden"/><g class="edge"/></g><g class="controls"><g class="dockers"/><g class="magnets"/></g></g><g id="_F1ACA06A-FFE1-478F-AA21-E1E1D02475E5" bpmn2nodeid="_BD7F7F77-911F-4AC8-A12B-FCD73FDB524A"><g class="stencils"><g class="me"><g pointer-events="painted" bpmn2nodeid="_890B1513-1E61-4B2E-8BAE-A9174C3862D6"><path id="_F1ACA06A-FFE1-478F-AA21-E1E1D02475E5_1" d="M572.390625 180L616.375 180 " stroke="#000000" fill="none" stroke-width="2" stroke-linecap="round" stroke-linejoin="round" marker-start="url(#_F1ACA06A-FFE1-478F-AA21-E1E1D02475E5start)" marker-end="url(#_F1ACA06A-FFE1-478F-AA21-E1E1D02475E5end)"/></g><text id="_F1ACA06A-FFE1-478F-AA21-E1E1D02475E5text_name" font-size="12" x="586.390625" y="166" oryx:edgePosition="startTop" stroke-width="0pt" letter-spacing="-0.01px" fill="#000000" text-anchor="start" transform="rotate(360 572.390625 180)" visibility="inherit" oryx:fontSize="12"/></g><g class="children" style="overflow:hidden"/><g class="edge"/></g><g class="controls"><g class="dockers"/><g class="magnets"/></g></g></g><text id="_7A036D5A-837B-4675-859A-3CC3FAAACDCC" style="stroke-width:1;fill:rgb(177,194,214);font-family:arial;font-weight:bold" font-size="12" onclick="ORYX.Plugins.CanvasTitle.openTextualAnalysis()" onmouseover="ORYX.Plugins.CanvasTitle.addToolTip('_7A036D5A-837B-4675-859A-3CC3FAAACDCC')" transform="translate(10, 20)">new v.1.0 (New.new)</text><text id="_7A036D5A-837B-4675-859A-3CC3FAAACDCC" style="stroke-width:1;fill:rgb(177,194,214);font-family:arial;font-weight:bold" font-size="12" onclick="ORYX.Plugins.CanvasTitle.openTextualAnalysis()" onmouseover="ORYX.Plugins.CanvasTitle.addToolTip('_7A036D5A-837B-4675-859A-3CC3FAAACDCC')" transform="translate(10, 20)">new v.1.0 (New.new)</text></g></g></svg>